<svg width="17" height="16" viewBox="0 0 17 16" fill="none" xmlns="http://www.w3.org/2000/svg">
<g id="chevron-right 1">
<path id="Vector" fill-rule="evenodd" clip-rule="evenodd" d="M4.94767 1.64689C4.99412 1.60033 5.0493 1.56339 5.11004 1.53818C5.17079 1.51297 5.23591 1.5 5.30167 1.5C5.36744 1.5 5.43256 1.51297 5.49331 1.53818C5.55405 1.56339 5.60923 1.60033 5.65567 1.64689L11.6557 7.64689C11.7022 7.69334 11.7392 7.74852 11.7644 7.80926C11.7896 7.87001 11.8026 7.93513 11.8026 8.00089C11.8026 8.06666 11.7896 8.13178 11.7644 8.19253C11.7392 8.25327 11.7022 8.30845 11.6557 8.35489L5.65567 14.3549C5.56179 14.4488 5.43445 14.5015 5.30167 14.5015C5.1689 14.5015 5.04156 14.4488 4.94767 14.3549C4.85379 14.261 4.80104 14.1337 4.80104 14.0009C4.80104 13.8681 4.85379 13.7408 4.94767 13.6469L10.5947 8.00089L4.94767 2.35489C4.90111 2.30845 4.86417 2.25327 4.83896 2.19253C4.81376 2.13178 4.80078 2.06666 4.80078 2.00089C4.80078 1.93513 4.81376 1.87001 4.83896 1.80926C4.86417 1.74852 4.90111 1.69334 4.94767 1.64689Z" fill="#003366"/>
</g>
</svg>
