<svg width="16" height="16" viewBox="0 0 16 16" fill="none" xmlns="http://www.w3.org/2000/svg">
<g id="chevron-right 3">
<path id="Vector" fill-rule="evenodd" clip-rule="evenodd" d="M4.64689 1.64689C4.69334 1.60033 4.74851 1.56339 4.80926 1.53818C4.87001 1.51297 4.93513 1.5 5.00089 1.5C5.06666 1.5 5.13178 1.51297 5.19253 1.53818C5.25327 1.56339 5.30845 1.60033 5.35489 1.64689L11.3549 7.64689C11.4015 7.69334 11.4384 7.74852 11.4636 7.80926C11.4888 7.87001 11.5018 7.93513 11.5018 8.00089C11.5018 8.06666 11.4888 8.13178 11.4636 8.19253C11.4384 8.25327 11.4015 8.30845 11.3549 8.35489L5.35489 14.3549C5.26101 14.4488 5.13367 14.5015 5.00089 14.5015C4.86812 14.5015 4.74078 14.4488 4.64689 14.3549C4.55301 14.261 4.50026 14.1337 4.50026 14.0009C4.50026 13.8681 4.55301 13.7408 4.64689 13.6469L10.2939 8.00089L4.64689 2.35489C4.60033 2.30845 4.56339 2.25327 4.53818 2.19253C4.51297 2.13178 4.5 2.06666 4.5 2.00089C4.5 1.93513 4.51297 1.87001 4.53818 1.80926C4.56339 1.74852 4.60033 1.69334 4.64689 1.64689Z" fill="#FAFAFA"/>
</g>
</svg>
