<svg width="20" height="20" viewBox="0 0 20 20" fill="none" xmlns="http://www.w3.org/2000/svg">
<g id="chevron-right 5">
<path id="Vector" fill-rule="evenodd" clip-rule="evenodd" d="M5.80862 2.05666C5.86667 1.99846 5.93564 1.95228 6.01157 1.92077C6.08751 1.88927 6.16891 1.87305 6.25112 1.87305C6.33333 1.87305 6.41473 1.88927 6.49066 1.92077C6.56659 1.95228 6.63556 1.99846 6.69362 2.05666L14.1936 9.55666C14.2518 9.61472 14.298 9.68369 14.3295 9.75962C14.361 9.83555 14.3772 9.91695 14.3772 9.99916C14.3772 10.0814 14.361 10.1628 14.3295 10.2387C14.298 10.3146 14.2518 10.3836 14.1936 10.4417L6.69362 17.9417C6.57626 18.059 6.41709 18.125 6.25112 18.125C6.08515 18.125 5.92598 18.059 5.80862 17.9417C5.69126 17.8243 5.62533 17.6651 5.62533 17.4992C5.62533 17.3332 5.69126 17.174 5.80862 17.0567L12.8674 9.99916L5.80862 2.94166C5.75041 2.88361 5.70423 2.81464 5.67273 2.73871C5.64122 2.66277 5.625 2.58137 5.625 2.49916C5.625 2.41696 5.64122 2.33555 5.67273 2.25962C5.70423 2.18369 5.75041 2.11472 5.80862 2.05666Z" fill="#005CB8"/>
</g>
</svg>
