<svg width="45" height="45" viewBox="0 0 45 45" fill="none" xmlns="http://www.w3.org/2000/svg">
<rect width="45" height="45" rx="22.5" fill="#CCCBCB"/>
<path d="M35 22.5766C35 15.6305 29.4038 10 22.5016 10C15.5962 10.0016 10 15.6305 10 22.5781C10 28.8539 14.5713 34.0564 20.5456 35V26.212H17.3741V22.5781H20.5487V19.805C20.5487 16.6539 22.4156 14.9134 25.27 14.9134C26.6385 14.9134 28.0681 15.1587 28.0681 15.1587V18.2521H26.4917C24.9403 18.2521 24.456 19.2223 24.456 20.2175V22.5766H27.9212L27.3681 26.2105H24.4544V34.9984C30.4287 34.0548 35 28.8523 35 22.5766Z" fill="#FDF7FF"/>
</svg>
