<svg width="49" height="48" viewBox="0 0 49 48" fill="none" xmlns="http://www.w3.org/2000/svg">
<path d="M1.25 24C1.25 11.1594 11.6594 0.75 24.5 0.75C37.3406 0.75 47.75 11.1594 47.75 24C47.75 36.8406 37.3406 47.25 24.5 47.25C11.6594 47.25 1.25 36.8406 1.25 24Z" fill="#FAFAFA"/>
<path d="M1.25 24C1.25 11.1594 11.6594 0.75 24.5 0.75C37.3406 0.75 47.75 11.1594 47.75 24C47.75 36.8406 37.3406 47.25 24.5 47.25C11.6594 47.25 1.25 36.8406 1.25 24Z" stroke="#CCCBCB" stroke-width="1.5"/>
<path d="M17.5 24H31.5" stroke="#0A0A0B" stroke-width="2.25" stroke-linecap="round" stroke-linejoin="round"/>
<path d="M24.5 17L31.5 24L24.5 31" stroke="#0A0A0B" stroke-width="2.25" stroke-linecap="round" stroke-linejoin="round"/>
</svg>
