<svg width="45" height="45" viewBox="0 0 45 45" fill="none" xmlns="http://www.w3.org/2000/svg">
<rect width="45" height="45" rx="22.5" fill="#CCCBCB"/>
<g clip-path="url(#clip0_1352_2714)">
<path d="M22.5 10C19.1078 10 18.6812 10.0156 17.3484 10.075C16.0156 10.1375 15.1078 10.3469 14.3125 10.6562C13.4783 10.97 12.7226 11.4622 12.0984 12.0984C11.4626 12.723 10.9705 13.4785 10.6562 14.3125C10.3469 15.1062 10.1359 16.0156 10.075 17.3437C10.0156 18.6797 10 19.1047 10 22.5016C10 25.8953 10.0156 26.3203 10.075 27.6531C10.1375 28.9844 10.3469 29.8922 10.6562 30.6875C10.9766 31.5094 11.4031 32.2062 12.0984 32.9016C12.7922 33.5969 13.4891 34.025 14.3109 34.3438C15.1078 34.6531 16.0141 34.8641 17.3453 34.925C18.6797 34.9844 19.1047 35 22.5 35C25.8953 35 26.3188 34.9844 27.6531 34.925C28.9828 34.8625 29.8938 34.6531 30.6891 34.3438C31.5228 34.0298 32.2778 33.5376 32.9016 32.9016C33.5969 32.2062 34.0234 31.5094 34.3438 30.6875C34.6516 29.8922 34.8625 28.9844 34.925 27.6531C34.9844 26.3203 35 25.8953 35 22.5C35 19.1047 34.9844 18.6797 34.925 17.3453C34.8625 16.0156 34.6516 15.1062 34.3438 14.3125C34.0296 13.4785 33.5374 12.7229 32.9016 12.0984C32.2775 11.462 31.5219 10.9698 30.6875 10.6562C29.8906 10.3469 28.9813 10.1359 27.6516 10.075C26.3172 10.0156 25.8938 10 22.4969 10H22.5016H22.5ZM21.3797 12.2531H22.5016C25.8391 12.2531 26.2344 12.2641 27.5516 12.325C28.7703 12.3797 29.4328 12.5844 29.8734 12.7547C30.4562 12.9813 30.8734 13.2531 31.3109 13.6906C31.7484 14.1281 32.0188 14.5438 32.2453 15.1281C32.4172 15.5672 32.6203 16.2297 32.675 17.4484C32.7359 18.7656 32.7484 19.1609 32.7484 22.4969C32.7484 25.8328 32.7359 26.2297 32.675 27.5469C32.6203 28.7656 32.4156 29.4266 32.2453 29.8672C32.0449 30.4099 31.725 30.9007 31.3094 31.3031C30.8719 31.7406 30.4563 32.0109 29.8719 32.2375C29.4344 32.4094 28.7719 32.6125 27.5516 32.6688C26.2344 32.7281 25.8391 32.7422 22.5016 32.7422C19.1641 32.7422 18.7672 32.7281 17.45 32.6688C16.2313 32.6125 15.5703 32.4094 15.1297 32.2375C14.5867 32.0374 14.0955 31.7181 13.6922 31.3031C13.2762 30.9001 12.9558 30.4088 12.7547 29.8656C12.5844 29.4266 12.3797 28.7641 12.325 27.5453C12.2656 26.2281 12.2531 25.8328 12.2531 22.4937C12.2531 19.1562 12.2656 18.7625 12.325 17.4453C12.3813 16.2266 12.5844 15.5641 12.7563 15.1234C12.9828 14.5406 13.2547 14.1234 13.6922 13.6859C14.1297 13.2484 14.5453 12.9781 15.1297 12.7516C15.5703 12.5797 16.2313 12.3766 17.45 12.3203C18.6031 12.2672 19.05 12.2516 21.3797 12.25V12.2531ZM29.1734 14.3281C28.9765 14.3281 28.7814 14.3669 28.5994 14.4423C28.4174 14.5177 28.2521 14.6282 28.1128 14.7675C27.9735 14.9068 27.863 15.0721 27.7876 15.2541C27.7122 15.4361 27.6734 15.6311 27.6734 15.8281C27.6734 16.0251 27.7122 16.2202 27.7876 16.4021C27.863 16.5841 27.9735 16.7495 28.1128 16.8888C28.2521 17.0281 28.4174 17.1386 28.5994 17.2139C28.7814 17.2893 28.9765 17.3281 29.1734 17.3281C29.5713 17.3281 29.9528 17.1701 30.2341 16.8888C30.5154 16.6075 30.6734 16.2259 30.6734 15.8281C30.6734 15.4303 30.5154 15.0488 30.2341 14.7675C29.9528 14.4862 29.5713 14.3281 29.1734 14.3281ZM22.5016 16.0812C21.6501 16.068 20.8045 16.2242 20.014 16.5408C19.2235 16.8575 18.5039 17.3282 17.8971 17.9257C17.2903 18.5231 16.8084 19.2353 16.4794 20.0207C16.1505 20.8062 15.9811 21.6492 15.9811 22.5008C15.9811 23.3523 16.1505 24.1954 16.4794 24.9808C16.8084 25.7663 17.2903 26.4785 17.8971 27.0759C18.5039 27.6733 19.2235 28.1441 20.014 28.4607C20.8045 28.7774 21.6501 28.9336 22.5016 28.9203C24.1868 28.894 25.7941 28.2061 26.9765 27.0051C28.159 25.804 28.8217 24.1862 28.8217 22.5008C28.8217 20.8154 28.159 19.1975 26.9765 17.9965C25.7941 16.7954 24.1868 16.1075 22.5016 16.0812ZM22.5016 18.3328C23.6068 18.3328 24.6667 18.7719 25.4482 19.5534C26.2297 20.3349 26.6688 21.3948 26.6688 22.5C26.6688 23.6052 26.2297 24.6651 25.4482 25.4466C24.6667 26.2281 23.6068 26.6672 22.5016 26.6672C21.3964 26.6672 20.3364 26.2281 19.5549 25.4466C18.7734 24.6651 18.3344 23.6052 18.3344 22.5C18.3344 21.3948 18.7734 20.3349 19.5549 19.5534C20.3364 18.7719 21.3964 18.3328 22.5016 18.3328Z" fill="#FDF7FF"/>
</g>
<defs>
<clipPath id="clip0_1352_2714">
<rect width="25" height="25" fill="white" transform="translate(10 10)"/>
</clipPath>
</defs>
</svg>
