<svg width="66" height="48" viewBox="0 0 66 48" fill="none" xmlns="http://www.w3.org/2000/svg">
<g clip-path="url(#clip0_1385_1621)">
<rect x="1.28516" y="1.23242" width="63.1653" height="45.8922" rx="3.1752" fill="white"/>
<path d="M65.7422 24.6496C65.7422 23.6617 64.5088 23.2124 63.8734 23.9688L61.3846 26.9315C59.8044 28.8125 56.9601 28.9581 55.1962 27.2481L53.6183 25.7185C51.9096 24.062 49.1717 24.139 47.5587 25.8888L46.6491 26.8755C44.9197 28.7517 41.9359 28.683 40.2947 26.7292L39.3326 25.5839C37.6461 23.5764 34.5589 23.5688 32.8627 25.5682L31.8231 26.7935C30.3221 28.5627 27.5239 28.3211 26.3484 26.3207C25.0972 24.1915 22.0316 24.1233 20.6372 26.1616C19.2693 28.1614 16.2722 28.1392 14.9646 26.0995C13.6534 24.0541 10.6645 24.0181 9.32164 26.0428L9.24252 26.1622C7.92471 28.1492 4.9923 28.1045 3.73561 26.0783L1.99265 23.9881C1.35878 23.228 0.121391 23.6762 0.121391 24.666V47.1881H65.7422V24.6496Z" fill="#003366"/>
<path d="M61.2311 4.47266L61.644 4.53545L61.2311 4.59824C61.0385 4.62755 60.8869 4.77817 60.8564 4.97066L60.7844 5.42557L60.7123 4.97066C60.6819 4.77817 60.5303 4.62755 60.3376 4.59824L59.9248 4.53545L60.3376 4.47266C60.5303 4.44335 60.6819 4.29273 60.7123 4.10024L60.7844 3.64533L60.8564 4.10024C60.8869 4.29273 61.0385 4.44335 61.2311 4.47266Z" stroke="#003366" stroke-width="0.767989"/>
<path d="M34.601 16.8866L34.2253 17.1219L34.2782 17.2065L34.6539 16.9712L34.601 16.8866ZM34.1611 16.7436L34.0799 16.6857L33.9513 16.8664L34.0326 16.9243L34.1611 16.7436ZM34.5903 17.4295L34.3718 17.4663L34.3883 17.5647L34.6069 17.5279L34.5903 17.4295ZM33.7979 16.283L33.7007 16.2607L33.6014 16.6928L33.6986 16.7152L33.7979 16.283ZM34.8458 17.9576L34.4138 17.8582L34.3915 17.9554L34.8235 18.0548L34.8458 17.9576ZM34.0686 17.2789C34.0072 17.1808 33.921 17.1005 33.8188 17.0463C33.6254 16.9436 33.3951 16.9443 33.2032 17.0452L33.9008 18.1599C34.0753 18.0313 34.1765 17.8243 34.1687 17.6054C34.1645 17.4897 34.13 17.3771 34.0686 17.2789ZM33.2795 16.5338L33.1811 16.5504L33.2179 16.769L33.3163 16.7525L33.2795 16.5338ZM34.3939 18.3146L34.2133 18.186L34.1555 18.2673L34.336 18.3959L34.3939 18.3146ZM32.7853 16.5654L32.7008 16.6184L34.0651 18.7985L34.1496 18.7455L32.7853 16.5654ZM33.0822 17.6875L32.7816 17.8758L32.6876 17.7254L32.5 18.2614L33.0639 18.3268L32.9698 18.1765L33.2704 17.9882L33.0822 17.6875Z" fill="#003366"/>
<ellipse cx="33.5924" cy="17.5468" rx="0.717366" ry="0.717699" fill="#003366"/>
<path d="M33.3299 19.9481C33.5978 20.0626 33.8222 20.2365 33.9782 20.4505C34.1342 20.6645 34.2158 20.9103 34.2138 21.1604C34.2119 21.4106 34.1265 21.6554 33.9672 21.8677C33.8078 22.0801 33.5807 22.2516 33.3111 22.3632C33.0415 22.4749 32.7399 22.5223 32.4398 22.5003C32.1397 22.4782 31.8529 22.3876 31.611 22.2383C31.3692 22.0891 31.1819 21.8872 31.0699 21.6549C30.958 21.4227 30.9257 21.1692 30.9766 20.9226L31.7051 21.0265C31.6772 21.1613 31.6949 21.2998 31.7561 21.4268C31.8173 21.5538 31.9197 21.6642 32.0519 21.7457C32.1841 21.8273 32.3409 21.8769 32.505 21.8889C32.669 21.901 32.8339 21.875 32.9813 21.814C33.1287 21.753 33.2528 21.6592 33.3399 21.5431C33.427 21.4271 33.4737 21.2932 33.4748 21.1565C33.4758 21.0197 33.4312 20.8854 33.3459 20.7684C33.2606 20.6514 33.138 20.5563 32.9915 20.4937L33.3299 19.9481Z" fill="#003366"/>
<ellipse cx="32.5497" cy="19.0311" rx="1.66299" ry="1.71269" fill="#003366"/>
<mask id="path-9-inside-1_1385_1621" fill="white">
<path fill-rule="evenodd" clip-rule="evenodd" d="M31.7064 17.5546C31.6318 17.4105 31.5269 17.2841 31.3988 17.1843C31.2639 17.0792 31.1069 17.0064 30.9396 16.9712C30.7724 16.9361 30.5993 16.9396 30.4336 16.9816L30.5763 17.5461C30.6561 17.5259 30.7395 17.5242 30.82 17.5412C30.9006 17.5581 30.9762 17.5932 31.0412 17.6438C31.1061 17.6944 31.1587 17.7591 31.1948 17.8331C31.2166 17.8778 31.2321 17.9251 31.241 17.9737C31.1453 18.0993 31.0665 18.2388 31.0077 18.3886C30.8786 18.7172 30.8516 19.079 30.9306 19.424L31.7567 19.2234C31.718 19.0545 31.7312 18.8774 31.7944 18.7165C31.8576 18.5556 31.9677 18.4189 32.1096 18.3252C32.2514 18.2315 32.418 18.1854 32.5864 18.1933C32.7547 18.2012 32.9165 18.2627 33.0495 18.3694L33.5709 17.6797C33.2994 17.4619 32.9689 17.3363 32.6251 17.3201C32.3028 17.305 31.9837 17.3867 31.7064 17.5546Z"/>
</mask>
<path fill-rule="evenodd" clip-rule="evenodd" d="M31.7064 17.5546C31.6318 17.4105 31.5269 17.2841 31.3988 17.1843C31.2639 17.0792 31.1069 17.0064 30.9396 16.9712C30.7724 16.9361 30.5993 16.9396 30.4336 16.9816L30.5763 17.5461C30.6561 17.5259 30.7395 17.5242 30.82 17.5412C30.9006 17.5581 30.9762 17.5932 31.0412 17.6438C31.1061 17.6944 31.1587 17.7591 31.1948 17.8331C31.2166 17.8778 31.2321 17.9251 31.241 17.9737C31.1453 18.0993 31.0665 18.2388 31.0077 18.3886C30.8786 18.7172 30.8516 19.079 30.9306 19.424L31.7567 19.2234C31.718 19.0545 31.7312 18.8774 31.7944 18.7165C31.8576 18.5556 31.9677 18.4189 32.1096 18.3252C32.2514 18.2315 32.418 18.1854 32.5864 18.1933C32.7547 18.2012 32.9165 18.2627 33.0495 18.3694L33.5709 17.6797C33.2994 17.4619 32.9689 17.3363 32.6251 17.3201C32.3028 17.305 31.9837 17.3867 31.7064 17.5546Z" fill="#FAFAFA"/>
<path d="M31.7064 17.5546L31.6214 17.5985L31.6684 17.6894L31.7559 17.6364L31.7064 17.5546ZM31.3988 17.1843L31.34 17.2597L31.34 17.2597L31.3988 17.1843ZM30.9396 16.9712L30.92 17.0648L30.9396 16.9712ZM30.4336 16.9816L30.4101 16.8889L30.3175 16.9123L30.3409 17.005L30.4336 16.9816ZM30.5763 17.5461L30.4836 17.5696L30.5071 17.6623L30.5998 17.6388L30.5763 17.5461ZM31.0412 17.6438L31.0999 17.5684V17.5684L31.0412 17.6438ZM31.1948 17.8331L31.1089 17.8751L31.1948 17.8331ZM31.241 17.9737L31.317 18.0316L31.3426 17.9981L31.335 17.9565L31.241 17.9737ZM31.0077 18.3886L31.0966 18.4236L31.0077 18.3886ZM30.9306 19.424L30.8374 19.4453L30.859 19.5397L30.9532 19.5169L30.9306 19.424ZM31.7567 19.2234L31.7792 19.3163L31.8709 19.2941L31.8499 19.2021L31.7567 19.2234ZM31.7944 18.7165L31.7054 18.6815L31.7944 18.7165ZM32.1096 18.3252L32.1623 18.4049L32.1096 18.3252ZM32.5864 18.1933L32.5909 18.0978L32.5864 18.1933ZM33.0495 18.3694L32.9897 18.4439L33.0664 18.5055L33.1258 18.427L33.0495 18.3694ZM33.5709 17.6797L33.6472 17.7373L33.7032 17.6632L33.6307 17.6051L33.5709 17.6797ZM32.6251 17.3201L32.6296 17.2246L32.6251 17.3201ZM31.7913 17.5107C31.7104 17.3543 31.5966 17.2172 31.4575 17.1088L31.34 17.2597C31.4573 17.351 31.5533 17.4666 31.6214 17.5985L31.7913 17.5107ZM31.4575 17.1088C31.3112 16.9949 31.1408 16.9158 30.9593 16.8777L30.92 17.0648C31.073 17.0969 31.2167 17.1636 31.34 17.2597L31.4575 17.1088ZM30.9593 16.8777C30.7778 16.8396 30.5899 16.8434 30.4101 16.8889L30.457 17.0742C30.6086 17.0359 30.767 17.0326 30.92 17.0648L30.9593 16.8777ZM30.3409 17.005L30.4836 17.5696L30.669 17.5227L30.5263 16.9581L30.3409 17.005ZM30.5998 17.6388C30.6655 17.6222 30.7341 17.6208 30.8004 17.6347L30.8397 17.4476C30.7449 17.4277 30.6468 17.4297 30.5529 17.4535L30.5998 17.6388ZM30.8004 17.6347C30.8667 17.6486 30.929 17.6775 30.9824 17.7192L31.0999 17.5684C31.0235 17.5088 30.9345 17.4675 30.8397 17.4476L30.8004 17.6347ZM30.9824 17.7192C31.0359 17.7608 31.0792 17.8141 31.1089 17.8751L31.2807 17.7911C31.2382 17.7041 31.1764 17.6279 31.0999 17.5684L30.9824 17.7192ZM31.1089 17.8751C31.1269 17.9118 31.1397 17.9508 31.147 17.9908L31.335 17.9565C31.3246 17.8994 31.3064 17.8437 31.2807 17.7911L31.1089 17.8751ZM31.165 17.9157C31.0639 18.0484 30.9808 18.1957 30.9187 18.3537L31.0966 18.4236C31.1523 18.282 31.2267 18.1502 31.317 18.0316L31.165 17.9157ZM30.9187 18.3537C30.7825 18.7002 30.7542 19.0816 30.8374 19.4453L31.0238 19.4026C30.9491 19.0763 30.9746 18.7342 31.0966 18.4236L30.9187 18.3537ZM30.9532 19.5169L31.7792 19.3163L31.7341 19.1305L30.9081 19.3311L30.9532 19.5169ZM31.8499 19.2021C31.8155 19.0519 31.8272 18.8944 31.8834 18.7514L31.7054 18.6815C31.6352 18.8604 31.6206 19.0571 31.6635 19.2448L31.8499 19.2021ZM31.8834 18.7514C31.9395 18.6085 32.0371 18.4876 32.1623 18.4049L32.0569 18.2454C31.8983 18.3501 31.7757 18.5027 31.7054 18.6815L31.8834 18.7514ZM32.1623 18.4049C32.2874 18.3223 32.434 18.2818 32.5819 18.2888L32.5909 18.0978C32.4021 18.0889 32.2155 18.1406 32.0569 18.2454L32.1623 18.4049ZM32.5819 18.2888C32.7298 18.2957 32.8723 18.3498 32.9897 18.4439L33.1093 18.2948C32.9608 18.1757 32.7796 18.1067 32.5909 18.0978L32.5819 18.2888ZM33.1258 18.427L33.6472 17.7373L33.4947 17.622L32.9733 18.3117L33.1258 18.427ZM33.6307 17.6051C33.3436 17.3749 32.9938 17.2418 32.6296 17.2246L32.6206 17.4156C32.944 17.4308 33.2551 17.549 33.5111 17.7543L33.6307 17.6051ZM32.6296 17.2246C32.2881 17.2086 31.9502 17.2952 31.6568 17.4729L31.7559 17.6364C32.0171 17.4782 32.3174 17.4014 32.6206 17.4156L32.6296 17.2246Z" fill="#003366" mask="url(#path-9-inside-1_1385_1621)"/>
<path d="M33.381 19.0313C33.381 19.5209 33.0058 19.9133 32.5484 19.9133C32.091 19.9133 31.7158 19.5209 31.7158 19.0313C31.7158 18.5417 32.091 18.1494 32.5484 18.1494C33.0058 18.1494 33.381 18.5417 33.381 19.0313Z" fill="#FAFAFA" stroke="#003366" stroke-width="0.0955913"/>
</g>
<rect x="0.967636" y="0.914902" width="63.8004" height="46.5273" rx="3.49272" stroke="#003366" stroke-width="0.63504"/>
<defs>
<clipPath id="clip0_1385_1621">
<rect x="1.28516" y="1.23242" width="63.1653" height="45.8922" rx="3.1752" fill="white"/>
</clipPath>
</defs>
</svg>
