<svg width="17" height="17" viewBox="0 0 17 17" fill="none" xmlns="http://www.w3.org/2000/svg">
<path d="M8.10156 0.400391C8.36678 0.400391 8.62113 0.505748 8.80867 0.693284C8.99621 0.88082 9.10156 1.13517 9.10156 1.40039V7.40039H15.1016C15.3668 7.40039 15.6211 7.50575 15.8087 7.69328C15.9962 7.88082 16.1016 8.13517 16.1016 8.40039C16.1016 8.66561 15.9962 8.91996 15.8087 9.1075C15.6211 9.29503 15.3668 9.40039 15.1016 9.40039H9.10156V15.4004C9.10156 15.6656 8.99621 15.92 8.80867 16.1075C8.62113 16.295 8.36678 16.4004 8.10156 16.4004C7.83635 16.4004 7.58199 16.295 7.39446 16.1075C7.20692 15.92 7.10156 15.6656 7.10156 15.4004V9.40039H1.10156C0.836346 9.40039 0.581992 9.29503 0.394456 9.1075C0.20692 8.91996 0.101562 8.66561 0.101562 8.40039C0.101562 8.13517 0.20692 7.88082 0.394456 7.69328C0.581992 7.50575 0.836346 7.40039 1.10156 7.40039H7.10156V1.40039C7.10156 1.13517 7.20692 0.88082 7.39446 0.693284C7.58199 0.505748 7.83635 0.400391 8.10156 0.400391Z" fill="#353535"/>
</svg>
