<svg width="124" height="70" viewBox="0 0 124 70" fill="none" xmlns="http://www.w3.org/2000/svg">
<path d="M7.512 44L0.072 27.2H1.992L8.952 43.016H7.896L14.904 27.2H16.704L9.264 44H7.512ZM18.7119 44V31.4H20.4159V44H18.7119ZM19.5759 28.616C19.2239 28.616 18.9279 28.496 18.6879 28.256C18.4479 28.016 18.3279 27.728 18.3279 27.392C18.3279 27.056 18.4479 26.776 18.6879 26.552C18.9279 26.312 19.2239 26.192 19.5759 26.192C19.9279 26.192 20.2239 26.304 20.4639 26.528C20.7039 26.752 20.8239 27.032 20.8239 27.368C20.8239 27.72 20.7039 28.016 20.4639 28.256C20.2399 28.496 19.9439 28.616 19.5759 28.616ZM30.5093 44.12C29.1973 44.12 28.0453 43.848 27.0533 43.304C26.0613 42.744 25.2853 41.984 24.7253 41.024C24.1653 40.048 23.8853 38.936 23.8853 37.688C23.8853 36.44 24.1493 35.336 24.6773 34.376C25.2213 33.416 25.9573 32.664 26.8853 32.12C27.8293 31.56 28.8853 31.28 30.0533 31.28C31.2373 31.28 32.2853 31.552 33.1973 32.096C34.1253 32.624 34.8533 33.376 35.3813 34.352C35.9093 35.312 36.1733 36.424 36.1733 37.688C36.1733 37.768 36.1653 37.856 36.1493 37.952C36.1493 38.032 36.1493 38.12 36.1493 38.216H25.1813V36.944H35.2373L34.5653 37.448C34.5653 36.536 34.3653 35.728 33.9653 35.024C33.5813 34.304 33.0533 33.744 32.3813 33.344C31.7093 32.944 30.9333 32.744 30.0533 32.744C29.1893 32.744 28.4133 32.944 27.7253 33.344C27.0373 33.744 26.5013 34.304 26.1173 35.024C25.7333 35.744 25.5413 36.568 25.5413 37.496V37.76C25.5413 38.72 25.7493 39.568 26.1653 40.304C26.5973 41.024 27.1893 41.592 27.9413 42.008C28.7093 42.408 29.5813 42.608 30.5573 42.608C31.3253 42.608 32.0373 42.472 32.6933 42.2C33.3653 41.928 33.9413 41.512 34.4213 40.952L35.3813 42.056C34.8213 42.728 34.1173 43.24 33.2693 43.592C32.4373 43.944 31.5173 44.12 30.5093 44.12ZM41.9753 44L37.2233 31.4H38.8553L43.1753 43.088H42.4313L46.8713 31.4H48.3353L52.7273 43.088H51.9833L56.3753 31.4H57.9353L53.1593 44H51.5513L47.3273 33.008H47.8313L43.5833 44H41.9753ZM74.6783 44V41.216L74.6063 40.76V36.104C74.6063 35.032 74.3023 34.208 73.6943 33.632C73.1023 33.056 72.2143 32.768 71.0303 32.768C70.2143 32.768 69.4383 32.904 68.7023 33.176C67.9663 33.448 67.3423 33.808 66.8303 34.256L66.0623 32.984C66.7023 32.44 67.4703 32.024 68.3663 31.736C69.2623 31.432 70.2063 31.28 71.1983 31.28C72.8303 31.28 74.0863 31.688 74.9663 32.504C75.8623 33.304 76.3103 34.528 76.3103 36.176V44H74.6783ZM70.3343 44.12C69.3903 44.12 68.5663 43.968 67.8623 43.664C67.1743 43.344 66.6463 42.912 66.2783 42.368C65.9103 41.808 65.7263 41.168 65.7263 40.448C65.7263 39.792 65.8783 39.2 66.1823 38.672C66.5023 38.128 67.0143 37.696 67.7183 37.376C68.4383 37.04 69.3983 36.872 70.5983 36.872H74.9423V38.144H70.6463C69.4303 38.144 68.5823 38.36 68.1023 38.792C67.6383 39.224 67.4062 39.76 67.4062 40.4C67.4062 41.12 67.6863 41.696 68.2463 42.128C68.8063 42.56 69.5903 42.776 70.5983 42.776C71.5583 42.776 72.3823 42.56 73.0703 42.128C73.7743 41.68 74.2863 41.04 74.6063 40.208L74.9903 41.384C74.6703 42.216 74.1103 42.88 73.3103 43.376C72.5263 43.872 71.5343 44.12 70.3343 44.12ZM80.9385 44V26.192H82.6425V44H80.9385ZM87.3838 44V26.192H89.0878V44H87.3838Z" fill="#005CB8"/>
<path fill-rule="evenodd" clip-rule="evenodd" d="M103.809 27.0567C103.867 26.9985 103.936 26.9523 104.012 26.9208C104.088 26.8893 104.169 26.873 104.251 26.873C104.333 26.873 104.415 26.8893 104.491 26.9208C104.567 26.9523 104.636 26.9985 104.694 27.0567L112.194 34.5567C112.252 34.6147 112.298 34.6837 112.33 34.7596C112.361 34.8356 112.377 34.917 112.377 34.9992C112.377 35.0814 112.361 35.1628 112.33 35.2387C112.298 35.3146 112.252 35.3836 112.194 35.4417L104.694 42.9417C104.576 43.059 104.417 43.125 104.251 43.125C104.085 43.125 103.926 43.059 103.809 42.9417C103.691 42.8243 103.625 42.6651 103.625 42.4992C103.625 42.3332 103.691 42.174 103.809 42.0567L110.867 34.9992L103.809 27.9417C103.75 27.8836 103.704 27.8146 103.673 27.7387C103.641 27.6628 103.625 27.5814 103.625 27.4992C103.625 27.417 103.641 27.3356 103.673 27.2596C103.704 27.1837 103.75 27.1147 103.809 27.0567Z" fill="#005CB8"/>
</svg>
