<svg width="302" height="281" viewBox="0 0 302 281" fill="none" xmlns="http://www.w3.org/2000/svg">
<path d="M142.68 280.708H4.17379C3.08755 280.708 2.0458 280.277 1.27772 279.509C0.509631 278.741 0.078125 277.699 0.078125 276.613V4.99339C0.0875825 3.91338 0.52326 2.88083 1.29032 2.12048C2.05739 1.36013 3.09374 0.933552 4.17379 0.933594H142.68C143.218 0.933594 143.751 1.03953 144.248 1.24536C144.745 1.45118 145.196 1.75287 145.576 2.13319C145.957 2.5135 146.258 2.96501 146.464 3.46192C146.67 3.95883 146.776 4.49141 146.776 5.02926V276.613C146.776 277.151 146.67 277.683 146.464 278.18C146.258 278.677 145.957 279.128 145.576 279.509C145.196 279.889 144.745 280.191 144.248 280.397C143.751 280.602 143.218 280.708 142.68 280.708ZM4.17379 1.07705C3.13569 1.07895 2.14066 1.49217 1.40661 2.22621C0.672563 2.96026 0.259341 3.9553 0.257445 4.99339V276.613C0.259341 277.651 0.672563 278.646 1.40661 279.38C2.14066 280.114 3.13569 280.527 4.17379 280.529H142.68C143.718 280.527 144.714 280.114 145.448 279.38C146.182 278.646 146.595 277.651 146.597 276.613V4.99339C146.595 3.9553 146.182 2.96026 145.448 2.22621C144.714 1.49217 143.718 1.07895 142.68 1.07705H4.17379Z" fill="#EBEBEB"/>
<path d="M297.821 280.708H159.314C158.228 280.708 157.186 280.277 156.418 279.509C155.65 278.741 155.219 277.699 155.219 276.613V4.99339C155.228 3.91338 155.664 2.88083 156.431 2.12048C157.198 1.36013 158.234 0.933552 159.314 0.933594H297.821C298.907 0.933594 299.949 1.3651 300.717 2.13319C301.485 2.90127 301.917 3.94302 301.917 5.02926V276.613C301.917 277.151 301.811 277.683 301.605 278.18C301.399 278.677 301.097 279.128 300.717 279.509C300.337 279.889 299.885 280.191 299.388 280.397C298.891 280.602 298.359 280.708 297.821 280.708ZM159.314 1.07705C158.276 1.07895 157.281 1.49217 156.547 2.22621C155.813 2.96026 155.4 3.9553 155.398 4.99339V276.613C155.4 277.651 155.813 278.646 156.547 279.38C157.281 280.114 158.276 280.527 159.314 280.529H297.821C298.859 280.527 299.854 280.114 300.588 279.38C301.322 278.646 301.735 277.651 301.737 276.613V4.99339C301.735 3.9553 301.322 2.96026 300.588 2.22621C299.854 1.49217 298.859 1.07895 297.821 1.07705H159.314Z" fill="#EBEBEB"/>
<path d="M52.767 82.168L53.929 84.5135L56.5255 84.8936L54.6463 86.7227L55.091 89.3049L52.767 88.0855L50.4502 89.3049L50.8949 86.7227L49.0156 84.8936L51.6122 84.5135L52.767 82.168Z" fill="#EBEBEB"/>
<path d="M284.915 192.793L286.077 195.146L288.674 195.526L286.795 197.348L287.239 199.937L284.915 198.718L282.599 199.937L283.043 197.348L281.164 195.526L283.761 195.146L284.915 192.793Z" fill="#F5F5F5"/>
<path d="M238.939 261L240.101 263.345L242.69 263.726L240.811 265.555L241.256 268.137L238.939 266.918L236.622 268.137L237.06 265.555L235.188 263.726L237.777 263.345L238.939 261Z" fill="#F5F5F5"/>
<path d="M133.745 40.4926L134.176 41.3677L135.144 41.5111C135.198 41.5182 135.249 41.5405 135.291 41.5755C135.333 41.6104 135.364 41.6566 135.38 41.7085C135.397 41.7604 135.398 41.816 135.384 41.8687C135.371 41.9214 135.342 41.969 135.302 42.0061L134.585 42.6875L134.75 43.6486C134.758 43.7021 134.752 43.7569 134.731 43.807C134.71 43.857 134.676 43.9004 134.632 43.9323C134.589 43.9642 134.537 43.9834 134.483 43.9878C134.429 43.9921 134.375 43.9815 134.326 43.9571L133.466 43.498L132.605 43.9571C132.557 43.9815 132.503 43.9921 132.449 43.9878C132.395 43.9834 132.343 43.9642 132.299 43.9323C132.255 43.9004 132.221 43.857 132.2 43.807C132.18 43.7569 132.173 43.7021 132.182 43.6486L132.34 42.6875L131.622 42.0061C131.582 41.9686 131.554 41.9203 131.54 41.8671C131.527 41.8138 131.529 41.7578 131.546 41.7057C131.563 41.6535 131.595 41.6075 131.638 41.573C131.681 41.5385 131.733 41.5171 131.787 41.5111L132.748 41.3677L133.179 40.4926C133.196 40.4307 133.233 40.3761 133.284 40.3373C133.335 40.2984 133.398 40.2773 133.462 40.2773C133.526 40.2773 133.589 40.2984 133.64 40.3373C133.691 40.3761 133.728 40.4307 133.745 40.4926Z" fill="#EBEBEB"/>
<path d="M15.2762 249.832L15.7066 250.7L16.6677 250.844C16.7223 250.851 16.7737 250.874 16.816 250.909C16.8583 250.944 16.8898 250.991 16.907 251.043C16.9242 251.095 16.9264 251.152 16.9132 251.205C16.9001 251.259 16.8722 251.307 16.8327 251.346L16.1154 252.02L16.2804 252.981C16.2889 253.035 16.2824 253.089 16.2617 253.139C16.241 253.19 16.2069 253.233 16.1632 253.265C16.1194 253.297 16.0677 253.316 16.0137 253.32C15.9597 253.325 15.9056 253.314 15.8572 253.29L14.9965 252.838L14.1358 253.29C14.0874 253.314 14.0333 253.325 13.9793 253.32C13.9253 253.316 13.8736 253.297 13.8298 253.265C13.786 253.233 13.7519 253.19 13.7312 253.139C13.7106 253.089 13.7041 253.035 13.7126 252.981L13.8775 252.02L13.1603 251.346C13.1209 251.308 13.0929 251.26 13.0794 251.207C13.0659 251.154 13.0675 251.098 13.0838 251.046C13.1002 250.994 13.1308 250.947 13.1722 250.911C13.2136 250.876 13.2641 250.852 13.3181 250.844L14.2792 250.7L14.7167 249.832C14.7359 249.773 14.7733 249.722 14.8236 249.685C14.8738 249.649 14.9344 249.629 14.9965 249.629C15.0586 249.629 15.1192 249.649 15.1694 249.685C15.2197 249.722 15.2571 249.773 15.2762 249.832Z" fill="#F5F5F5"/>
<path d="M34.6184 31.2728L35.0488 32.1479L36.0171 32.2842C36.0711 32.2928 36.1216 32.3163 36.1629 32.352C36.2043 32.3878 36.2349 32.4343 36.2513 32.4864C36.2677 32.5386 36.2692 32.5943 36.2557 32.6472C36.2422 32.7002 36.2142 32.7484 36.1749 32.7863L35.4576 33.5036L35.6226 34.4576C35.634 34.5117 35.6296 34.568 35.6098 34.6197C35.59 34.6714 35.5556 34.7162 35.5109 34.7488C35.4661 34.7814 35.4129 34.8004 35.3577 34.8035C35.3024 34.8065 35.2474 34.7935 35.1994 34.766L34.3386 34.3141L33.4779 34.766C33.4299 34.7935 33.3749 34.8065 33.3196 34.8035C33.2644 34.8004 33.2112 34.7814 33.1664 34.7488C33.1217 34.7162 33.0873 34.6714 33.0675 34.6197C33.0477 34.568 33.0433 34.5117 33.0547 34.4576L33.2125 33.5036L32.4952 32.7863C32.4558 32.7479 32.4279 32.6992 32.4147 32.6457C32.4016 32.5922 32.4038 32.5361 32.4209 32.4837C32.4381 32.4314 32.4697 32.385 32.512 32.3497C32.5543 32.3144 32.6056 32.2917 32.6602 32.2842L33.6214 32.1479L34.0804 31.2728C34.1035 31.2207 34.1412 31.1764 34.1889 31.1453C34.2367 31.1142 34.2924 31.0977 34.3494 31.0977C34.4064 31.0977 34.4622 31.1142 34.5099 31.1453C34.5577 31.1764 34.5953 31.2207 34.6184 31.2728Z" fill="#EBEBEB"/>
<path d="M33.4626 204.154C33.464 204.343 33.4093 204.528 33.3053 204.686C33.2014 204.844 33.0529 204.967 32.8787 205.04C32.7045 205.114 32.5125 205.134 32.327 205.098C32.1414 205.062 31.9708 204.971 31.8367 204.838C31.7025 204.705 31.6109 204.535 31.5736 204.35C31.5362 204.165 31.5546 203.972 31.6266 203.798C31.6986 203.623 31.8209 203.473 31.9779 203.368C32.1349 203.263 32.3197 203.207 32.5086 203.207C32.7604 203.207 33.002 203.307 33.1807 203.484C33.3594 203.661 33.4607 203.902 33.4626 204.154Z" fill="#EBEBEB"/>
<path d="M169.408 84.7789C169.409 84.9678 169.355 85.153 169.251 85.3108C169.147 85.4686 168.998 85.592 168.824 85.6653C168.65 85.7386 168.458 85.7586 168.272 85.7226C168.087 85.6866 167.916 85.5963 167.782 85.4631C167.648 85.33 167.556 85.1601 167.519 84.9748C167.481 84.7896 167.5 84.5974 167.572 84.4226C167.644 84.2479 167.766 84.0985 167.923 83.9933C168.08 83.8882 168.265 83.8321 168.454 83.8321C168.579 83.8311 168.703 83.8549 168.818 83.9021C168.934 83.9492 169.039 84.0188 169.128 84.1068C169.217 84.1948 169.287 84.2995 169.335 84.4149C169.383 84.5302 169.408 84.6539 169.408 84.7789Z" fill="#EBEBEB"/>
<path d="M119.947 32.0634C119.947 32.252 119.891 32.4365 119.786 32.5934C119.681 32.7502 119.532 32.8725 119.358 32.9447C119.184 33.0169 118.992 33.0358 118.807 32.999C118.622 32.9622 118.452 32.8713 118.318 32.7379C118.185 32.6045 118.094 32.4345 118.057 32.2495C118.021 32.0644 118.039 31.8726 118.112 31.6983C118.184 31.524 118.306 31.375 118.463 31.2701C118.62 31.1653 118.804 31.1094 118.993 31.1094C119.245 31.1113 119.487 31.2124 119.666 31.3909C119.844 31.5694 119.945 31.8109 119.947 32.0634Z" fill="#F5F5F5"/>
<path d="M121.459 264.563C124.293 263.894 126.048 261.054 125.379 258.221C124.711 255.387 121.871 253.632 119.037 254.301C116.203 254.97 114.448 257.809 115.117 260.643C115.786 263.477 118.626 265.232 121.459 264.563Z" fill="#F0F0F0"/>
<path d="M118.436 256.348C117.356 256.345 116.304 256.687 115.431 257.323C114.985 258.346 114.876 259.484 115.118 260.572C115.361 261.661 115.943 262.645 116.781 263.381C117.619 264.118 118.669 264.569 119.78 264.67C120.891 264.771 122.005 264.517 122.962 263.944C123.386 263.16 123.599 262.28 123.58 261.389C123.561 260.499 123.311 259.628 122.855 258.863C122.399 258.098 121.752 257.465 120.977 257.025C120.203 256.586 119.327 256.354 118.436 256.355V256.348Z" fill="#E6E6E6"/>
<path d="M76.2089 167.803H32.5625V148.099L76.2089 96.2109H97.0961V149.218H107.92V167.803H97.0961V183.927H76.2089V167.803ZM76.2089 149.218V122.076L53.1412 149.218H76.2089Z" fill="#407BFF"/>
<path d="M115.393 140.455C115.393 124.058 118.344 112.582 124.245 106.026C130.145 99.47 139.138 96.1944 151.221 96.1992C157.022 96.1992 161.787 96.9165 165.517 98.3511C168.905 99.572 172.008 101.474 174.633 103.939C176.847 106.052 178.721 108.493 180.192 111.176C181.648 113.978 182.744 116.951 183.456 120.027C185.078 126.598 185.887 133.343 185.866 140.111C185.866 155.757 183.219 167.207 177.926 174.462C172.632 181.716 163.516 185.345 150.576 185.35C143.317 185.35 137.452 184.193 132.981 181.878C128.474 179.526 124.678 176.012 121.985 171.7C119.905 168.525 118.286 164.181 117.129 158.667C115.928 152.672 115.346 146.569 115.393 140.455ZM139.164 140.513C139.164 151.511 140.132 159.011 142.069 163.014C144.006 167.016 146.82 169.027 150.511 169.046C151.683 169.059 152.845 168.84 153.931 168.4C155.017 167.96 156.005 167.31 156.838 166.485C158.626 164.778 159.941 162.081 160.783 158.394C161.624 154.708 162.045 148.969 162.045 141.18C162.045 129.732 161.074 122.036 159.133 118.091C157.192 114.146 154.279 112.175 150.397 112.18C146.437 112.18 143.568 114.191 141.789 118.213C140.01 122.234 139.135 129.667 139.164 140.513Z" fill="#407BFF"/>
<path d="M236.928 167.803H193.281V148.099L236.928 96.2109H257.815V149.218H268.674V167.803H257.815V183.927H236.928V167.803ZM236.928 149.218V122.076L213.867 149.218H236.928Z" fill="#407BFF"/>
<g opacity="0.3">
<path d="M116.94 65.9312C116.94 66.1968 116.862 66.4564 116.714 66.6771C116.566 66.8978 116.356 67.0697 116.111 67.1711C115.865 67.2724 115.595 67.2985 115.335 67.2462C115.074 67.1938 114.835 67.0654 114.648 66.8771C114.461 66.6888 114.334 66.4491 114.283 66.1884C114.232 65.9278 114.259 65.6579 114.362 65.4129C114.465 65.1679 114.638 64.9589 114.859 64.8124C115.081 64.6659 115.341 64.5884 115.606 64.5899C115.782 64.5899 115.956 64.6246 116.119 64.6921C116.281 64.7596 116.428 64.8585 116.552 64.9832C116.676 65.1078 116.774 65.2557 116.841 65.4184C116.908 65.5811 116.941 65.7554 116.94 65.9312Z" fill="#407BFF"/>
<path d="M25.1031 117.456C25.626 117.456 26.0499 117.032 26.0499 116.509C26.0499 115.986 25.626 115.562 25.1031 115.562C24.5802 115.562 24.1562 115.986 24.1562 116.509C24.1562 117.032 24.5802 117.456 25.1031 117.456Z" fill="#407BFF"/>
<path d="M181.528 255.723C182.276 255.723 182.883 255.116 182.883 254.367C182.883 253.619 182.276 253.012 181.528 253.012C180.779 253.012 180.172 253.619 180.172 254.367C180.172 255.116 180.779 255.723 181.528 255.723Z" fill="#407BFF"/>
<path d="M214.127 200.569C214.649 200.569 215.073 200.146 215.073 199.623C215.073 199.1 214.649 198.676 214.127 198.676C213.604 198.676 213.18 199.1 213.18 199.623C213.18 200.146 213.604 200.569 214.127 200.569Z" fill="#407BFF"/>
<path d="M277.011 30.0679C277.011 30.2552 276.955 30.4382 276.851 30.5939C276.747 30.7496 276.599 30.871 276.426 30.9426C276.253 31.0143 276.063 31.033 275.879 30.9965C275.696 30.96 275.527 30.8698 275.395 30.7374C275.262 30.605 275.172 30.4363 275.135 30.2526C275.099 30.0689 275.118 29.8786 275.189 29.7056C275.261 29.5326 275.382 29.3847 275.538 29.2807C275.694 29.1766 275.877 29.1211 276.064 29.1211C276.315 29.1211 276.556 29.2208 276.733 29.3984C276.911 29.576 277.011 29.8168 277.011 30.0679Z" fill="#407BFF"/>
<path d="M96.6749 10.9742C96.6749 11.1614 96.6193 11.3445 96.5153 11.5002C96.4113 11.6559 96.2634 11.7772 96.0904 11.8489C95.9174 11.9206 95.727 11.9393 95.5434 11.9028C95.3597 11.8662 95.191 11.7761 95.0586 11.6436C94.9261 11.5112 94.836 11.3425 94.7994 11.1589C94.7629 10.9752 94.7817 10.7848 94.8533 10.6118C94.925 10.4388 95.0463 10.2909 95.202 10.1869C95.3577 10.0829 95.5408 10.0273 95.7281 10.0273C95.9786 10.0292 96.2183 10.1296 96.3955 10.3067C96.5726 10.4839 96.673 10.7236 96.6749 10.9742Z" fill="#407BFF"/>
<path d="M171.955 60.6553C172.478 60.6553 172.901 60.2314 172.901 59.7085C172.901 59.1856 172.478 58.7617 171.955 58.7617C171.432 58.7617 171.008 59.1856 171.008 59.7085C171.008 60.2314 171.432 60.6553 171.955 60.6553Z" fill="#407BFF"/>
</g>
<path d="M74.0671 60.6616C82.7466 60.6616 89.7827 53.6255 89.7827 44.9461C89.7827 36.2666 82.7466 29.2305 74.0671 29.2305C65.3877 29.2305 58.3516 36.2666 58.3516 44.9461C58.3516 53.6255 65.3877 60.6616 74.0671 60.6616Z" fill="#407BFF"/>
<path opacity="0.7" d="M74.0671 60.6616C82.7466 60.6616 89.7827 53.6255 89.7827 44.9461C89.7827 36.2666 82.7466 29.2305 74.0671 29.2305C65.3877 29.2305 58.3516 36.2666 58.3516 44.9461C58.3516 53.6255 65.3877 60.6616 74.0671 60.6616Z" fill="white"/>
<path opacity="0.2" d="M68.6474 33.0899C66.5071 33.0834 64.3882 33.5154 62.4214 34.3595C60.0042 37.0162 58.5695 40.4205 58.3559 44.006C58.1424 47.5915 59.163 51.142 61.2478 54.0668C63.3327 56.9916 66.3561 59.1145 69.8152 60.0821C73.2742 61.0497 76.9603 60.8039 80.2602 59.3854C82.3061 57.1307 83.6534 54.3305 84.1384 51.3248C84.6235 48.3192 84.2255 45.2373 82.9927 42.4535C81.7599 39.6697 79.7454 37.3037 77.1938 35.6428C74.6422 33.9819 71.6633 33.0975 68.6187 33.0971L68.6474 33.0899Z" fill="#407BFF"/>
<path opacity="0.2" d="M67.0879 37.2432C67.0879 37.5269 67.0037 37.8042 66.8461 38.0401C66.6885 38.2761 66.4644 38.4599 66.2023 38.5685C65.9402 38.6771 65.6517 38.7055 65.3734 38.6501C65.0952 38.5948 64.8395 38.4582 64.6389 38.2575C64.4383 38.0569 64.3017 37.8013 64.2463 37.523C64.191 37.2447 64.2194 36.9563 64.328 36.6942C64.4365 36.432 64.6204 36.208 64.8563 36.0504C65.0922 35.8927 65.3696 35.8086 65.6533 35.8086C66.0338 35.8086 66.3987 35.9597 66.6677 36.2288C66.9367 36.4978 67.0879 36.8627 67.0879 37.2432Z" fill="#407BFF"/>
<path opacity="0.2" d="M83.9863 35.8057C83.9863 36.0894 83.9022 36.3667 83.7445 36.6026C83.5869 36.8386 83.3629 37.0224 83.1007 37.131C82.8386 37.2396 82.5502 37.268 82.2719 37.2126C81.9936 37.1573 81.738 37.0207 81.5374 36.82C81.3367 36.6194 81.2001 36.3638 81.1448 36.0855C81.0894 35.8072 81.1178 35.5188 81.2264 35.2567C81.335 34.9945 81.5188 34.7705 81.7547 34.6129C81.9907 34.4552 82.268 34.3711 82.5517 34.3711C82.9322 34.3711 83.2971 34.5222 83.5661 34.7913C83.8352 35.0603 83.9863 35.4252 83.9863 35.8057Z" fill="#407BFF"/>
<path opacity="0.2" d="M81.1194 46.0519C81.1194 46.5172 80.9814 46.9721 80.7229 47.359C80.4644 47.7459 80.097 48.0474 79.6671 48.2255C79.2372 48.4036 78.7641 48.4501 78.3078 48.3594C77.8514 48.2686 77.4322 48.0445 77.1032 47.7155C76.7741 47.3865 76.55 46.9672 76.4593 46.5109C76.3685 46.0545 76.4151 45.5815 76.5932 45.1516C76.7712 44.7217 77.0728 44.3542 77.4597 44.0957C77.8466 43.8372 78.3014 43.6992 78.7667 43.6992C79.3907 43.6992 79.9891 43.9471 80.4303 44.3883C80.8715 44.8295 81.1194 45.4279 81.1194 46.0519Z" fill="#407BFF"/>
<path opacity="0.2" d="M73.6427 52.755C73.6427 53.3763 73.4585 53.9837 73.1133 54.5004C72.7681 55.017 72.2774 55.4197 71.7033 55.6575C71.1293 55.8953 70.4976 55.9575 69.8881 55.8363C69.2787 55.7151 68.7189 55.4158 68.2796 54.9765C67.8402 54.5371 67.541 53.9773 67.4197 53.3679C67.2985 52.7584 67.3607 52.1268 67.5985 51.5527C67.8363 50.9786 68.239 50.488 68.7556 50.1427C69.2723 49.7975 69.8797 49.6133 70.5011 49.6133C71.3343 49.6133 72.1334 49.9443 72.7226 50.5335C73.3117 51.1226 73.6427 51.9217 73.6427 52.755Z" fill="#407BFF"/>
<path d="M260.322 234.51C262.072 227.096 257.48 219.667 250.066 217.917C242.652 216.167 235.223 220.759 233.473 228.173C231.723 235.587 236.315 243.016 243.729 244.766C251.143 246.516 258.572 241.924 260.322 234.51Z" fill="#407BFF"/>
<path opacity="0.3" d="M260.322 234.51C262.072 227.096 257.48 219.667 250.066 217.917C242.652 216.167 235.223 220.759 233.473 228.173C231.723 235.587 236.315 243.016 243.729 244.766C251.143 246.516 258.572 241.924 260.322 234.51Z" fill="white"/>
<path opacity="0.4" d="M255.613 220.662C252.556 219.739 249.272 219.907 246.324 221.136C243.377 222.365 240.947 224.58 239.45 227.401C237.954 230.223 237.484 233.477 238.12 236.607C238.756 239.737 240.46 242.549 242.939 244.562C244.225 244.953 245.562 245.151 246.906 245.15C249.753 245.15 252.531 244.268 254.857 242.625C257.183 240.983 258.945 238.661 259.899 235.978C260.853 233.295 260.953 230.383 260.186 227.64C259.418 224.898 257.821 222.461 255.613 220.662Z" fill="#407BFF"/>
<path d="M233.731 235.486C219.005 242.415 229.987 247.759 250.737 240.299C269.953 233.392 277.277 224.684 260.062 227.388C260.987 231.01 236.923 240.385 233.731 235.486Z" fill="#407BFF"/>
<path opacity="0.2" d="M207.041 96.2148C187.754 109.248 162.785 126.463 155.892 167.806H154.422C161.128 126.922 185.186 109.298 204.481 96.2148H207.041Z" fill="black"/>
<path d="M107.272 225.642C95.0783 225.642 83.0209 220.14 77.1464 211.16C73.5241 205.608 69.3137 193.981 81.8517 178.466L82.9635 179.37C74.0979 190.345 72.4625 201.355 78.3514 210.378C85.5242 221.352 102.445 226.876 116.891 222.945C131.688 218.921 140.669 206.053 141.537 187.64C144.499 124.656 177.96 105.254 202.39 91.0874C217.575 82.2864 228.542 75.9313 226.132 62.511C225.795 60.6533 225.057 59.3693 223.859 58.5803C220.738 56.5217 214.642 57.9491 207.584 59.5917C193.733 62.8194 174.768 67.2379 163.471 48.022L164.712 47.3047C175.471 65.6168 193.095 61.5068 207.261 58.2073C214.642 56.493 221.011 55.0083 224.648 57.3968C226.19 58.4082 227.137 60.0077 227.517 62.2743C230.106 76.6773 218.192 83.5918 203.093 92.3426C178.943 106.344 145.876 125.517 142.95 187.741C142.046 206.82 132.678 220.169 117.242 224.365C113.99 225.231 110.637 225.66 107.272 225.642Z" fill="#407BFF"/>
<path opacity="0.2" d="M107.272 225.642C95.0783 225.642 83.0209 220.14 77.1464 211.16C73.5241 205.608 69.3137 193.981 81.8517 178.466L82.9635 179.37C74.0979 190.345 72.4625 201.355 78.3514 210.378C85.5242 221.352 102.445 226.876 116.891 222.945C131.688 218.921 140.669 206.053 141.537 187.64C144.499 124.656 177.96 105.254 202.39 91.0874C217.575 82.2864 228.542 75.9313 226.132 62.511C225.795 60.6533 225.057 59.3693 223.859 58.5803C220.738 56.5217 214.642 57.9491 207.584 59.5917C193.733 62.8194 174.768 67.2379 163.471 48.022L164.712 47.3047C175.471 65.6168 193.095 61.5068 207.261 58.2073C214.642 56.493 221.011 55.0083 224.648 57.3968C226.19 58.4082 227.137 60.0077 227.517 62.2743C230.106 76.6773 218.192 83.5918 203.093 92.3426C178.943 106.344 145.876 125.517 142.95 187.741C142.046 206.82 132.678 220.169 117.242 224.365C113.99 225.231 110.637 225.66 107.272 225.642Z" fill="white"/>
<path d="M148.703 31.0625C152.008 31.0816 155.292 31.5966 158.444 32.5903C158.444 32.5903 166.334 46.0536 167.266 49.1379C166.936 52.1792 161.808 57.1643 161.808 57.1643L148.703 31.0625Z" fill="#407BFF"/>
<path opacity="0.3" d="M148.703 31.0625C152.008 31.0816 155.292 31.5966 158.444 32.5903C158.444 32.5903 166.334 46.0536 167.266 49.1379C166.936 52.1792 161.808 57.1643 161.808 57.1643L148.703 31.0625Z" fill="white"/>
<path d="M172.067 96.428C169.029 92.7127 166.258 88.7865 163.775 84.6789C163.173 83.6413 162.601 82.5845 162.061 81.5086C161.753 80.8989 161.458 80.2892 161.172 79.6723C160.795 79.0721 160.503 78.4228 160.304 77.7428C159.443 68.6549 162.556 61.9627 159.586 54.668L147.766 59.2872C147.766 59.2872 148.77 72.2843 151.065 80.0883C152.5 84.9156 155.713 89.0902 158.819 92.9563C159.787 94.1614 160.72 95.4023 161.688 96.6145C162.656 97.8267 163.632 98.8093 164.557 99.9498C165.956 101.678 166.415 103.335 165.36 105.372L165.181 105.695C164.88 106.226 166.286 106.829 167.175 105.695C168.61 103.845 168.409 103.959 169.657 102.381C170.417 101.427 171.285 100.387 172.038 99.5123C172.402 99.082 172.603 98.5384 172.609 97.9753C172.614 97.4122 172.422 96.8649 172.067 96.428Z" fill="#407BFF"/>
<path opacity="0.7" d="M172.067 96.428C169.029 92.7127 166.258 88.7865 163.775 84.6789C163.173 83.6413 162.601 82.5845 162.061 81.5086C161.753 80.8989 161.458 80.2892 161.172 79.6723C160.795 79.0721 160.503 78.4228 160.304 77.7428C159.443 68.6549 162.556 61.9627 159.586 54.668L147.766 59.2872C147.766 59.2872 148.77 72.2843 151.065 80.0883C152.5 84.9156 155.713 89.0902 158.819 92.9563C159.787 94.1614 160.72 95.4023 161.688 96.6145C162.656 97.8267 163.632 98.8093 164.557 99.9498C165.956 101.678 166.415 103.335 165.36 105.372L165.181 105.695C164.88 106.226 166.286 106.829 167.175 105.695C168.61 103.845 168.409 103.959 169.657 102.381C170.417 101.427 171.285 100.387 172.038 99.5123C172.402 99.082 172.603 98.5384 172.609 97.9753C172.614 97.4122 172.422 96.8649 172.067 96.428Z" fill="white"/>
<path opacity="0.3" d="M169.18 92.6953C167.305 94.706 165.223 96.514 162.969 98.0893C163.277 98.4335 163.578 98.8065 163.887 99.1365C166.143 97.612 168.193 95.8013 169.984 93.7497L169.18 92.6953Z" fill="#407BFF"/>
<path opacity="0.3" d="M172.071 96.4285L171.985 96.3281C171.433 96.9613 171.112 97.7628 171.074 98.6019C171.028 99.1775 171.121 99.7558 171.347 100.287L172.028 99.477C172.384 99.0511 172.583 98.5155 172.591 97.9604C172.599 97.4053 172.415 96.8643 172.071 96.4285Z" fill="#407BFF"/>
<path d="M145.895 39.6731C144.614 41.5919 143.077 43.327 141.326 44.8304C140.356 45.667 139.292 46.389 138.156 46.9822C137.559 47.288 136.941 47.5493 136.305 47.764L135.818 47.9218L135.66 47.9649L135.323 48.0581C135.115 48.1074 134.904 48.141 134.691 48.1586C134.086 48.2048 133.478 48.1491 132.891 47.9936C132.151 47.7836 131.442 47.4773 130.782 47.0826C130.251 46.7722 129.736 46.4346 129.24 46.0713C128.343 45.4042 127.486 44.6857 126.672 43.9194C125.103 42.4328 123.663 40.8155 122.369 39.085C122.119 38.7478 121.995 38.3342 122.018 37.9155C122.041 37.4968 122.21 37.0993 122.495 36.7915C122.779 36.4838 123.163 36.2851 123.578 36.2297C123.994 36.1744 124.416 36.2659 124.771 36.4884H124.829C126.522 37.5643 128.229 38.6976 129.893 39.709C130.739 40.2039 131.557 40.706 132.367 41.0934C132.737 41.2871 133.118 41.4595 133.508 41.6098C133.751 41.717 134.011 41.7801 134.275 41.7963C134.318 41.7963 134.275 41.7461 134.01 41.7532C133.926 41.7482 133.843 41.7482 133.759 41.7532L133.601 41.7891L133.838 41.6672C134.157 41.4957 134.466 41.3065 134.763 41.1005C135.405 40.648 136.005 40.1391 136.556 39.5799C137.809 38.2667 138.983 36.8799 140.071 35.4268C140.667 34.76 141.491 34.3399 142.381 34.249C143.27 34.1582 144.162 34.4031 144.881 34.9357C145.599 35.4683 146.093 36.2502 146.265 37.128C146.436 38.0058 146.274 38.9161 145.809 39.6803L145.895 39.6731Z" fill="#407BFF"/>
<path opacity="0.7" d="M145.895 39.6731C144.614 41.5919 143.077 43.327 141.326 44.8304C140.356 45.667 139.292 46.389 138.156 46.9822C137.559 47.288 136.941 47.5493 136.305 47.764L135.818 47.9218L135.66 47.9649L135.323 48.0581C135.115 48.1074 134.904 48.141 134.691 48.1586C134.086 48.2048 133.478 48.1491 132.891 47.9936C132.151 47.7836 131.442 47.4773 130.782 47.0826C130.251 46.7722 129.736 46.4346 129.24 46.0713C128.343 45.4042 127.486 44.6857 126.672 43.9194C125.103 42.4328 123.663 40.8155 122.369 39.085C122.119 38.7478 121.995 38.3342 122.018 37.9155C122.041 37.4968 122.21 37.0993 122.495 36.7915C122.779 36.4838 123.163 36.2851 123.578 36.2297C123.994 36.1744 124.416 36.2659 124.771 36.4884H124.829C126.522 37.5643 128.229 38.6976 129.893 39.709C130.739 40.2039 131.557 40.706 132.367 41.0934C132.737 41.2871 133.118 41.4595 133.508 41.6098C133.751 41.717 134.011 41.7801 134.275 41.7963C134.318 41.7963 134.275 41.7461 134.01 41.7532C133.926 41.7482 133.843 41.7482 133.759 41.7532L133.601 41.7891L133.838 41.6672C134.157 41.4957 134.466 41.3065 134.763 41.1005C135.405 40.648 136.005 40.1391 136.556 39.5799C137.809 38.2667 138.983 36.8799 140.071 35.4268C140.667 34.76 141.491 34.3399 142.381 34.249C143.27 34.1582 144.162 34.4031 144.881 34.9357C145.599 35.4683 146.093 36.2502 146.265 37.128C146.436 38.0058 146.274 38.9161 145.809 39.6803L145.895 39.6731Z" fill="white"/>
<path d="M119.68 34.9527L120.519 36.3872C120.519 36.3872 121.157 38.2665 122.441 38.6108L125.927 37.4847L125.748 37.1906C125.303 36.5163 125.353 35.2037 125.504 34.1135C125.655 33.0232 125.095 32.9873 124.679 33.2599C124.384 33.599 124.177 34.0055 124.077 34.4434C123.906 34.2065 123.716 33.9835 123.51 33.7763L122.448 32.7148C122.226 32.4971 121.929 32.3717 121.618 32.3637C121.306 32.3557 121.004 32.4657 120.77 32.6717L119.909 33.4392C119.705 33.6281 119.571 33.8807 119.529 34.1557C119.488 34.4307 119.541 34.7118 119.68 34.9527Z" fill="#407BFF"/>
<path opacity="0.7" d="M119.68 34.9527L120.519 36.3872C120.519 36.3872 121.157 38.2665 122.441 38.6108L125.927 37.4847L125.748 37.1906C125.303 36.5163 125.353 35.2037 125.504 34.1135C125.655 33.0232 125.095 32.9873 124.679 33.2599C124.384 33.599 124.177 34.0055 124.077 34.4434C123.906 34.2065 123.716 33.9835 123.51 33.7763L122.448 32.7148C122.226 32.4971 121.929 32.3717 121.618 32.3637C121.306 32.3557 121.004 32.4657 120.77 32.6717L119.909 33.4392C119.705 33.6281 119.571 33.8807 119.529 34.1557C119.488 34.4307 119.541 34.7118 119.68 34.9527Z" fill="white"/>
<path d="M152.223 29.7867C148.357 30.8116 144.653 32.3737 141.22 34.4275C140.685 34.7627 140.265 35.2535 140.016 35.8343C139.767 36.415 139.702 37.0579 139.829 37.6768C141.213 44.4479 144.362 53.5143 147.762 59.2884L163.621 52.7253C163.729 49.9279 159.877 40.8758 155.953 32.125C155.25 30.5542 153.895 29.385 152.223 29.7867Z" fill="#407BFF"/>
<path opacity="0.8" d="M152.223 29.7867C148.357 30.8116 144.653 32.3737 141.22 34.4275C140.685 34.7627 140.265 35.2535 140.016 35.8343C139.767 36.415 139.702 37.0579 139.829 37.6768C141.213 44.4479 144.362 53.5143 147.762 59.2884L163.621 52.7253C163.729 49.9279 159.877 40.8758 155.953 32.125C155.25 30.5542 153.895 29.385 152.223 29.7867Z" fill="white"/>
<path opacity="0.3" d="M158.414 37.6677L155.266 36.6133C155.983 38.4567 158.515 40.7878 160.287 42.1579C159.713 40.7233 159.074 39.217 158.414 37.6677Z" fill="#407BFF"/>
<path d="M151.185 22.6859C149.872 20.1897 147.039 18.9345 143.639 19.2142C140.77 19.4581 138.231 22.3846 138.532 23.9626C138.833 25.5406 141.243 26.2149 141.703 26.76L139.716 28.1946C139.48 28.3645 139.282 28.5802 139.132 28.8288C138.982 29.0775 138.884 29.3538 138.844 29.6413C138.804 29.9288 138.822 30.2214 138.898 30.5016C138.974 30.7818 139.106 31.0438 139.285 31.2717C140.125 32.3333 141.229 33.4235 141.868 34.2269C147.362 34.0834 151.429 31.989 152.899 29.9734C152.347 27.4199 152.462 25.1677 151.185 22.6859Z" fill="#407BFF"/>
<path opacity="0.8" d="M151.185 22.6859C149.872 20.1897 147.039 18.9345 143.639 19.2142C140.77 19.4581 138.231 22.3846 138.532 23.9626C138.833 25.5406 141.243 26.2149 141.703 26.76L139.716 28.1946C139.48 28.3645 139.282 28.5802 139.132 28.8288C138.982 29.0775 138.884 29.3538 138.844 29.6413C138.804 29.9288 138.822 30.2214 138.898 30.5016C138.974 30.7818 139.106 31.0438 139.285 31.2717C140.125 32.3333 141.229 33.4235 141.868 34.2269C147.362 34.0834 151.429 31.989 152.899 29.9734C152.347 27.4199 152.462 25.1677 151.185 22.6859Z" fill="white"/>
<path d="M148.489 24.2364C148.879 25.2367 148.963 26.3302 148.732 27.3787C148.501 28.4272 147.964 29.3835 147.189 30.1269C146.414 30.8702 145.437 31.3672 144.38 31.555C143.322 31.7428 142.233 31.613 141.25 31.182C140.267 30.7509 139.433 30.038 138.855 29.1334C138.277 28.2288 137.979 27.173 138.001 26.0995C138.023 25.0261 138.362 23.9831 138.976 23.1025C139.591 22.2219 140.452 21.5432 141.452 21.1521C142.794 20.6292 144.289 20.6603 145.608 21.2386C146.928 21.8169 147.964 22.8951 148.489 24.2364Z" fill="#263238"/>
<path d="M195.06 88.8774C194.981 86.5176 194.874 86.7256 194.809 84.7387C194.766 83.5194 194.759 82.1637 194.752 80.9945C194.75 80.4393 194.556 79.9019 194.203 79.4733C193.85 79.0446 193.36 78.7509 192.815 78.6419C191.868 78.4482 190.915 78.2689 189.946 78.068C188.705 77.8026 187.479 77.5157 186.267 77.1643C185.32 76.8917 184.387 76.5904 183.462 76.2533C182.537 75.9162 181.497 75.536 180.535 75.0913C179.402 74.6108 178.283 74.0943 177.179 73.5564C175.938 72.9682 174.711 72.3513 173.485 71.7273C168.765 63.9161 168.665 58.7661 163.601 52.7266L152.727 57.6471C152.727 57.6471 160.717 71.8205 166.154 77.8313C169.289 81.2886 174.202 82.8523 178.584 83.9856C181.748 84.7961 184.954 85.4202 188.16 86.0155C189.408 86.245 190.764 86.3311 191.84 87.0771C192.636 87.6874 193.182 88.5674 193.375 89.5517C193.423 89.7525 193.466 89.9534 193.504 90.1542C193.64 90.7567 195.111 90.2977 195.06 88.8774Z" fill="#407BFF"/>
<path opacity="0.8" d="M195.06 88.8774C194.981 86.5176 194.874 86.7256 194.809 84.7387C194.766 83.5194 194.759 82.1637 194.752 80.9945C194.75 80.4393 194.556 79.9019 194.203 79.4733C193.85 79.0446 193.36 78.7509 192.815 78.6419C191.868 78.4482 190.915 78.2689 189.946 78.068C188.705 77.8026 187.479 77.5157 186.267 77.1643C185.32 76.8917 184.387 76.5904 183.462 76.2533C182.537 75.9162 181.497 75.536 180.535 75.0913C179.402 74.6108 178.283 74.0943 177.179 73.5564C175.938 72.9682 174.711 72.3513 173.485 71.7273C168.765 63.9161 168.665 58.7661 163.601 52.7266L152.727 57.6471C152.727 57.6471 160.717 71.8205 166.154 77.8313C169.289 81.2886 174.202 82.8523 178.584 83.9856C181.748 84.7961 184.954 85.4202 188.16 86.0155C189.408 86.245 190.764 86.3311 191.84 87.0771C192.636 87.6874 193.182 88.5674 193.375 89.5517C193.423 89.7525 193.466 89.9534 193.504 90.1542C193.64 90.7567 195.111 90.2977 195.06 88.8774Z" fill="white"/>
<path opacity="0.3" d="M189.543 77.9777C189.113 77.8844 188.682 77.7912 188.245 77.6836C188.281 80.1654 187.119 84.4404 186.695 85.7386L188.058 85.9969C188.951 83.4131 189.452 80.7099 189.543 77.9777Z" fill="#407BFF"/>
<path opacity="0.3" d="M194.787 80.9929C194.785 80.4387 194.592 79.9021 194.241 79.4736C193.889 79.045 193.401 78.7507 192.858 78.6402L192.141 78.5039C192.256 79.3193 192.673 80.0617 193.31 80.584C193.719 80.9626 194.21 81.2423 194.744 81.4017C194.787 81.2726 194.787 81.1291 194.787 80.9929Z" fill="#407BFF"/>
<path d="M147.482 24.277C147.769 25.3673 146.55 26.5077 145.581 25.5681C144.678 24.5991 143.689 23.7133 142.626 22.9213C141.629 22.2973 142.956 21.207 144.527 21.6302C145.197 21.7986 145.817 22.1276 146.332 22.5887C146.846 23.0498 147.241 23.6292 147.482 24.277Z" fill="white"/>
<path d="M147.549 58.9369C147.046 59.1234 147.965 59.9842 147.965 59.9842C147.965 59.9842 158.007 56.5484 164.103 53.0122C164.118 52.7981 164.082 52.5836 163.997 52.3865C163.912 52.1894 163.781 52.0154 163.616 51.8789C158.398 54.5333 153.033 56.8897 147.549 58.9369Z" fill="#407BFF"/>
<path opacity="0.5" d="M147.549 58.9369C147.046 59.1234 147.965 59.9842 147.965 59.9842C147.965 59.9842 158.007 56.5484 164.103 53.0122C164.118 52.7981 164.082 52.5836 163.997 52.3865C163.912 52.1894 163.781 52.0154 163.616 51.8789C158.398 54.5333 153.033 56.8897 147.549 58.9369Z" fill="white"/>
<path d="M154.941 29.3135C156.921 30.3177 158.779 31.3721 160.68 32.5412C161.605 33.1294 162.523 33.7247 163.434 34.3703C164.345 35.0158 165.249 35.6757 166.16 36.4217L166.497 36.7015L166.92 37.0888C167.172 37.3144 167.412 37.5539 167.637 37.8061C167.867 38.0571 168.06 38.301 168.247 38.5233C168.433 38.7457 168.634 39.0111 168.799 39.2406C169.468 40.1627 170.085 41.1205 170.65 42.1097C171.761 44.028 172.721 46.0306 173.519 48.099C173.666 48.4898 173.674 48.9197 173.541 49.3155C173.407 49.7113 173.14 50.0486 172.786 50.27C172.432 50.4915 172.012 50.5835 171.598 50.5303C171.183 50.4771 170.8 50.282 170.514 49.9783L170.478 49.9353C169.043 48.4074 167.659 46.8007 166.267 45.3016C164.876 43.8025 163.463 42.2819 162.294 41.6148C160.665 40.6034 158.851 39.5921 157.05 38.6022L151.628 35.5897C150.787 35.1445 150.157 34.3836 149.877 33.4743C149.598 32.5649 149.69 31.5817 150.136 30.7409C150.581 29.9 151.342 29.2705 152.251 28.9907C153.16 28.7109 154.144 28.8038 154.984 29.2489L154.941 29.3135Z" fill="#407BFF"/>
<path opacity="0.8" d="M154.941 29.3135C156.921 30.3177 158.779 31.3721 160.68 32.5412C161.605 33.1294 162.523 33.7247 163.434 34.3703C164.345 35.0158 165.249 35.6757 166.16 36.4217L166.497 36.7015L166.92 37.0888C167.172 37.3144 167.412 37.5539 167.637 37.8061C167.867 38.0571 168.06 38.301 168.247 38.5233C168.433 38.7457 168.634 39.0111 168.799 39.2406C169.468 40.1627 170.085 41.1205 170.65 42.1097C171.761 44.028 172.721 46.0306 173.519 48.099C173.666 48.4898 173.674 48.9197 173.541 49.3155C173.407 49.7113 173.14 50.0486 172.786 50.27C172.432 50.4915 172.012 50.5835 171.598 50.5303C171.183 50.4771 170.8 50.282 170.514 49.9783L170.478 49.9353C169.043 48.4074 167.659 46.8007 166.267 45.3016C164.876 43.8025 163.463 42.2819 162.294 41.6148C160.665 40.6034 158.851 39.5921 157.05 38.6022L151.628 35.5897C150.787 35.1445 150.157 34.3836 149.877 33.4743C149.598 32.5649 149.69 31.5817 150.136 30.7409C150.581 29.9 151.342 29.2705 152.251 28.9907C153.16 28.7109 154.144 28.8038 154.984 29.2489L154.941 29.3135Z" fill="white"/>
<path d="M175.223 51.6763L174.613 50.1485C174.613 50.1485 174.276 48.1975 173.064 47.6523L169.477 48.219L169.599 48.5346C169.929 49.2519 169.678 50.5645 169.355 51.6117C169.032 52.659 169.578 52.7952 170.037 52.5872C170.295 52.4725 170.546 52.0062 170.818 51.5113C170.952 51.7606 171.103 52.0003 171.27 52.2286L172.153 53.4408C172.337 53.692 172.609 53.8641 172.915 53.9227C173.221 53.9812 173.538 53.9218 173.802 53.7564L174.778 53.1324C175.006 52.9761 175.175 52.7469 175.255 52.4823C175.336 52.2177 175.325 51.9334 175.223 51.6763Z" fill="#407BFF"/>
<path opacity="0.8" d="M175.223 51.6763L174.613 50.1485C174.613 50.1485 174.276 48.1975 173.064 47.6523L169.477 48.219L169.599 48.5346C169.929 49.2519 169.678 50.5645 169.355 51.6117C169.032 52.659 169.578 52.7952 170.037 52.5872C170.295 52.4725 170.546 52.0062 170.818 51.5113C170.952 51.7606 171.103 52.0003 171.27 52.2286L172.153 53.4408C172.337 53.692 172.609 53.8641 172.915 53.9227C173.221 53.9812 173.538 53.9218 173.802 53.7564L174.778 53.1324C175.006 52.9761 175.175 52.7469 175.255 52.4823C175.336 52.2177 175.325 51.9334 175.223 51.6763Z" fill="white"/>
<path opacity="0.3" d="M151.919 37.5625L151.044 37.6342L145.672 50.6026C145.966 50.6238 146.261 50.5996 146.547 50.5309C146.547 50.5309 153.548 47.92 155.664 46.9445C154.243 44.0108 151.919 37.5625 151.919 37.5625Z" fill="#407BFF"/>
<path d="M142.109 40.9649C142.762 44.3549 143.974 47.6127 145.696 50.6051C148.321 49.7013 152.696 47.9942 154.82 47.0187C153.393 43.9595 152.126 40.8279 151.025 37.6367C148.78 37.7873 143.852 39.6738 142.109 40.9649Z" fill="white"/>
<path opacity="0.3" d="M147.444 43.7673C147.339 44.1181 147.133 44.4299 146.85 44.6632C146.568 44.8966 146.223 45.041 145.859 45.0783C145.495 45.1155 145.128 45.0439 144.804 44.8725C144.481 44.7011 144.216 44.4375 144.042 44.1153C143.868 43.793 143.794 43.4264 143.829 43.062C143.863 42.6975 144.005 42.3515 144.237 42.0678C144.468 41.7841 144.778 41.5753 145.128 41.468C145.478 41.3607 145.852 41.3596 146.203 41.4649C146.673 41.6059 147.067 41.9276 147.3 42.3593C147.533 42.7911 147.584 43.2975 147.444 43.7673Z" fill="#407BFF"/>
<path opacity="0.6" d="M148.813 41.2991C148.785 41.4188 148.721 41.5273 148.631 41.6103C148.54 41.6933 148.426 41.7469 148.304 41.7641C148.183 41.7814 148.059 41.7614 147.948 41.7068C147.838 41.6522 147.747 41.5656 147.687 41.4584C147.627 41.3511 147.601 41.2282 147.612 41.1057C147.623 40.9833 147.671 40.867 147.749 40.7722C147.827 40.6774 147.932 40.6085 148.051 40.5745C148.169 40.5405 148.294 40.5431 148.411 40.5818C148.556 40.6283 148.679 40.7282 148.753 40.8613C148.828 40.9944 148.849 41.1509 148.813 41.2991Z" fill="#407BFF"/>
<path opacity="0.6" d="M150.41 40.6741C150.394 40.7573 150.36 40.8361 150.31 40.9054C150.261 40.9747 150.198 41.033 150.126 41.0765C150.053 41.1201 149.972 41.1479 149.887 41.1583C149.803 41.1687 149.718 41.1613 149.636 41.1367C149.555 41.1122 149.48 41.0709 149.415 41.0156C149.351 40.9602 149.299 40.8921 149.262 40.8154C149.226 40.7388 149.206 40.6554 149.203 40.5705C149.201 40.4856 149.216 40.4012 149.248 40.3226C149.271 40.2467 149.309 40.1761 149.359 40.1148C149.41 40.0535 149.472 40.0027 149.542 39.9654C149.612 39.9281 149.688 39.905 149.767 39.8973C149.846 39.8897 149.926 39.8977 150.002 39.9209C150.155 39.9674 150.284 40.0726 150.361 40.2136C150.437 40.3545 150.455 40.52 150.41 40.6741Z" fill="#407BFF"/>
<path opacity="0.5" d="M152.67 46.2625L146.035 48.8805L145.641 47.5751L152.268 44.957L152.67 46.2625Z" fill="#407BFF"/>
<path opacity="0.2" d="M205.07 145.948C205.055 150.125 204.651 154.291 203.865 158.393C203.018 162.08 201.703 164.777 199.92 166.484C199.089 167.309 198.103 167.96 197.018 168.399C195.933 168.839 194.771 169.058 193.601 169.045C189.914 169.045 187.1 167.034 185.158 163.012C184.817 162.29 184.527 161.545 184.29 160.782C180.19 164.303 176.372 168.14 172.871 172.258L169.062 176.748C171.112 178.826 173.477 180.566 176.07 181.905C180.537 184.215 186.399 185.372 193.658 185.377C194.935 185.377 196.168 185.341 197.366 185.269C201.758 178.771 205.392 171.792 208.197 164.468L218.849 136.695L205.07 145.948Z" fill="black"/>
<path d="M109.047 183.843L121.599 196.395L156.746 163.279C144.631 158.652 121.076 171.786 109.047 183.843Z" fill="#263238"/>
<path d="M152.818 227.598C148.808 223.581 140.266 215.045 140.266 215.045L173.382 179.898C177.98 191.985 164.847 215.562 152.818 227.598Z" fill="#263238"/>
<path d="M200.863 148.481L214.556 122.078L188.153 135.785C179.672 140.184 171.841 145.736 164.884 152.283L119.875 194.652L141.989 216.766L184.358 171.757C190.909 164.798 196.463 156.965 200.863 148.481Z" fill="#407BFF"/>
<path opacity="0.6" d="M200.863 148.481L214.556 122.078L188.153 135.785C179.672 140.184 171.841 145.736 164.884 152.283L119.875 194.652L141.989 216.766L184.358 171.757C190.909 164.798 196.463 156.965 200.863 148.481Z" fill="white"/>
<path d="M172.753 173.139C177.863 173.139 182.006 168.996 182.006 163.886C182.006 158.775 177.863 154.633 172.753 154.633C167.643 154.633 163.5 158.775 163.5 163.886C163.5 168.996 167.643 173.139 172.753 173.139Z" fill="white"/>
<path d="M172.751 169.838C176.035 169.838 178.697 167.176 178.697 163.892C178.697 160.608 176.035 157.945 172.751 157.945C169.467 157.945 166.805 160.608 166.805 163.892C166.805 167.176 169.467 169.838 172.751 169.838Z" fill="#407BFF"/>
<path opacity="0.3" d="M149.475 208.815L127.82 187.16L145.551 170.477L166.159 191.091L149.475 208.815Z" fill="#407BFF"/>
<path d="M113.947 203.652C97.7366 204.965 92.3642 215.344 90.528 229.137C89.5955 236.174 89.1795 243.296 83.2763 247.414C82.9211 247.655 82.6538 248.005 82.5142 248.411C82.3746 248.817 82.3703 249.257 82.502 249.666C82.6336 250.075 82.8941 250.43 83.2445 250.678C83.5949 250.926 84.0162 251.054 84.4454 251.043C106.208 250.362 116.357 239.71 117.634 235.263C117.299 237.588 116.7 239.867 115.848 242.055C115.691 242.442 115.661 242.868 115.76 243.272C115.86 243.677 116.085 244.04 116.403 244.309C116.721 244.579 117.116 244.741 117.531 244.773C117.947 244.805 118.362 244.705 118.717 244.487C124.821 240.664 132.482 233.62 132.991 222.194C128.501 215.832 113.947 203.652 113.947 203.652Z" fill="#407BFF"/>
<path opacity="0.2" d="M113.947 203.652C97.7366 204.965 92.3642 215.344 90.528 229.137C89.5955 236.174 89.1795 243.296 83.2763 247.414C82.9211 247.655 82.6538 248.005 82.5142 248.411C82.3746 248.817 82.3703 249.257 82.502 249.666C82.6336 250.075 82.8941 250.43 83.2445 250.678C83.5949 250.926 84.0162 251.054 84.4454 251.043C106.208 250.362 116.357 239.71 117.634 235.263C117.299 237.588 116.7 239.867 115.848 242.055C115.691 242.442 115.661 242.868 115.76 243.272C115.86 243.677 116.085 244.04 116.403 244.309C116.721 244.579 117.116 244.741 117.531 244.773C117.947 244.805 118.362 244.705 118.717 244.487C124.821 240.664 132.482 233.62 132.991 222.194C128.501 215.832 113.947 203.652 113.947 203.652Z" fill="white"/>
<path d="M135.512 227.093L109.547 201.128L123.376 198.137L138.503 213.264L135.512 227.093Z" fill="#407BFF"/>
</svg>
