<svg width="52" height="52" viewBox="0 0 52 52" fill="none" xmlns="http://www.w3.org/2000/svg">
<path d="M15.6878 20.9345L11.2974 25.3249C9.49686 27.1254 8.48535 29.5674 8.48535 32.1137C8.48535 34.66 9.49686 37.102 11.2974 38.9025C13.0979 40.703 15.5399 41.7145 18.0862 41.7145C20.6325 41.7145 23.0745 40.703 24.875 38.9025L30.7246 33.0497C31.8103 31.9638 32.6197 30.6333 33.0849 29.1698C33.55 27.7064 33.6573 26.1527 33.3977 24.6393C33.1382 23.1258 32.5193 21.6966 31.5931 20.4718C30.667 19.247 29.4605 18.2622 28.075 17.6001L26.1998 19.4753C26.0093 19.666 25.8438 19.8799 25.707 20.1121C26.7775 20.4198 27.7491 21.0016 28.5258 21.8C29.3026 22.5983 29.8575 23.5855 30.1358 24.664C30.414 25.7426 30.406 26.875 30.1125 27.9495C29.819 29.024 29.2501 30.0032 28.4622 30.7905L22.6158 36.6401C21.4149 37.841 19.7861 38.5157 18.0878 38.5157C16.3894 38.5157 14.7607 37.841 13.5598 36.6401C12.3589 35.4392 11.6842 33.8104 11.6842 32.1121C11.6842 30.4138 12.3589 28.785 13.5598 27.5841L16.0974 25.0497C15.7383 23.7082 15.6 22.3204 15.6878 20.9345Z" fill="#003366"/>
<path d="M21.6756 14.9504C20.5898 16.0363 19.7804 17.3668 19.3153 18.8303C18.8501 20.2937 18.7428 21.8474 19.0024 23.3609C19.262 24.8744 19.8808 26.3035 20.807 27.5283C21.7331 28.7532 22.9396 29.738 24.3252 30.4L26.8052 27.9168C25.7202 27.6258 24.7309 27.0544 23.9368 26.2599C23.1426 25.4654 22.5716 24.4759 22.281 23.3908C21.9905 22.3057 21.9906 21.1633 22.2815 20.0783C22.5723 18.9932 23.1436 18.0039 23.938 17.2096L29.7844 11.36C30.9853 10.1591 32.614 9.48447 34.3123 9.48447C36.0107 9.48447 37.6394 10.1591 38.8403 11.36C40.0413 12.5609 40.7159 14.1897 40.7159 15.888C40.7159 17.5864 40.0413 19.2151 38.8403 20.416L36.3027 22.9504C36.6611 24.2944 36.7987 25.6864 36.7123 27.0688L41.1027 22.6784C42.9032 20.8779 43.9148 18.4359 43.9148 15.8896C43.9148 13.3433 42.9032 10.9013 41.1027 9.10083C39.3022 7.30033 36.8602 6.28882 34.3139 6.28882C31.7677 6.28882 29.3257 7.30033 27.5251 9.10083L21.6756 14.9504Z" fill="#003366"/>
</svg>
