<svg width="100" height="75" viewBox="0 0 100 75" fill="none" xmlns="http://www.w3.org/2000/svg">
<g clip-path="url(#clip0_620_1004)">
<rect x="1" y="6.25" width="93.25" height="67.75" rx="4.6875" fill="white"/>
<path d="M96.1562 40.8205C96.1562 39.3621 94.3354 38.6988 93.3974 39.8154L89.7232 44.1892C87.3904 46.9662 83.1914 47.1811 80.5874 44.6566L78.258 42.3985C75.7354 39.9531 71.6935 40.0667 69.3123 42.6499L67.9695 44.1067C65.4163 46.8764 61.0114 46.7749 58.5885 43.8906L57.1682 42.1999C54.6785 39.2361 50.1209 39.225 47.6167 42.1766L46.082 43.9856C43.8661 46.5974 39.7351 46.2407 37.9998 43.2876C36.1527 40.1443 31.6269 40.0435 29.5685 43.0527C27.549 46.005 23.1245 45.9722 21.194 42.9609C19.2583 39.9414 14.8458 39.8883 12.8634 42.8774L12.7466 43.0535C10.8012 45.9869 6.47211 45.921 4.61687 42.9297L2.04376 39.844C1.10799 38.7219 -0.71875 39.3836 -0.71875 40.8447V74.0938H96.1562V40.8205Z" fill="#003366"/>
<path d="M88.7295 10.4847L88.8359 9.8131L88.9422 10.4847C88.9422 10.4847 88.9422 10.4847 88.9422 10.4847C88.9872 10.7688 89.211 10.9912 89.4954 11.0345L90.1049 11.1272L89.4954 11.2199C89.4954 11.2199 89.4954 11.2199 89.4954 11.2199C89.2109 11.2631 88.9872 11.4855 88.9422 11.7697L88.8359 12.4412L88.7295 11.7697C88.7295 11.7697 88.7295 11.7697 88.7295 11.7697C88.6845 11.4855 88.4608 11.2631 88.1763 11.2199L87.5669 11.1272L88.1763 11.0345C88.1763 11.0345 88.1763 11.0345 88.1763 11.0345C88.4608 10.9912 88.6845 10.7688 88.7295 10.4847Z" stroke="#003366" stroke-width="1.13377"/>
<path d="M50.1828 29.3603L49.6281 29.7077L49.7063 29.8325L50.2609 29.4851L50.1828 29.3603ZM49.5334 29.1492L49.4135 29.0637L49.2237 29.3304L49.3436 29.4158L49.5334 29.1492ZM50.1671 30.1618L49.8444 30.2161L49.8688 30.3613L50.1915 30.307L50.1671 30.1618ZM48.9972 28.4692L48.8537 28.4362L48.7071 29.0742L48.8506 29.1072L48.9972 28.4692ZM50.5443 30.9413L49.9065 30.7946L49.8735 30.9381L50.5113 31.0849L50.5443 30.9413ZM49.3969 29.9394C49.3062 29.7945 49.179 29.6761 49.028 29.596C48.7426 29.4444 48.4025 29.4454 48.1193 29.5943L49.1491 31.24C49.4067 31.0501 49.5561 30.7445 49.5446 30.4214C49.5385 30.2506 49.4876 30.0843 49.3969 29.9394ZM48.2319 28.8394L48.0867 28.8638L48.141 29.1866L48.2862 29.1622L48.2319 28.8394ZM49.8771 31.4684L49.6105 31.2785L49.5251 31.3985L49.7917 31.5884L49.8771 31.4684ZM47.5024 28.8861L47.3776 28.9643L49.3916 32.1827L49.5164 32.1045L47.5024 28.8861ZM47.9407 30.5426L47.4969 30.8205L47.358 30.5986L47.0812 31.3899L47.9136 31.4864L47.7747 31.2644L48.2184 30.9865L47.9407 30.5426Z" fill="#003366"/>
<ellipse cx="48.6958" cy="30.3349" rx="1.05904" ry="1.05953" fill="#003366"/>
<path d="M48.3057 33.88C48.7011 34.049 49.0324 34.3058 49.2627 34.6217C49.4931 34.9377 49.6135 35.3004 49.6106 35.6698C49.6078 36.0391 49.4817 36.4005 49.2465 36.714C49.0112 37.0274 48.676 37.2806 48.278 37.4454C47.88 37.6103 47.4347 37.6803 46.9917 37.6477C46.5487 37.6152 46.1251 37.4814 45.7681 37.2611C45.4112 37.0408 45.1347 36.7426 44.9693 36.3998C44.804 36.0569 44.7563 35.6827 44.8316 35.3187L45.9069 35.472C45.8658 35.671 45.8919 35.8756 45.9823 36.063C46.0726 36.2504 46.2238 36.4134 46.419 36.5338C46.6141 36.6543 46.8456 36.7274 47.0878 36.7452C47.33 36.763 47.5734 36.7247 47.791 36.6346C48.0086 36.5445 48.1919 36.4061 48.3205 36.2348C48.4491 36.0634 48.518 35.8658 48.5195 35.6639C48.5211 35.462 48.4553 35.2637 48.3294 35.091C48.2034 34.9183 48.0223 34.7779 47.8062 34.6855L48.3057 33.88Z" fill="#003366"/>
<ellipse cx="47.1543" cy="32.5265" rx="2.45504" ry="2.52842" fill="#003366"/>
<mask id="path-9-inside-1_620_1004" fill="white">
<path fill-rule="evenodd" clip-rule="evenodd" d="M45.9102 30.3468C45.8002 30.134 45.6453 29.9474 45.4561 29.8001C45.257 29.645 45.0252 29.5374 44.7783 29.4856C44.5314 29.4337 44.2759 29.4389 44.0312 29.5008L44.242 30.3343C44.3598 30.3045 44.4828 30.302 44.6017 30.327C44.7207 30.3519 44.8323 30.4037 44.9282 30.4784C45.0241 30.5531 45.1017 30.6487 45.1551 30.7579C45.1873 30.8239 45.2101 30.8937 45.2232 30.9655C45.0819 31.1509 44.9656 31.3569 44.8787 31.578C44.6882 32.0631 44.6484 32.5972 44.765 33.1065L45.9845 32.8104C45.9274 32.561 45.9469 32.2996 46.0402 32.062C46.1335 31.8245 46.2961 31.6227 46.5055 31.4843C46.7149 31.346 46.9608 31.278 47.2094 31.2897C47.4579 31.3013 47.6968 31.3922 47.8931 31.5496L48.6629 30.5314C48.262 30.2099 47.7741 30.0245 47.2665 30.0006C46.7907 29.9782 46.3196 30.0989 45.9102 30.3468Z"/>
</mask>
<path fill-rule="evenodd" clip-rule="evenodd" d="M45.9102 30.3468C45.8002 30.134 45.6453 29.9474 45.4561 29.8001C45.257 29.645 45.0252 29.5374 44.7783 29.4856C44.5314 29.4337 44.2759 29.4389 44.0312 29.5008L44.242 30.3343C44.3598 30.3045 44.4828 30.302 44.6017 30.327C44.7207 30.3519 44.8323 30.4037 44.9282 30.4784C45.0241 30.5531 45.1017 30.6487 45.1551 30.7579C45.1873 30.8239 45.2101 30.8937 45.2232 30.9655C45.0819 31.1509 44.9656 31.3569 44.8787 31.578C44.6882 32.0631 44.6484 32.5972 44.765 33.1065L45.9845 32.8104C45.9274 32.561 45.9469 32.2996 46.0402 32.062C46.1335 31.8245 46.2961 31.6227 46.5055 31.4843C46.7149 31.346 46.9608 31.278 47.2094 31.2897C47.4579 31.3013 47.6968 31.3922 47.8931 31.5496L48.6629 30.5314C48.262 30.2099 47.7741 30.0245 47.2665 30.0006C46.7907 29.9782 46.3196 30.0989 45.9102 30.3468Z" fill="#FAFAFA"/>
<path d="M45.9102 30.3468L45.7848 30.4116L45.8542 30.5457L45.9833 30.4675L45.9102 30.3468ZM45.4561 29.8001L45.3694 29.9114L45.3694 29.9114L45.4561 29.8001ZM44.7783 29.4856L44.8073 29.3475H44.8073L44.7783 29.4856ZM44.0312 29.5008L43.9966 29.364L43.8599 29.3986L43.8944 29.5354L44.0312 29.5008ZM44.242 30.3343L44.1051 30.3689L44.1397 30.5057L44.2766 30.4711L44.242 30.3343ZM44.6017 30.327L44.5727 30.4651L44.6017 30.327ZM44.9282 30.4784L45.0149 30.3671H45.0149L44.9282 30.4784ZM45.1551 30.7579L45.0283 30.8199L45.0283 30.8199L45.1551 30.7579ZM45.2232 30.9655L45.3355 31.051L45.3732 31.0014L45.362 30.9402L45.2232 30.9655ZM44.8787 31.578L45.0101 31.6296L44.8787 31.578ZM44.765 33.1065L44.6274 33.138L44.6593 33.2773L44.7983 33.2436L44.765 33.1065ZM45.9845 32.8104L46.0178 32.9476L46.1531 32.9147L46.1221 32.7789L45.9845 32.8104ZM46.0402 32.062L45.9089 32.0104L46.0402 32.062ZM46.5055 31.4843L46.5833 31.6021L46.5055 31.4843ZM47.2094 31.2897L47.216 31.1487L47.2094 31.2897ZM47.8931 31.5496L47.8048 31.6597L47.9181 31.7505L48.0056 31.6347L47.8931 31.5496ZM48.6629 30.5314L48.7754 30.6165L48.8581 30.5071L48.7511 30.4213L48.6629 30.5314ZM47.2665 30.0006L47.2599 30.1416L47.2665 30.0006ZM46.0356 30.282C45.9162 30.0511 45.7481 29.8486 45.5429 29.6887L45.3694 29.9114C45.5425 30.0462 45.6842 30.2169 45.7848 30.4116L46.0356 30.282ZM45.5429 29.6887C45.3268 29.5205 45.0752 29.4037 44.8073 29.3475L44.7493 29.6237C44.9752 29.6711 45.1873 29.7695 45.3694 29.9114L45.5429 29.6887ZM44.8073 29.3475C44.5393 29.2912 44.2621 29.2969 43.9966 29.364L44.0659 29.6376C44.2896 29.581 44.5234 29.5762 44.7493 29.6237L44.8073 29.3475ZM43.8944 29.5354L44.1051 30.3689L44.3788 30.2997L44.1681 29.4662L43.8944 29.5354ZM44.2766 30.4711C44.3735 30.4466 44.4748 30.4445 44.5727 30.4651L44.6308 30.1889C44.4908 30.1595 44.346 30.1624 44.2073 30.1975L44.2766 30.4711ZM44.5727 30.4651C44.6706 30.4856 44.7626 30.5283 44.8415 30.5898L45.0149 30.3671C44.9021 30.2792 44.7707 30.2182 44.6308 30.1889L44.5727 30.4651ZM44.8415 30.5898C44.9204 30.6512 44.9843 30.73 45.0283 30.8199L45.2818 30.696C45.2191 30.5675 45.1278 30.455 45.0149 30.3671L44.8415 30.5898ZM45.0283 30.8199C45.0548 30.8742 45.0736 30.9317 45.0844 30.9908L45.362 30.9402C45.3467 30.8557 45.3197 30.7736 45.2818 30.696L45.0283 30.8199ZM45.111 30.8799C44.9617 31.0758 44.839 31.2932 44.7474 31.5264L45.0101 31.6296C45.0922 31.4206 45.202 31.2261 45.3355 31.051L45.111 30.8799ZM44.7474 31.5264C44.5464 32.038 44.5045 32.601 44.6274 33.138L44.9025 33.075C44.7923 32.5933 44.8299 32.0882 45.0101 31.6296L44.7474 31.5264ZM44.7983 33.2436L46.0178 32.9476L45.9512 32.6733L44.7317 32.9693L44.7983 33.2436ZM46.1221 32.7789C46.0713 32.5572 46.0887 32.3246 46.1716 32.1136L45.9089 32.0104C45.8051 32.2745 45.7835 32.5649 45.8469 32.8419L46.1221 32.7789ZM46.1716 32.1136C46.2544 31.9027 46.3985 31.7241 46.5833 31.6021L46.4277 31.3666C46.1936 31.5212 46.0126 31.7464 45.9089 32.0104L46.1716 32.1136ZM46.5833 31.6021C46.768 31.4801 46.9844 31.4204 47.2027 31.4306L47.216 31.1487C46.9373 31.1356 46.6619 31.2119 46.4277 31.3666L46.5833 31.6021ZM47.2027 31.4306C47.4211 31.4409 47.6315 31.5207 47.8048 31.6597L47.9814 31.4395C47.7621 31.2636 47.4947 31.1618 47.216 31.1487L47.2027 31.4306ZM48.0056 31.6347L48.7754 30.6165L48.5503 30.4463L47.7805 31.4645L48.0056 31.6347ZM48.7511 30.4213C48.3273 30.0814 47.8109 29.8849 47.2731 29.8596L47.2599 30.1416C47.7373 30.164 48.1967 30.3385 48.5746 30.6415L48.7511 30.4213ZM47.2731 29.8596C46.7691 29.8359 46.2702 29.9638 45.8371 30.2261L45.9833 30.4675C46.369 30.234 46.8124 30.1205 47.2599 30.1416L47.2731 29.8596Z" fill="#003366" mask="url(#path-9-inside-1_620_1004)"/>
<path d="M48.3844 32.5264C48.3844 33.2491 47.8305 33.8284 47.1552 33.8284C46.4799 33.8284 45.926 33.2491 45.926 32.5264C45.926 31.8036 46.4799 31.2244 47.1552 31.2244C47.8305 31.2244 48.3844 31.8036 48.3844 32.5264Z" fill="#FAFAFA" stroke="#003366" stroke-width="0.14112"/>
</g>
<rect x="0.53125" y="5.78125" width="94.1875" height="68.6875" rx="5.15625" stroke="#003366" stroke-width="0.9375"/>
<defs>
<clipPath id="clip0_620_1004">
<rect x="1" y="6.25" width="93.25" height="67.75" rx="4.6875" fill="white"/>
</clipPath>
</defs>
</svg>
