<svg width="210" height="185" viewBox="0 0 210 185" fill="none" xmlns="http://www.w3.org/2000/svg">
<path d="M104.999 184.427C162.484 184.427 209.085 181.706 209.085 178.35C209.085 174.994 162.484 172.273 104.999 172.273C47.5146 172.273 0.914062 174.994 0.914062 178.35C0.914062 181.706 47.5146 184.427 104.999 184.427Z" fill="#F5F5F5"/>
<path d="M59.695 31.727C59.797 30.5406 64.9076 26.1655 70.2436 29.22C75.5797 32.2745 71.7199 41.508 77.523 42.4045C73.7652 46.1622 61.5256 50.7521 57.7624 46.4414C53.9993 42.1307 53.5161 30.0575 59.695 31.727Z" fill="#263238"/>
<path d="M81.1898 61.5C81.3294 63.4863 81.5387 65.5906 81.8179 67.5983C82.0677 69.5768 82.4697 71.5331 83.0204 73.4497C83.0848 73.6806 83.1653 73.9007 83.2405 74.1154L83.4445 74.6845C83.4864 74.808 83.5481 74.9241 83.627 75.028C83.7505 75.2105 84.4645 75.377 85.3019 75.2696C87.2151 74.9438 89.0717 74.3454 90.8151 73.4927L92.1786 75.4951C91.745 75.8764 91.2917 76.2348 90.8205 76.5687C90.3588 76.9015 89.8864 77.2236 89.3872 77.5135C88.3515 78.1476 87.2358 78.6405 86.0696 78.9791C85.3946 79.1678 84.6982 79.2688 83.9974 79.2797C83.1281 79.2862 82.2706 79.0778 81.5012 78.6731C80.6698 78.2173 79.9876 77.5313 79.5364 76.6975L79.3914 76.413L79.3002 76.209L79.1123 75.7903C78.9835 75.5165 78.86 75.2535 78.7634 74.9636C77.961 72.8243 77.373 70.6107 77.0079 68.3553C76.6333 66.1643 76.3984 63.9517 76.3047 61.7308L81.1898 61.5Z" fill="#FFC3BD"/>
<path d="M78.5623 56.164C82.916 59.4923 82.7388 65.7732 82.7388 65.7732L74.9387 67.6359C74.9387 67.6359 72.5498 61.3229 73.5215 59.0091C74.5468 56.5988 76.1144 54.2851 78.5623 56.164Z" fill="#407BFF"/>
<path d="M90.39 73.9584L93.2513 71.0918L94.7919 75.5743C94.7919 75.5743 92.3762 76.8788 90.0625 75.6441L90.39 73.9584Z" fill="#FFC3BD"/>
<path d="M97.2157 70.6523L97.7418 74.19L94.7946 75.5697L93.2539 71.0925L97.2157 70.6523Z" fill="#FFC3BD"/>
<path d="M53.3398 174.624L57.7203 175.048L62.278 164.629L57.8975 164.199L53.3398 174.624Z" fill="#FFC3BD"/>
<path d="M25.1406 159.218L28.426 162.304L35.5282 154.504L32.2375 151.412L25.1406 159.218Z" fill="#FFC3BD"/>
<path d="M29.9438 160.824L27.4744 156.374C27.4331 156.296 27.365 156.237 27.283 156.206C27.201 156.176 27.1106 156.176 27.0288 156.207L23.2227 157.657C23.1285 157.697 23.0438 157.756 22.9739 157.831C22.9041 157.905 22.8508 157.994 22.8174 158.091C22.784 158.187 22.7713 158.29 22.78 158.392C22.7888 158.494 22.8189 158.593 22.8684 158.682C23.7595 160.217 24.2641 160.915 25.3539 162.875C26.0196 164.077 27.324 166.842 28.2474 168.506C29.1707 170.17 30.8617 169.343 30.6255 168.57C29.5519 165.092 29.772 163.159 30.0887 161.624C30.1375 161.348 30.0861 161.065 29.9438 160.824Z" fill="#263238"/>
<path d="M58.3012 173.695H52.9329C52.836 173.696 52.742 173.728 52.6653 173.787C52.5886 173.846 52.5336 173.929 52.5088 174.023L51.3224 178.28C51.2938 178.38 51.2892 178.486 51.3088 178.588C51.3285 178.69 51.3719 178.787 51.4357 178.869C51.4994 178.952 51.5816 179.018 51.6757 179.063C51.7698 179.108 51.8731 179.13 51.9774 179.128C53.8724 179.128 54.7689 179.128 57.1363 179.128H64.3619C66.3267 179.128 66.7401 177.142 65.9241 176.981C62.2791 176.175 60.1801 175.064 59.0527 174.001C58.8495 173.809 58.5812 173.699 58.3012 173.695Z" fill="#263238"/>
<path opacity="0.2" d="M62.2698 164.635L59.9239 170.003H55.3555L57.8893 164.205L62.2698 164.635Z" fill="black"/>
<path opacity="0.2" d="M32.2354 151.418L35.5208 154.505L31.8596 158.526L28.5742 155.439L32.2354 151.418Z" fill="black"/>
<path d="M77.2496 55.5141C77.2496 55.5141 79.2359 56.3623 72.6168 82.5057L54.2788 80.9221C55.2344 73.4817 55.637 68.8811 53.3984 53.2541C56.0115 52.9452 58.6435 52.8268 61.2737 52.8998C64.0626 52.943 66.8449 53.1834 69.5999 53.6191C72.1799 54.1222 74.7331 54.7547 77.2496 55.5141Z" fill="#407BFF"/>
<path d="M64.5509 62.171C64.5353 62.1763 64.5183 62.1763 64.5026 62.171C60.5355 58.907 58.0607 53.8716 58.8552 52.6852C58.8653 52.6683 58.8816 52.6559 58.9007 52.6509C58.9198 52.6459 58.9401 52.6486 58.9572 52.6584C58.9745 52.6695 58.987 52.6868 58.992 52.7067C58.997 52.7267 58.9941 52.7478 58.984 52.7658C58.2647 53.877 60.7234 58.8212 64.5134 61.9777C65.4689 59.0949 67.0955 57.9408 67.1116 57.93C67.1286 57.9225 67.1477 57.921 67.1656 57.926C67.1835 57.9309 67.1992 57.9419 67.21 57.9571C67.2207 57.9723 67.2259 57.9907 67.2246 58.0092C67.2233 58.0278 67.2156 58.0453 67.2028 58.0589C67.2028 58.0589 65.5602 59.2238 64.6207 62.1334C64.6171 62.1447 64.6108 62.1549 64.6024 62.1633C64.594 62.1717 64.5837 62.178 64.5724 62.1817L64.5509 62.171Z" fill="white"/>
<path d="M70.8998 62.3484C70.8866 62.3456 70.8746 62.339 70.865 62.3295C70.8555 62.32 70.8489 62.3079 70.8461 62.2947C70.014 59.2993 68.3553 58.1075 68.3392 58.0968C68.327 58.0815 68.3203 58.0626 68.3203 58.0431C68.3203 58.0236 68.327 58.0046 68.3392 57.9894C68.3539 57.9762 68.373 57.9689 68.3928 57.9689C68.4126 57.9689 68.4318 57.9762 68.4465 57.9894C68.4465 57.9894 70.116 59.1865 70.975 62.1337C72.9666 59.6911 71.8339 55.0476 71.0609 53.8558C71.0508 53.8379 71.0479 53.8168 71.0529 53.7968C71.0579 53.7768 71.0704 53.7595 71.0877 53.7485C71.1016 53.7356 71.1198 53.7285 71.1387 53.7285C71.1576 53.7285 71.1758 53.7356 71.1897 53.7485C71.9896 54.9885 73.1652 59.8522 70.9964 62.3377C70.9833 62.349 70.967 62.3561 70.9498 62.358C70.9325 62.36 70.9151 62.3566 70.8998 62.3484Z" fill="white"/>
<path d="M62.9108 43.5957C63.2006 46.3174 63.3026 51.2723 61.2734 52.8989C63.2454 54.7278 65.447 56.2924 67.8227 57.5532C71.0115 55.3522 69.5996 53.6182 69.5996 53.6182C66.6739 52.6466 66.9155 50.4402 67.6456 48.4003L62.9108 43.5957Z" fill="#FFC3BD"/>
<path opacity="0.2" d="M64.8362 45.5566L67.6385 48.4018C67.469 48.8746 67.3414 49.3614 67.2573 49.8566C66.13 49.5936 64.498 48.4233 64.4766 47.2154C64.5005 46.646 64.6221 46.0849 64.8362 45.5566Z" fill="black"/>
<path d="M60.512 39.34C61.65 43.6937 62.0365 45.5565 64.7046 47.3924C68.72 50.1356 73.8306 47.7897 74.0078 43.1837C74.1742 39.0394 72.2899 32.619 67.6303 31.7117C66.6053 31.5078 65.5453 31.569 64.5506 31.8896C63.556 32.2101 62.6597 32.7794 61.9467 33.5435C61.2337 34.3075 60.7277 35.241 60.4766 36.2555C60.2255 37.2699 60.2377 38.3316 60.512 39.34Z" fill="#FFC3BD"/>
<path d="M61.7509 42.5977C63.2272 44.745 67.0762 31.9524 62.0891 32.355C57.102 32.7576 57.7032 38.1742 61.7509 42.5977Z" fill="#263238"/>
<path d="M62.4118 33.0851C65.2945 34.5507 73.6851 36.3061 72.5363 33.9709C71.9095 32.7994 70.9759 31.8204 69.8355 31.1386C68.6951 30.4569 67.3908 30.098 66.0622 30.1004C63.3244 30.0574 59.8672 31.7968 62.4118 33.0851Z" fill="#263238"/>
<path d="M60.1495 43.0272C60.3496 43.4098 60.6233 43.7491 60.955 44.0255C61.2866 44.3019 61.6697 44.5099 62.0821 44.6377C63.1879 44.9706 63.7623 43.9882 63.4725 42.936C63.2148 41.9858 62.329 40.6706 61.2124 40.7887C60.9682 40.821 60.736 40.9139 60.5368 41.0589C60.3377 41.2039 60.178 41.3965 60.0724 41.619C59.9667 41.8415 59.9184 42.087 59.9319 42.3329C59.9454 42.5789 60.0202 42.8176 60.1495 43.0272Z" fill="#FFC3BD"/>
<path d="M72.6186 82.5052C72.6186 82.5052 78.8244 109.953 74.6854 129.306C71.91 142.265 61.9036 168.446 61.9036 168.446L54.082 168.247C54.082 168.247 61.6567 140.772 63.2081 129.966C65.8922 111.483 59.1819 81.3457 59.1819 81.3457L72.6186 82.5052Z" fill="#263238"/>
<path opacity="0.2" d="M65.4589 88.0352L61.5508 94.2087C62.7294 101.524 63.4769 108.902 63.7893 116.304C69.2864 106.464 66.6828 93.2638 65.4589 88.0352Z" fill="black"/>
<path d="M63.0027 168.854L53.3398 168.607L53.9035 165.639L63.7596 166.106L63.0027 168.854Z" fill="#407BFF"/>
<path d="M68.6058 82.2156C68.6058 82.2156 64.9661 111.322 57.0747 127.212C50.7026 140.053 33.6959 158.321 33.6959 158.321L29.3477 153.844C29.3477 153.844 40.8357 133.982 45.5705 125.457C57.1875 104.553 47.7178 88.5985 54.2779 80.9004L68.6058 82.2156Z" fill="#263238"/>
<path d="M34.1372 158.922L28.5273 153.452L30.3901 150.918L36.3382 156.861L34.1372 158.922Z" fill="#407BFF"/>
<path d="M54.0962 79.8209L53.13 81.3884C53.0548 81.5119 53.1944 81.6515 53.4037 81.673L72.6382 83.3371C72.8046 83.3371 72.9496 83.2781 72.9657 83.1761L73.2717 81.5656C73.2717 81.4529 73.159 81.3455 72.9818 81.3294L54.4076 79.7189C54.3513 79.7081 54.2932 79.7119 54.2388 79.7297C54.1843 79.7475 54.1353 79.7789 54.0962 79.8209Z" fill="#407BFF"/>
<path opacity="0.3" d="M54.0962 79.8209L53.13 81.3884C53.0548 81.5119 53.1944 81.6515 53.4037 81.673L72.6382 83.3371C72.8046 83.3371 72.9496 83.2781 72.9657 83.1761L73.2717 81.5656C73.2717 81.4529 73.159 81.3455 72.9818 81.3294L54.4076 79.7189C54.3513 79.7081 54.2932 79.7119 54.2388 79.7297C54.1843 79.7475 54.1353 79.7789 54.0962 79.8209Z" fill="black"/>
<path d="M56.4099 82.1301L55.916 82.0871C55.814 82.0871 55.7443 82.0173 55.755 81.9583L56.1737 79.8432C56.1737 79.7841 56.2757 79.7412 56.3777 79.7465L56.8716 79.7895C56.9736 79.7895 57.0434 79.8593 57.0326 79.9183L56.6139 82.0334C56.6032 82.0764 56.5119 82.1301 56.4099 82.1301Z" fill="#263238"/>
<path d="M71.2274 83.3915L70.7282 83.3486C70.6315 83.3486 70.5564 83.2841 70.5725 83.2197L70.9859 81.11C70.9859 81.0456 71.0932 81.0026 71.1898 81.0134L71.6891 81.0563C71.7857 81.0563 71.8555 81.1207 71.8448 81.1852L71.426 83.2949C71.4153 83.3593 71.3241 83.4022 71.2274 83.3915Z" fill="#263238"/>
<path d="M63.8201 82.7528L63.3208 82.7099C63.2242 82.7099 63.1544 82.6455 63.1652 82.581L63.5839 80.4713C63.5839 80.4069 63.6859 80.364 63.7825 80.3747L64.2818 80.4176C64.3837 80.4176 64.4535 80.4821 64.4428 80.5411L64.0241 82.6562C64.0051 82.6922 63.975 82.7211 63.9382 82.7386C63.9014 82.756 63.86 82.761 63.8201 82.7528Z" fill="#263238"/>
<path d="M67.8785 39.1836C67.9483 39.5432 68.1952 39.7956 68.4153 39.7472C68.6354 39.6989 68.7858 39.3768 68.716 39.0172C68.6462 38.6575 68.3992 38.4052 68.1791 38.4481C67.959 38.4911 67.8034 38.8293 67.8785 39.1836Z" fill="#263238"/>
<path d="M71.9317 38.3884C72.0015 38.748 72.2485 39.0057 72.4686 38.9574C72.6887 38.9091 72.8336 38.5816 72.7638 38.2219C72.694 37.8623 72.4471 37.61 72.227 37.6583C72.0069 37.7066 71.8619 38.0341 71.9317 38.3884Z" fill="#263238"/>
<path d="M72.1328 37.6966L72.9434 37.2832C72.9434 37.2832 72.6321 38.0401 72.1328 37.6966Z" fill="#263238"/>
<path d="M70.5391 39.2852C71.0164 40.0416 71.5943 40.7296 72.2569 41.3305C72.0995 41.496 71.9081 41.6254 71.6959 41.7097C71.4836 41.7941 71.2556 41.8313 71.0276 41.819L70.5391 39.2852Z" fill="#ED847E"/>
<path d="M69.3805 43.5272C68.6246 43.5371 67.8933 43.2588 67.3352 42.7488C67.3182 42.7317 67.3086 42.7085 67.3086 42.6843C67.3086 42.6602 67.3182 42.637 67.3352 42.6199C67.3432 42.6116 67.3528 42.6051 67.3634 42.6006C67.374 42.5961 67.3854 42.5938 67.397 42.5938C67.4085 42.5938 67.4199 42.5961 67.4305 42.6006C67.4411 42.6051 67.4507 42.6116 67.4587 42.6199C67.8027 42.9213 68.2125 43.138 68.6553 43.2526C69.0981 43.3673 69.5615 43.3767 70.0086 43.2802C70.0321 43.2754 70.0565 43.2801 70.0766 43.2931C70.0967 43.3062 70.1108 43.3266 70.116 43.35C70.1183 43.3613 70.1183 43.373 70.116 43.3843C70.1138 43.3956 70.1092 43.4063 70.1027 43.4158C70.0962 43.4253 70.0879 43.4335 70.0781 43.4397C70.0684 43.4459 70.0576 43.4501 70.0462 43.452C69.8274 43.4992 69.6044 43.5244 69.3805 43.5272Z" fill="#263238"/>
<path d="M65.4434 37.7982C65.4135 37.806 65.3821 37.806 65.3521 37.7982C65.3318 37.7861 65.3141 37.7701 65.3001 37.751C65.286 37.7319 65.276 37.7102 65.2705 37.6872C65.265 37.6642 65.2641 37.6403 65.268 37.617C65.2719 37.5936 65.2804 37.5713 65.2931 37.5513C65.4577 37.2608 65.6902 37.0144 65.9706 36.833C66.251 36.6517 66.5711 36.5408 66.9036 36.5098C66.9268 36.5091 66.95 36.513 66.9718 36.5213C66.9935 36.5295 67.0135 36.542 67.0304 36.5579C67.0474 36.5739 67.061 36.593 67.0706 36.6142C67.0801 36.6355 67.0854 36.6584 67.0861 36.6816C67.0868 36.7049 67.0829 36.7281 67.0747 36.7498C67.0664 36.7716 67.054 36.7915 67.038 36.8085C67.0221 36.8254 67.0029 36.8391 66.9817 36.8486C66.9605 36.8582 66.9376 36.8635 66.9143 36.8641C66.6395 36.8938 66.3759 36.9887 66.1452 37.1409C65.9146 37.2931 65.7236 37.4982 65.5883 37.7392C65.5703 37.7595 65.5479 37.7753 65.5227 37.7856C65.4976 37.7958 65.4705 37.8001 65.4434 37.7982Z" fill="#263238"/>
<path d="M73.0612 36.3595C73.0312 36.367 72.9999 36.367 72.9699 36.3595C72.7341 36.2177 72.4677 36.1344 72.1932 36.1167C71.9186 36.099 71.6437 36.1472 71.3916 36.2575C71.3495 36.2786 71.3007 36.2825 71.2557 36.2685C71.2107 36.2545 71.1728 36.2236 71.1501 36.1823C71.1389 36.1616 71.132 36.1388 71.1297 36.1153C71.1275 36.0919 71.1299 36.0682 71.1369 36.0457C71.1439 36.0232 71.1553 36.0024 71.1705 35.9843C71.1856 35.9663 71.2043 35.9515 71.2252 35.9407C71.5306 35.8027 71.8647 35.7404 72.1993 35.7591C72.5339 35.7778 72.859 35.8769 73.1471 36.0481C73.1676 36.0593 73.1856 36.0745 73.2003 36.0927C73.2149 36.1109 73.2257 36.1319 73.2322 36.1544C73.2387 36.1768 73.2407 36.2003 73.2381 36.2236C73.2354 36.2468 73.2282 36.2692 73.2168 36.2897C73.1985 36.3131 73.1748 36.3317 73.1477 36.3439C73.1205 36.356 73.0908 36.3614 73.0612 36.3595Z" fill="#263238"/>
<path d="M56.0114 60.1197C55.2921 61.3115 54.5298 62.5354 53.8158 63.7594C53.1018 64.9833 52.3664 66.1966 51.6685 67.4259C50.9706 68.6552 50.3211 69.8846 49.7681 71.1085C49.6178 71.4145 49.4997 71.7151 49.3602 72.0158C49.2206 72.3164 49.1347 72.6009 49.022 72.8962C48.9707 73.0298 48.9329 73.1683 48.9092 73.3095C48.9092 73.3793 48.9092 73.3578 48.877 73.3471C48.8448 73.3364 48.9683 73.5511 49.4138 73.739C49.9319 73.945 50.4725 74.0891 51.0243 74.1684C52.3466 74.3593 53.6828 74.4366 55.0183 74.3993C57.8402 74.3228 60.6557 74.0898 63.4519 73.7014L63.9887 76.0581C61.1365 76.952 58.2098 77.588 55.2438 77.9584C53.6866 78.16 52.1137 78.2121 50.5465 78.1141C49.6569 78.0565 48.7783 77.8851 47.9322 77.6041C47.4155 77.4285 46.9244 77.1847 46.472 76.8794C45.8858 76.4934 45.403 75.9696 45.0661 75.3538C44.7292 74.738 44.5484 74.049 44.5395 73.3471C44.5327 72.7642 44.6123 72.1835 44.7757 71.6239C44.8938 71.232 45.0065 70.824 45.1353 70.4482C45.2642 70.0725 45.393 69.6967 45.538 69.3316C46.107 67.8822 46.7351 66.5187 47.4168 65.1873C48.0986 63.856 48.8019 62.5515 49.5319 61.2685C50.262 59.9855 51.0243 58.7347 51.8671 57.4785L56.0114 60.1197Z" fill="#FFC3BD"/>
<path d="M62.3583 74.2505L65.9389 72.3555L66.0731 76.3441C66.0731 76.3441 63.5715 77.246 62.0898 76.0864L62.3583 74.2505Z" fill="#FFC3BD"/>
<path d="M68.1185 72.64L67.5816 76.1723L66.0732 76.3441L65.9336 72.3555L68.1185 72.64Z" fill="#FFC3BD"/>
<path d="M53.3966 53.254C51.1473 53.6781 47.9961 60.12 47.9961 60.12L54.9748 66.1593C54.9748 66.1593 58.169 60.3293 57.9328 57.3983C57.7288 54.8913 56.2578 52.7493 53.3966 53.254Z" fill="#407BFF"/>
<path d="M30.8115 163.217C30.7515 163.216 30.692 163.207 30.6344 163.19C30.0975 163.007 29.7432 162.009 29.5607 161.435C29.5517 161.42 29.5469 161.403 29.5469 161.386C29.5469 161.369 29.5517 161.352 29.5607 161.338C29.5762 161.329 29.5938 161.324 29.6117 161.324C29.6296 161.324 29.6472 161.329 29.6627 161.338C29.8238 161.424 31.2732 162.191 31.3054 162.755C31.3123 162.817 31.3019 162.879 31.2753 162.935C31.2488 162.991 31.2071 163.038 31.1551 163.072C31.0577 163.154 30.938 163.204 30.8115 163.217ZM29.813 161.606C30.0653 162.406 30.3874 162.932 30.6934 163.034C30.7627 163.055 30.8362 163.058 30.9068 163.042C30.9773 163.026 31.0425 162.992 31.096 162.943C31.1235 162.927 31.1457 162.903 31.16 162.874C31.1742 162.846 31.18 162.814 31.1766 162.782C31.1497 162.417 30.3069 161.869 29.813 161.579V161.606Z" fill="#407BFF"/>
<path d="M31.0329 161.816C30.5437 161.814 30.0611 161.703 29.6211 161.489C29.6078 161.48 29.597 161.468 29.5895 161.454C29.582 161.44 29.5781 161.424 29.5781 161.408C29.5791 161.393 29.584 161.377 29.5925 161.364C29.6009 161.351 29.6126 161.34 29.6264 161.333C29.6748 161.306 30.8128 160.678 31.4248 160.898C31.5003 160.923 31.5693 160.964 31.6268 161.019C31.6844 161.074 31.7291 161.141 31.7576 161.215C31.7959 161.287 31.8088 161.369 31.7942 161.449C31.7795 161.529 31.7383 161.602 31.6771 161.655C31.4865 161.78 31.2596 161.836 31.0329 161.816ZM29.8626 161.408C30.3512 161.618 31.296 161.746 31.5644 161.521C31.6073 161.483 31.6503 161.419 31.5644 161.285C31.5447 161.234 31.5143 161.188 31.4755 161.15C31.4366 161.112 31.39 161.083 31.3389 161.065C30.947 160.92 30.1901 161.253 29.8465 161.408H29.8626Z" fill="#407BFF"/>
<path d="M60.6853 174.565C60.1901 174.555 59.6973 174.494 59.2144 174.383C59.1962 174.378 59.1798 174.368 59.1674 174.353C59.155 174.339 59.1471 174.321 59.1446 174.302C59.1437 174.284 59.1483 174.265 59.1579 174.249C59.1674 174.233 59.1815 174.22 59.1983 174.211C59.4184 174.109 61.3456 173.207 61.8825 173.54C61.9275 173.57 61.9633 173.612 61.9861 173.662C62.0088 173.711 62.0175 173.765 62.0113 173.819C62.0072 173.917 61.9809 174.013 61.9344 174.1C61.8879 174.186 61.8224 174.261 61.7429 174.319C61.4258 174.512 61.0552 174.598 60.6853 174.565ZM59.5204 174.259C60.1002 174.372 61.1738 174.512 61.614 174.179C61.6734 174.137 61.7219 174.082 61.7556 174.017C61.7892 173.953 61.8069 173.881 61.8073 173.809C61.8073 173.733 61.8073 173.707 61.759 173.69C61.4852 173.503 60.331 173.927 59.5204 174.259Z" fill="#407BFF"/>
<path d="M59.2405 174.382C59.2215 174.39 59.2004 174.39 59.1814 174.382C59.1727 174.369 59.168 174.354 59.168 174.339C59.168 174.324 59.1727 174.309 59.1814 174.296C59.1814 174.216 59.6431 172.288 60.7007 172.412C60.9637 172.444 61.0389 172.573 61.0496 172.68C61.1194 173.169 59.8901 174.157 59.2995 174.398L59.2405 174.382ZM60.5772 172.562C59.9008 172.562 59.5035 173.684 59.3747 174.13C60.0135 173.797 60.8886 172.997 60.8456 172.68C60.8456 172.68 60.8456 172.589 60.6524 172.568L60.5772 172.562Z" fill="#407BFF"/>
<path d="M68.0742 38.4968L68.8902 38.0781C68.8902 38.0781 68.5788 38.8404 68.0742 38.4968Z" fill="#263238"/>
<path d="M162.238 55.9182C162.211 56.2887 162.179 56.5517 162.142 56.8577C162.104 57.1637 162.061 57.4375 162.013 57.722C161.916 58.2964 161.803 58.8601 161.68 59.4237C161.429 60.5469 161.119 61.6561 160.751 62.7467C160.002 64.9509 158.985 67.0549 157.724 69.0114L157.23 69.7415L157.106 69.9187L157.031 70.026L156.918 70.1763C156.755 70.37 156.575 70.5496 156.381 70.7132C155.75 71.2805 154.997 71.6956 154.18 71.9264C152.927 72.2635 151.624 72.378 150.331 72.2646C148.048 72.0761 145.803 71.5627 143.664 70.74L144.244 68.4263C146.263 68.6325 148.295 68.6738 150.321 68.5498C151.177 68.5011 152.021 68.32 152.822 68.0129C153.03 67.9271 153.214 67.7927 153.359 67.6211C153.3 67.7016 153.66 67.0842 153.896 66.6977C154.835 64.9641 155.592 63.1382 156.156 61.2489C156.446 60.2934 156.693 59.3271 156.908 58.3608C157.015 57.8723 157.112 57.3838 157.197 56.9006L157.31 56.1759L157.407 55.5156L162.238 55.9182Z" fill="#B55B52"/>
<path d="M163.356 52.7681C163.474 55.7743 162.309 61.1963 162.309 61.1963L154.868 60.2944C154.868 60.2944 154.595 52.3601 156.039 50.4436C158.46 47.2388 163.248 49.9229 163.356 52.7681Z" fill="#263238"/>
<path d="M145.256 68.7438L140.801 67.1602L141.729 70.4992C141.729 70.4992 143.812 71.7178 145.004 70.3328L145.256 68.7438Z" fill="#B55B52"/>
<path d="M139.272 68.0137L138.66 70.3704L141.736 70.4992L140.807 67.1602L139.272 68.0137Z" fill="#B55B52"/>
<path d="M118.346 83.6142C121.447 83.6612 124.526 83.091 127.405 81.9368C130.283 80.7826 132.903 79.0674 135.113 76.8911C137.323 74.7148 139.077 72.1208 140.275 69.26C141.473 66.3992 142.089 63.3288 142.089 60.2274C142.089 57.126 141.473 54.0556 140.275 51.1948C139.077 48.3341 137.323 45.74 135.113 43.5637C132.903 41.3874 130.283 39.6722 127.405 38.518C124.526 37.3638 121.447 36.7936 118.346 36.8406H115.312V83.6142H118.346Z" fill="#407BFF"/>
<path d="M115.315 83.613C128.233 83.613 138.705 73.1412 138.705 60.2235C138.705 47.3058 128.233 36.834 115.315 36.834C102.398 36.834 91.9258 47.3058 91.9258 60.2235C91.9258 73.1412 102.398 83.613 115.315 83.613Z" fill="#407BFF"/>
<path opacity="0.4" d="M115.315 83.613C128.233 83.613 138.705 73.1412 138.705 60.2235C138.705 47.3058 128.233 36.834 115.315 36.834C102.398 36.834 91.9258 47.3058 91.9258 60.2235C91.9258 73.1412 102.398 83.613 115.315 83.613Z" fill="black"/>
<path opacity="0.2" d="M129.979 74.8903C138.078 66.7917 138.078 53.6614 129.979 45.5629C121.881 37.4643 108.751 37.4643 100.652 45.5629C92.5534 53.6614 92.5534 66.7917 100.652 74.8903C108.751 82.9888 121.881 82.9888 129.979 74.8903Z" fill="#407BFF"/>
<path d="M125.978 61.5604C125.007 60.471 123.699 59.7378 122.263 59.4775C123.226 59.183 124.095 58.6427 124.786 57.91C125.648 56.9253 126.109 55.6536 126.08 54.3454C126.095 53.5637 125.941 52.788 125.628 52.0716C125.314 51.3553 124.85 50.7153 124.265 50.1958C123.059 49.0756 121.327 48.5155 119.069 48.5155H117.679V44.5859H115.053V48.5155H111.8V44.5859H109.175V48.5155H103.469V53.2611H105.536V67.1917H103.485V71.9319H109.191V75.8614H111.816V71.9319H115.07V75.8614H117.695V71.9319H118.027C119.106 71.8802 120.181 71.7727 121.248 71.6098C122.206 71.5358 123.14 71.2808 124.002 70.8582C124.966 70.3122 125.766 69.5191 126.321 68.5606C126.891 67.5644 127.182 66.4333 127.164 65.286C127.219 63.9433 126.799 62.6242 125.978 61.5604ZM112.82 53.2611H116.014C117.115 53.2611 117.883 53.4543 118.323 53.8355C118.548 54.0364 118.725 54.2856 118.84 54.5645C118.955 54.8434 119.006 55.1447 118.988 55.4459C119.007 55.7584 118.957 56.0712 118.842 56.3624C118.727 56.6536 118.55 56.9161 118.323 57.1316C117.883 57.5181 117.099 57.7113 115.971 57.7113H112.82V53.2611ZM119.149 66.2415C118.613 66.6817 117.759 66.9018 116.514 66.9018H112.82V62.1616H116.498C117.764 62.1616 118.65 62.371 119.155 62.7897C119.402 62.9905 119.599 63.2456 119.731 63.5352C119.864 63.8248 119.927 64.1411 119.917 64.4592C119.931 64.7949 119.869 65.1294 119.736 65.4379C119.604 65.7464 119.403 66.0211 119.149 66.2415Z" fill="white"/>
<path d="M141.063 37.3494C141.063 37.6983 140.864 37.9828 140.639 37.9882C140.413 37.9936 140.225 37.709 140.231 37.3655C140.236 37.0219 140.424 36.732 140.655 36.7266C140.886 36.7213 141.068 37.0058 141.063 37.3494Z" fill="#263238"/>
<path d="M140.755 36.7489L139.891 36.502C139.891 36.502 140.336 37.1623 140.755 36.7489Z" fill="#263238"/>
<path d="M140.76 37.6934C140.435 38.494 140.003 39.247 139.477 39.9319C139.656 40.0553 139.861 40.1384 140.076 40.1755C140.291 40.2125 140.511 40.2027 140.722 40.1467L140.76 37.6934Z" fill="#A02724"/>
<path d="M140.622 35.0406C140.654 35.0486 140.687 35.0486 140.719 35.0406C140.966 34.9518 141.23 34.9215 141.491 34.9522C141.752 34.983 142.002 35.0739 142.222 35.2178C142.265 35.2505 142.32 35.2647 142.374 35.2571C142.401 35.2534 142.426 35.2444 142.449 35.2308C142.473 35.2171 142.493 35.199 142.509 35.1775C142.525 35.156 142.537 35.1315 142.544 35.1054C142.551 35.0794 142.552 35.0522 142.548 35.0256C142.545 34.9989 142.536 34.9732 142.522 34.95C142.508 34.9268 142.49 34.9065 142.469 34.8903C142.195 34.7099 141.883 34.5948 141.557 34.5539C141.231 34.5129 140.9 34.5472 140.59 34.6541C140.564 34.6619 140.54 34.675 140.52 34.6924C140.499 34.7097 140.482 34.7311 140.47 34.7553C140.458 34.7794 140.451 34.8057 140.45 34.8326C140.448 34.8595 140.452 34.8864 140.461 34.9118C140.474 34.9456 140.496 34.9754 140.524 34.998C140.552 35.0207 140.586 35.0354 140.622 35.0406Z" fill="#263238"/>
<path d="M151.349 41.0605C151.118 43.6749 151.993 47.9534 153.969 49.4082C153.969 49.4082 152.482 52.1567 147.72 52.7956C142.481 53.4988 144.94 50.5516 144.94 50.5516C147.726 49.478 147.43 47.4005 146.722 45.4894L151.349 41.0605Z" fill="#B55B52"/>
<path d="M141.835 55.8598C141.266 58.581 140.549 61.2691 139.688 63.9122C138.846 66.5744 137.838 69.1813 136.671 71.7177L136.451 72.2008C136.359 72.3887 136.241 72.6088 136.134 72.8075C135.923 73.1791 135.69 73.5376 135.436 73.8811C134.97 74.4932 134.462 75.0726 133.917 75.6151C132.895 76.6244 131.808 77.5659 130.664 78.4334C128.446 80.1138 126.1 81.6179 123.647 82.932L122.332 80.935C124.367 79.2386 126.401 77.4671 128.28 75.6526C129.207 74.7722 130.085 73.8422 130.911 72.8665C131.288 72.4171 131.636 71.9437 131.952 71.4493C132.087 71.2342 132.211 71.0119 132.322 70.7836L132.451 70.4776L132.628 70.0213C133.101 68.8081 133.519 67.5627 133.944 66.3172C134.368 65.0718 134.738 63.8049 135.108 62.5594C135.833 60.0256 136.515 57.422 137.111 54.9043L141.835 55.8598Z" fill="#B55B52"/>
<path d="M123.889 82.7438L121.419 84.3543L120.195 82.2553C120.195 82.2553 122.622 79.3565 124.087 81.4179L123.889 82.7438Z" fill="#B55B52"/>
<path d="M123.249 80.5805L121.853 80.3711L120.285 80.7039L119.883 81.1602L120.903 81.3105L121.171 81.7132L121.515 81.9333L123.249 80.5805Z" fill="#B55B52"/>
<path d="M118.964 84.5632L117.605 83.4681L120.193 82.2656L121.417 84.3646L118.964 84.5632Z" fill="#B55B52"/>
<path d="M159.089 173.613L154.757 173.936L153.469 163.988L157.801 163.666L159.089 173.613Z" fill="#B55B52"/>
<path d="M186.826 160.976L183.074 163.258L176.836 155.463L180.588 153.182L186.826 160.976Z" fill="#B55B52"/>
<path d="M181.951 162.42L185.51 158.995C185.569 158.934 185.648 158.897 185.732 158.891C185.817 158.886 185.9 158.911 185.967 158.962L189 161.303C189.073 161.368 189.132 161.448 189.172 161.537C189.212 161.626 189.233 161.723 189.233 161.821C189.233 161.919 189.212 162.016 189.172 162.105C189.132 162.194 189.073 162.274 189 162.339C187.738 163.515 187.073 164.019 185.505 165.528C184.544 166.456 183.229 167.906 181.898 169.189C180.566 170.472 179.272 169.259 179.713 168.609C181.699 165.7 181.398 164.61 181.581 163.123C181.618 162.852 181.749 162.603 181.951 162.42Z" fill="#263238"/>
<path d="M154.487 173.316H159.357C159.44 173.315 159.522 173.345 159.586 173.399C159.65 173.453 159.693 173.529 159.705 173.612L160.36 177.461C160.374 177.557 160.367 177.655 160.34 177.748C160.312 177.841 160.265 177.927 160.202 178.001C160.138 178.074 160.059 178.133 159.971 178.173C159.882 178.213 159.786 178.234 159.689 178.234C157.988 178.234 157.166 178.105 155.024 178.105C153.709 178.105 150.987 178.239 149.168 178.239C147.348 178.239 147.208 176.441 147.96 176.28C151.336 175.55 152.652 174.54 153.768 173.596C153.967 173.42 154.222 173.321 154.487 173.316Z" fill="#263238"/>
<path opacity="0.2" d="M153.473 163.987L154.187 169.516L158.465 168.797L157.805 163.67L153.473 163.987Z" fill="black"/>
<path opacity="0.2" d="M180.588 153.182L176.836 155.469L179.418 158.689L183.251 156.505L180.588 153.182Z" fill="black"/>
<path d="M161.273 75.506L143.729 77.8627C136.933 53.2546 138.941 52.5889 138.941 52.5889C140.254 51.9696 141.604 51.4317 142.983 50.9784L143.225 50.9033C144.358 50.5651 144.594 50.5168 146.102 50.1732C148.695 49.7169 151.1 49.3626 154.069 49.0995L154.606 49.0566C155.142 49.019 155.679 48.9922 156.216 48.9761C156.565 48.9761 156.909 48.9761 157.236 48.9492H158.949C159.284 48.957 159.615 49.0343 159.919 49.1763C160.223 49.3183 160.494 49.5218 160.716 49.7741C160.937 50.0264 161.104 50.3219 161.206 50.6419C161.307 50.9619 161.341 51.2995 161.305 51.6334C159.813 64.6299 160.291 68.8816 161.273 75.506Z" fill="#263238"/>
<path opacity="0.2" d="M142.036 60.1221C142.386 62.6668 142.06 65.2586 141.092 67.6376C139.921 62.8384 139.293 59.5852 138.977 57.3306C140.297 57.2715 141.693 57.7869 142.036 60.1221Z" fill="black"/>
<path d="M139.092 52.5201C136.091 54.238 134.003 58.334 133.375 60.7121L139.769 66.5635C139.769 66.5635 143.902 58.6077 142.823 56.4551C141.696 54.2165 140.23 51.8706 139.092 52.5201Z" fill="#263238"/>
<path d="M152.836 36.2344C152.508 40.529 152.465 42.322 150.254 44.5444C146.931 47.8889 141.702 46.6917 140.73 42.4562C139.861 38.634 140.532 32.2565 144.783 30.5279C145.693 30.1216 146.692 29.9593 147.684 30.0569C148.675 30.1546 149.624 30.5088 150.437 31.0848C151.25 31.6608 151.898 32.4386 152.319 33.3416C152.74 34.2446 152.918 35.2416 152.836 36.2344Z" fill="#B55B52"/>
<path d="M143.982 37.9564C144.423 36.4372 141.008 34.7086 140.643 32.3788C140.171 29.3565 142.512 26.9139 144.696 28.3365C145.582 26.3127 151.595 25.4591 154.896 27.9661C158.611 30.7791 154.059 33.7531 157.763 36.2439C160.715 38.2302 161.118 39.4649 159.293 41.843C157.908 43.6521 161.488 43.2656 160.581 46.3255C159.674 49.3854 141.153 50.5074 143.612 43.6414C145.797 37.5753 143.113 41.0593 143.982 37.9564Z" fill="#263238"/>
<path d="M145.023 37.6191C144.996 38.4155 144.725 39.1842 144.244 39.8201C143.579 40.722 142.8 40.4804 142.634 39.6483C142.462 38.9021 142.607 37.5332 143.45 36.9105C144.293 36.2878 145.018 36.728 145.023 37.6191Z" fill="#B55B52"/>
<path d="M159.104 42.005C159.088 42.0047 159.072 41.9992 159.059 41.9891C159.046 41.9791 159.037 41.9651 159.033 41.9494C159.029 41.9336 159.03 41.9168 159.036 41.9017C159.042 41.8865 159.053 41.8738 159.067 41.8654C160.232 41.1944 160.854 40.2549 160.827 39.2779C160.795 38.0217 159.754 36.7548 158.052 35.8905C156.023 34.8598 156.179 33.4641 156.334 32.1327C156.49 30.8014 156.646 29.3734 154.665 28.2246C154.647 28.2136 154.635 28.1966 154.629 28.1769C154.623 28.1572 154.624 28.1361 154.632 28.1173C154.644 28.0999 154.661 28.0875 154.681 28.0825C154.701 28.0775 154.722 28.0803 154.74 28.0904C156.812 29.2929 156.646 30.7423 156.484 32.1488C156.323 33.5553 156.184 34.7954 158.095 35.7778C159.85 36.6635 160.919 37.9788 160.956 39.294C160.956 40.3676 160.334 41.3232 159.12 42.0157C159.114 42.013 159.109 42.0093 159.104 42.005Z" fill="#263238"/>
<path d="M148.359 77.2403C148.359 77.2403 155.172 106.025 158.355 122.565C161.71 140.011 177.826 158.188 177.826 158.188L183.296 155.139C183.296 155.139 173.155 138.551 169.875 122.259C163.197 89.1901 167.728 82.5334 161.286 75.5117L148.359 77.2403Z" fill="#407BFF"/>
<path d="M177.288 158.7L184.116 154.893L183.118 152.875L175.457 156.402L177.288 158.7Z" fill="#263238"/>
<path opacity="0.2" d="M151.982 83.4951C157.28 88.0957 156.706 104.431 156.153 111.764C153.93 101.307 151.257 89.6687 149.711 82.9315C150.248 82.5128 151.01 82.6684 151.982 83.4951Z" fill="black"/>
<path d="M180.457 164.406C180.508 164.415 180.561 164.415 180.613 164.406C181.149 164.406 181.788 163.569 182.11 163.075C182.121 163.058 182.126 163.039 182.126 163.019C182.126 162.999 182.121 162.979 182.11 162.962C182.099 162.944 182.083 162.931 182.064 162.923C182.044 162.915 182.023 162.914 182.003 162.919C181.831 162.951 180.28 163.279 180.076 163.794C180.053 163.851 180.046 163.912 180.054 163.973C180.063 164.033 180.087 164.09 180.124 164.138C180.201 164.263 180.318 164.358 180.457 164.406ZM181.794 163.188C181.343 163.832 180.908 164.213 180.607 164.218C180.543 164.219 180.48 164.202 180.424 164.17C180.369 164.138 180.323 164.091 180.29 164.036C180.273 164.015 180.262 163.991 180.257 163.964C180.253 163.938 180.255 163.911 180.264 163.886C180.376 163.612 181.176 163.338 181.794 163.193V163.188Z" fill="#407BFF"/>
<path d="M143.994 77.8746C143.994 77.8746 140.929 112.054 142.577 125.078C144.316 138.638 153.168 168.137 153.168 168.137L159.411 167.331C159.411 167.331 154.338 138.096 153.437 124.675C152.454 110.036 156.819 76.1406 156.819 76.1406L143.994 77.8746Z" fill="#407BFF"/>
<path d="M151.856 168.508L160.762 167.359L160.622 164.729L150.965 165.663L151.856 168.508Z" fill="#263238"/>
<path d="M180.692 163.065C181.136 163.185 181.601 163.209 182.056 163.134C182.074 163.129 182.09 163.12 182.103 163.107C182.116 163.094 182.126 163.077 182.131 163.059C182.135 163.042 182.134 163.024 182.129 163.008C182.125 162.991 182.116 162.975 182.104 162.963C182.066 162.925 181.218 162.05 180.59 162.077C180.509 162.078 180.429 162.097 180.357 162.133C180.284 162.17 180.221 162.222 180.171 162.286C180.112 162.343 180.075 162.418 180.065 162.499C180.055 162.581 180.074 162.663 180.118 162.732C180.266 162.905 180.468 163.022 180.692 163.065ZM181.814 162.968C181.277 163.027 180.451 162.871 180.29 162.624C180.263 162.581 180.241 162.522 180.327 162.415C180.36 162.374 180.401 162.34 180.449 162.317C180.496 162.294 180.548 162.281 180.601 162.281C181.067 162.378 181.491 162.618 181.814 162.968Z" fill="#407BFF"/>
<path d="M152.876 174.075C153.333 174.066 153.788 174.014 154.235 173.919C154.255 173.915 154.274 173.904 154.289 173.889C154.303 173.873 154.312 173.854 154.315 173.833C154.319 173.812 154.315 173.79 154.306 173.771C154.296 173.751 154.281 173.736 154.261 173.726C154.063 173.624 152.307 172.738 151.787 173.039C151.738 173.065 151.697 173.103 151.668 173.151C151.638 173.198 151.622 173.252 151.62 173.307C151.611 173.4 151.624 173.494 151.658 173.581C151.693 173.668 151.748 173.745 151.819 173.806C152.131 174.012 152.504 174.106 152.876 174.075ZM153.891 173.774C152.935 173.93 152.222 173.892 151.953 173.656C151.908 173.614 151.873 173.562 151.85 173.504C151.828 173.447 151.819 173.385 151.824 173.323C151.824 173.301 151.831 173.279 151.842 173.261C151.853 173.242 151.869 173.226 151.889 173.216C152.173 173.055 153.172 173.43 153.891 173.774Z" fill="#407BFF"/>
<path d="M154.215 173.93C154.237 173.934 154.259 173.934 154.28 173.93C154.294 173.918 154.305 173.903 154.311 173.886C154.318 173.869 154.32 173.851 154.317 173.833C154.317 173.758 154.113 171.986 153.142 171.986H153.056C152.777 172.013 152.696 172.153 152.68 172.271C152.6 172.759 153.646 173.699 154.178 173.935L154.215 173.93ZM153.142 172.174C153.77 172.174 154.017 173.205 154.092 173.645C153.555 173.323 152.841 172.571 152.884 172.292C152.884 172.265 152.884 172.196 153.083 172.18L153.142 172.174Z" fill="#407BFF"/>
<path d="M161.42 74.4502L162.376 75.905C162.451 76.0177 162.322 76.1573 162.118 76.1842L143.721 78.6536C143.565 78.6536 143.426 78.616 143.404 78.5194L143.082 76.984C143.082 76.8767 143.184 76.7639 143.361 76.7425L161.119 74.359C161.173 74.3472 161.229 74.3495 161.282 74.3654C161.334 74.3814 161.382 74.4106 161.42 74.4502Z" fill="#407BFF"/>
<path opacity="0.5" d="M161.42 74.4502L162.376 75.905C162.451 76.0177 162.322 76.1573 162.118 76.1842L143.721 78.6536C143.565 78.6536 143.426 78.616 143.404 78.5194L143.082 76.984C143.082 76.8767 143.184 76.7639 143.361 76.7425L161.119 74.359C161.173 74.3472 161.229 74.3495 161.282 74.3654C161.334 74.3814 161.382 74.4106 161.42 74.4502Z" fill="white"/>
<path d="M159.249 76.7628L159.727 76.6984C159.818 76.6984 159.888 76.6286 159.872 76.5696L159.437 74.5726C159.437 74.5189 159.335 74.4813 159.238 74.4921L158.766 74.5565C158.669 74.5565 158.599 74.6263 158.616 74.6853L159.05 76.6823C159.067 76.7145 159.152 76.7628 159.249 76.7628Z" fill="#407BFF"/>
<path d="M147.233 78.3741L147.706 78.3097C147.802 78.3097 147.867 78.2399 147.856 78.1809L147.416 76.1839C147.416 76.1248 147.319 76.0872 147.223 76.1033L146.745 76.1624C146.654 76.1624 146.584 76.2376 146.6 76.2966L147.035 78.2882C147.051 78.3741 147.137 78.3741 147.233 78.3741Z" fill="#407BFF"/>
</svg>
