<svg width="332" height="247" viewBox="0 0 332 247" fill="none" xmlns="http://www.w3.org/2000/svg">
<mask id="path-1-inside-1_6108_15001" fill="white">
<path d="M331.709 217.02H0.28125V217.185H331.709V217.02Z"/>
</mask>
<path d="M331.709 217.02H0.28125V217.185H331.709V217.02Z" fill="#EBEBEB"/>
<path d="M0.28125 217.02V216.32H-0.41875V217.02H0.28125ZM331.709 217.02H332.409V216.32H331.709V217.02ZM331.709 217.185V217.885H332.409V217.185H331.709ZM0.28125 217.185H-0.41875V217.885H0.28125V217.185ZM0.28125 217.72H331.709V216.32H0.28125V217.72ZM331.009 217.02V217.185H332.409V217.02H331.009ZM331.709 216.485H0.28125V217.885H331.709V216.485ZM0.98125 217.185V217.02H-0.41875V217.185H0.98125Z" fill="#DADADA" fill-opacity="0.2" mask="url(#path-1-inside-1_6108_15001)"/>
<mask id="path-3-inside-2_6108_15001" fill="white">
<path d="M298.501 227.684H276.547V227.849H298.501V227.684Z"/>
</mask>
<path d="M298.501 227.684H276.547V227.849H298.501V227.684Z" fill="#EBEBEB"/>
<path d="M276.547 227.684V226.984H275.847V227.684H276.547ZM298.501 227.684H299.201V226.984H298.501V227.684ZM298.501 227.849V228.549H299.201V227.849H298.501ZM276.547 227.849H275.847V228.549H276.547V227.849ZM276.547 228.384H298.501V226.984H276.547V228.384ZM297.801 227.684V227.849H299.201V227.684H297.801ZM298.501 227.149H276.547V228.549H298.501V227.149ZM277.247 227.849V227.684H275.847V227.849H277.247Z" fill="#DADADA" fill-opacity="0.2" mask="url(#path-3-inside-2_6108_15001)"/>
<mask id="path-5-inside-3_6108_15001" fill="white">
<path d="M219.831 229.488H214.07V229.654H219.831V229.488Z"/>
</mask>
<path d="M219.831 229.488H214.07V229.654H219.831V229.488Z" fill="#EBEBEB"/>
<path d="M214.07 229.488V228.788H213.37V229.488H214.07ZM219.831 229.488H220.531V228.788H219.831V229.488ZM219.831 229.654V230.354H220.531V229.654H219.831ZM214.07 229.654H213.37V230.354H214.07V229.654ZM214.07 230.188H219.831V228.788H214.07V230.188ZM219.131 229.488V229.654H220.531V229.488H219.131ZM219.831 228.954H214.07V230.354H219.831V228.954ZM214.77 229.654V229.488H213.37V229.654H214.77Z" fill="#DADADA" fill-opacity="0.2" mask="url(#path-5-inside-3_6108_15001)"/>
<mask id="path-7-inside-4_6108_15001" fill="white">
<path d="M275.884 221.535H263.164V221.701H275.884V221.535Z"/>
</mask>
<path d="M275.884 221.535H263.164V221.701H275.884V221.535Z" fill="#EBEBEB"/>
<path d="M263.164 221.535V220.835H262.464V221.535H263.164ZM275.884 221.535H276.584V220.835H275.884V221.535ZM275.884 221.701V222.401H276.584V221.701H275.884ZM263.164 221.701H262.464V222.401H263.164V221.701ZM263.164 222.235H275.884V220.835H263.164V222.235ZM275.184 221.535V221.701H276.584V221.535H275.184ZM275.884 221.001H263.164V222.401H275.884V221.001ZM263.864 221.701V221.535H262.464V221.701H263.864Z" fill="#DADADA" fill-opacity="0.2" mask="url(#path-7-inside-4_6108_15001)"/>
<mask id="path-9-inside-5_6108_15001" fill="white">
<path d="M63.6834 222.648H35.0547V222.814H63.6834V222.648Z"/>
</mask>
<path d="M63.6834 222.648H35.0547V222.814H63.6834V222.648Z" fill="#EBEBEB"/>
<path d="M35.0547 222.648V221.948H34.3547V222.648H35.0547ZM63.6834 222.648H64.3834V221.948H63.6834V222.648ZM63.6834 222.814V223.514H64.3834V222.814H63.6834ZM35.0547 222.814H34.3547V223.514H35.0547V222.814ZM35.0547 223.348H63.6834V221.948H35.0547V223.348ZM62.9834 222.648V222.814H64.3834V222.648H62.9834ZM63.6834 222.114H35.0547V223.514H63.6834V222.114ZM35.7547 222.814V222.648H34.3547V222.814H35.7547Z" fill="#DADADA" fill-opacity="0.2" mask="url(#path-9-inside-5_6108_15001)"/>
<mask id="path-11-inside-6_6108_15001" fill="white">
<path d="M73.7818 222.648H69.5859V222.814H73.7818V222.648Z"/>
</mask>
<path d="M73.7818 222.648H69.5859V222.814H73.7818V222.648Z" fill="#EBEBEB"/>
<path d="M69.5859 222.648V221.948H68.8859V222.648H69.5859ZM73.7818 222.648H74.4818V221.948H73.7818V222.648ZM73.7818 222.814V223.514H74.4818V222.814H73.7818ZM69.5859 222.814H68.8859V223.514H69.5859V222.814ZM69.5859 223.348H73.7818V221.948H69.5859V223.348ZM73.0818 222.648V222.814H74.4818V222.648H73.0818ZM73.7818 222.114H69.5859V223.514H73.7818V222.114ZM70.2859 222.814V222.648H68.8859V222.814H70.2859Z" fill="#DADADA" fill-opacity="0.2" mask="url(#path-11-inside-6_6108_15001)"/>
<mask id="path-13-inside-7_6108_15001" fill="white">
<path d="M149.518 225.445H87.4219V225.611H149.518V225.445Z"/>
</mask>
<path d="M149.518 225.445H87.4219V225.611H149.518V225.445Z" fill="#EBEBEB"/>
<path d="M87.4219 225.445V224.745H86.7219V225.445H87.4219ZM149.518 225.445H150.218V224.745H149.518V225.445ZM149.518 225.611V226.311H150.218V225.611H149.518ZM87.4219 225.611H86.7219V226.311H87.4219V225.611ZM87.4219 226.145H149.518V224.745H87.4219V226.145ZM148.818 225.445V225.611H150.218V225.445H148.818ZM149.518 224.911H87.4219V226.311H149.518V224.911ZM88.1219 225.611V225.445H86.7219V225.611H88.1219Z" fill="#DADADA" fill-opacity="0.2" mask="url(#path-13-inside-7_6108_15001)"/>
<mask id="path-15-inside-8_6108_15001" fill="white">
<path d="M157.378 187.455H29.3877C28.385 187.454 27.424 187.054 26.7156 186.345C26.0072 185.635 25.6094 184.673 25.6094 183.671V3.75176C25.6181 2.75484 26.0198 1.80163 26.7272 1.09916C27.4347 0.396691 28.3907 0.00170777 29.3877 0H157.378C158.382 0 159.345 0.398766 160.055 1.10857C160.765 1.81838 161.163 2.78108 161.163 3.7849V183.671C161.163 184.674 160.765 185.637 160.055 186.347C159.345 187.057 158.382 187.455 157.378 187.455ZM29.3877 0.132572C28.4289 0.134327 27.5101 0.516407 26.8328 1.19495C26.1555 1.87349 25.7751 2.79304 25.7751 3.75176V183.671C25.7751 184.629 26.1555 185.549 26.8328 186.227C27.5101 186.906 28.4289 187.288 29.3877 187.29H157.378C158.338 187.288 159.257 186.906 159.936 186.228C160.614 185.549 160.996 184.63 160.998 183.671V3.75176C160.996 2.79243 160.614 1.87289 159.936 1.19454C159.257 0.516192 158.338 0.134324 157.378 0.132572H29.3877Z"/>
</mask>
<path d="M157.378 187.455H29.3877C28.385 187.454 27.424 187.054 26.7156 186.345C26.0072 185.635 25.6094 184.673 25.6094 183.671V3.75176C25.6181 2.75484 26.0198 1.80163 26.7272 1.09916C27.4347 0.396691 28.3907 0.00170777 29.3877 0H157.378C158.382 0 159.345 0.398766 160.055 1.10857C160.765 1.81838 161.163 2.78108 161.163 3.7849V183.671C161.163 184.674 160.765 185.637 160.055 186.347C159.345 187.057 158.382 187.455 157.378 187.455ZM29.3877 0.132572C28.4289 0.134327 27.5101 0.516407 26.8328 1.19495C26.1555 1.87349 25.7751 2.79304 25.7751 3.75176V183.671C25.7751 184.629 26.1555 185.549 26.8328 186.227C27.5101 186.906 28.4289 187.288 29.3877 187.29H157.378C158.338 187.288 159.257 186.906 159.936 186.228C160.614 185.549 160.996 184.63 160.998 183.671V3.75176C160.996 2.79243 160.614 1.87289 159.936 1.19454C159.257 0.516192 158.338 0.134324 157.378 0.132572H29.3877Z" fill="#EBEBEB"/>
<path d="M29.3877 187.455L29.3864 188.155H29.3877V187.455ZM25.6094 183.671H26.3094H25.6094ZM25.6094 3.75176L24.9094 3.74563V3.75176H25.6094ZM29.3877 0V-0.700001L29.3865 -0.699999L29.3877 0ZM157.378 0V-0.7V0ZM161.163 183.671H160.463H161.163ZM29.3877 0.132572V-0.56743L29.3864 -0.567427L29.3877 0.132572ZM25.7751 3.75176H26.4751V3.75176L25.7751 3.75176ZM25.7751 183.671H26.4751H25.7751ZM29.3877 187.29L29.3864 187.99H29.3877V187.29ZM157.378 187.29V187.99H157.38L157.378 187.29ZM160.998 183.671L161.698 183.672V183.671H160.998ZM160.998 3.75176H161.698V3.75048L160.998 3.75176ZM157.378 0.132572L157.38 -0.567428H157.378V0.132572ZM157.378 186.755H29.3877V188.155H157.378V186.755ZM29.3889 186.755C28.5716 186.754 27.7884 186.428 27.211 185.85L26.2202 186.839C27.0596 187.68 28.1983 188.153 29.3864 188.155L29.3889 186.755ZM27.211 185.85C26.6336 185.272 26.3094 184.488 26.3094 183.671H24.9094C24.9094 184.859 25.3808 185.998 26.2202 186.839L27.211 185.85ZM26.3094 183.671V3.75176H24.9094V183.671H26.3094ZM26.3093 3.75789C26.3165 2.94535 26.6439 2.16842 27.2205 1.59587L26.234 0.602444C25.3957 1.43483 24.9197 2.56434 24.9094 3.74563L26.3093 3.75789ZM27.2205 1.59587C27.7971 1.02332 28.5763 0.701391 29.3888 0.699999L29.3865 -0.699999C28.2051 -0.697975 27.0723 -0.229942 26.234 0.602444L27.2205 1.59587ZM29.3877 0.7H157.378V-0.7H29.3877V0.7ZM157.378 0.7C158.197 0.7 158.981 1.02502 159.56 1.60355L160.55 0.613598C159.709 -0.227485 158.568 -0.7 157.378 -0.7V0.7ZM159.56 1.60355C160.138 2.18208 160.463 2.96674 160.463 3.7849H161.863C161.863 2.59543 161.391 1.45468 160.55 0.613598L159.56 1.60355ZM160.463 3.7849V183.671H161.863V3.7849H160.463ZM160.463 183.671C160.463 184.489 160.138 185.273 159.56 185.852L160.55 186.842C161.391 186.001 161.863 184.86 161.863 183.671H160.463ZM159.56 185.852C158.981 186.43 158.197 186.755 157.378 186.755V188.155C158.568 188.155 159.709 187.683 160.55 186.842L159.56 185.852ZM29.3864 -0.567427C28.2422 -0.565332 27.1456 -0.109353 26.3374 0.700426L27.3282 1.68947C27.8745 1.14217 28.6156 0.833987 29.3889 0.83257L29.3864 -0.567427ZM26.3374 0.700426C25.5291 1.5102 25.0751 2.60761 25.0751 3.75176L26.4751 3.75176C26.4751 2.97847 26.7819 2.23677 27.3282 1.68947L26.3374 0.700426ZM25.0751 3.75176V183.671H26.4751V3.75176H25.0751ZM25.0751 183.671C25.0751 184.815 25.5291 185.912 26.3374 186.722L27.3282 185.733C26.7819 185.186 26.4751 184.444 26.4751 183.671H25.0751ZM26.3374 186.722C27.1456 187.532 28.2422 187.988 29.3864 187.99L29.3889 186.59C28.6156 186.588 27.8745 186.28 27.3282 185.733L26.3374 186.722ZM29.3877 187.99H157.378V186.59H29.3877V187.99ZM157.38 187.99C158.524 187.988 159.621 187.532 160.431 186.723L159.441 185.733C158.893 186.28 158.151 186.588 157.377 186.59L157.38 187.99ZM160.431 186.723C161.24 185.913 161.695 184.816 161.698 183.672L160.298 183.669C160.296 184.443 159.988 185.185 159.441 185.733L160.431 186.723ZM161.698 183.671V3.75176H160.298V183.671H161.698ZM161.698 3.75048C161.695 2.60594 161.24 1.50888 160.431 0.699567L159.441 1.68952C159.988 2.23691 160.296 2.97892 160.298 3.75304L161.698 3.75048ZM160.431 0.699567C159.621 -0.109745 158.524 -0.565337 157.38 -0.567427L157.377 0.83257C158.151 0.833984 158.893 1.14213 159.441 1.68952L160.431 0.699567ZM157.378 -0.567428H29.3877V0.832572H157.378V-0.567428Z" fill="#DADADA" fill-opacity="0.2" mask="url(#path-15-inside-8_6108_15001)"/>
<mask id="path-17-inside-9_6108_15001" fill="white">
<path d="M300.759 187.455H172.761C171.758 187.454 170.797 187.054 170.087 186.345C169.378 185.636 168.978 184.674 168.977 183.671V3.75176C168.987 2.75424 169.39 1.80103 170.099 1.09874C170.807 0.396459 171.764 0.00168915 172.761 0H300.759C301.755 0.00344983 302.709 0.399204 303.415 1.10149C304.121 1.80377 304.522 2.75599 304.53 3.75176V183.671C304.53 184.672 304.133 185.633 303.427 186.342C302.72 187.052 301.76 187.452 300.759 187.455ZM172.761 0.132572C171.802 0.134324 170.883 0.516192 170.204 1.19454C169.526 1.87289 169.144 2.79243 169.142 3.75176V183.671C169.144 184.63 169.526 185.549 170.204 186.228C170.883 186.906 171.802 187.288 172.761 187.29H300.759C301.718 187.288 302.638 186.906 303.316 186.228C303.994 185.549 304.376 184.63 304.378 183.671V3.75176C304.376 2.79243 303.994 1.87289 303.316 1.19454C302.638 0.516192 301.718 0.134324 300.759 0.132572H172.761Z"/>
</mask>
<path d="M300.759 187.455H172.761C171.758 187.454 170.797 187.054 170.087 186.345C169.378 185.636 168.978 184.674 168.977 183.671V3.75176C168.987 2.75424 169.39 1.80103 170.099 1.09874C170.807 0.396459 171.764 0.00168915 172.761 0H300.759C301.755 0.00344983 302.709 0.399204 303.415 1.10149C304.121 1.80377 304.522 2.75599 304.53 3.75176V183.671C304.53 184.672 304.133 185.633 303.427 186.342C302.72 187.052 301.76 187.452 300.759 187.455ZM172.761 0.132572C171.802 0.134324 170.883 0.516192 170.204 1.19454C169.526 1.87289 169.144 2.79243 169.142 3.75176V183.671C169.144 184.63 169.526 185.549 170.204 186.228C170.883 186.906 171.802 187.288 172.761 187.29H300.759C301.718 187.288 302.638 186.906 303.316 186.228C303.994 185.549 304.376 184.63 304.378 183.671V3.75176C304.376 2.79243 303.994 1.87289 303.316 1.19454C302.638 0.516192 301.718 0.134324 300.759 0.132572H172.761Z" fill="#EBEBEB"/>
<path d="M300.759 187.455V188.155L300.761 188.155L300.759 187.455ZM172.761 187.455L172.76 188.155H172.761V187.455ZM168.977 183.671H168.277L168.277 183.672L168.977 183.671ZM168.977 3.75176L168.277 3.74442V3.75176H168.977ZM172.761 0V-0.700001L172.76 -0.699999L172.761 0ZM300.759 0L300.761 -0.7H300.759V0ZM304.53 3.75176H305.23L305.23 3.74564L304.53 3.75176ZM304.53 183.671H303.83H304.53ZM172.761 0.132572V-0.56743L172.76 -0.567427L172.761 0.132572ZM169.142 3.75176L168.442 3.75048V3.75176H169.142ZM169.142 183.671H168.442L168.442 183.672L169.142 183.671ZM172.761 187.29L172.76 187.99H172.761V187.29ZM300.759 187.29V187.99H300.76L300.759 187.29ZM304.378 183.671L305.078 183.672V183.671H304.378ZM304.378 3.75176H305.078V3.75048L304.378 3.75176ZM300.759 0.132572L300.76 -0.567428H300.759V0.132572ZM300.759 186.755H172.761V188.155H300.759V186.755ZM172.763 186.755C171.945 186.754 171.161 186.428 170.582 185.85L169.592 186.84C170.433 187.68 171.572 188.153 172.76 188.155L172.763 186.755ZM170.582 185.85C170.004 185.272 169.678 184.487 169.677 183.669L168.277 183.672C168.279 184.86 168.752 186 169.592 186.84L170.582 185.85ZM169.677 183.671V3.75176H168.277V183.671H169.677ZM169.677 3.7591C169.685 2.94575 170.014 2.16852 170.591 1.59589L169.606 0.601597C168.767 1.43354 168.289 2.56273 168.277 3.74442L169.677 3.7591ZM170.591 1.59589C171.169 1.02326 171.949 0.701376 172.763 0.699999L172.76 -0.699999C171.579 -0.697998 170.445 -0.230343 169.606 0.601597L170.591 1.59589ZM172.761 0.7H300.759V-0.7H172.761V0.7ZM300.756 0.699996C301.568 0.702808 302.346 1.02537 302.921 1.59777L303.909 0.605204C303.072 -0.226961 301.941 -0.695908 300.761 -0.699996L300.756 0.699996ZM302.921 1.59777C303.497 2.17016 303.823 2.94628 303.83 3.75789L305.23 3.74564C305.22 2.5657 304.745 1.43737 303.909 0.605204L302.921 1.59777ZM303.83 3.75176V183.671H305.23V3.75176H303.83ZM303.83 183.671C303.83 184.487 303.507 185.27 302.931 185.848L303.922 186.836C304.76 185.996 305.23 184.857 305.23 183.671H303.83ZM302.931 185.848C302.355 186.426 301.573 186.753 300.756 186.755L300.761 188.155C301.948 188.151 303.085 187.677 303.922 186.836L302.931 185.848ZM172.76 -0.567427C171.616 -0.565337 170.519 -0.109745 169.709 0.699567L170.699 1.68952C171.247 1.14213 171.989 0.833984 172.763 0.83257L172.76 -0.567427ZM169.709 0.699567C168.9 1.50888 168.444 2.60594 168.442 3.75048L169.842 3.75304C169.844 2.97891 170.152 2.2369 170.699 1.68952L169.709 0.699567ZM168.442 3.75176V183.671H169.842V3.75176H168.442ZM168.442 183.672C168.444 184.816 168.9 185.913 169.709 186.723L170.699 185.733C170.152 185.185 169.844 184.443 169.842 183.669L168.442 183.672ZM169.709 186.723C170.519 187.532 171.616 187.988 172.76 187.99L172.763 186.59C171.989 186.588 171.247 186.28 170.699 185.733L169.709 186.723ZM172.761 187.99H300.759V186.59H172.761V187.99ZM300.76 187.99C301.905 187.988 303.002 187.532 303.811 186.723L302.821 185.733C302.274 186.28 301.532 186.588 300.758 186.59L300.76 187.99ZM303.811 186.723C304.62 185.913 305.076 184.816 305.078 183.672L303.678 183.669C303.677 184.443 303.368 185.185 302.821 185.733L303.811 186.723ZM305.078 183.671V3.75176H303.678V183.671H305.078ZM305.078 3.75048C305.076 2.60594 304.62 1.50888 303.811 0.699567L302.821 1.68952C303.368 2.2369 303.677 2.97891 303.678 3.75304L305.078 3.75048ZM303.811 0.699567C303.002 -0.109745 301.905 -0.565337 300.76 -0.567427L300.758 0.83257C301.532 0.833984 302.274 1.14213 302.821 1.68952L303.811 0.699567ZM300.759 -0.567428H172.761V0.832572H300.759V-0.567428Z" fill="#DADADA" fill-opacity="0.2" mask="url(#path-17-inside-9_6108_15001)"/>
<path d="M145.079 153.031H61.2812V158.944H145.079V153.031Z" fill="#EBEBEB"/>
<path d="M61.6312 158.594V153.381H144.729V158.594H61.6312Z" stroke="#DADADA" stroke-opacity="0.2" stroke-width="0.7"/>
<path d="M145.078 153.031H108.641V158.944H145.078V153.031Z" fill="#E0E0E0"/>
<path d="M108.991 158.594V153.381H144.728V158.594H108.991Z" stroke="#DADADA" stroke-opacity="0.2" stroke-width="0.7"/>
<path d="M73.6634 158.945H61.2812V217.018H73.6634V158.945Z" fill="#EBEBEB"/>
<path d="M61.6312 216.668V159.295H73.3134V216.668H61.6312Z" stroke="#DADADA" stroke-opacity="0.2" stroke-width="0.7"/>
<path d="M73.6634 164.938L61.2812 160.722V158.945H73.6634V164.938Z" fill="#E0E0E0"/>
<path d="M61.6312 160.471V159.295H73.3134V164.449L61.6312 160.471Z" stroke="#DADADA" stroke-opacity="0.2" stroke-width="0.7"/>
<path d="M145.085 158.945H132.703V217.018H145.085V158.945Z" fill="#E0E0E0"/>
<path d="M133.053 216.668V159.295H144.735V216.668H133.053Z" stroke="#DADADA" stroke-opacity="0.2" stroke-width="0.7"/>
<path d="M121.023 158.945H108.641V217.018H121.023V158.945Z" fill="#EBEBEB"/>
<path d="M108.991 216.668V159.295H120.673V216.668H108.991Z" stroke="#DADADA" stroke-opacity="0.2" stroke-width="0.7"/>
<path d="M121.016 164.938L108.641 160.722V158.945H121.016V164.938Z" fill="#E0E0E0"/>
<path d="M108.991 160.471V159.295H120.666V164.449L108.991 160.471Z" stroke="#DADADA" stroke-opacity="0.2" stroke-width="0.7"/>
<path d="M97.7181 158.945H85.3359V217.018H97.7181V158.945Z" fill="#E0E0E0"/>
<path d="M85.6859 216.668V159.295H97.3681V216.668H85.6859Z" stroke="#DADADA" stroke-opacity="0.2" stroke-width="0.7"/>
<path d="M152.956 21.3242H47.3438V111.254H152.956V21.3242Z" fill="#EBEBEB"/>
<path d="M47.6937 110.904V21.6742H152.606V110.904H47.6937Z" stroke="#DADADA" stroke-opacity="0.2" stroke-width="0.7"/>
<path d="M152.961 111.25H154.141V21.3204H152.961V111.25Z" fill="#E0E0E0"/>
<path d="M153.791 21.6704V110.9H153.311V21.6704H153.791Z" stroke="#DADADA" stroke-opacity="0.2" stroke-width="0.7"/>
<path d="M148.984 107.272V25.2969L51.3259 25.2969V107.272H148.984Z" fill="#F5F5F5"/>
<path d="M51.6759 25.6469L148.634 25.6469V106.922H51.6759V25.6469Z" stroke="#DADADA" stroke-opacity="0.2" stroke-width="0.7"/>
<path d="M98.9766 94.8284C104.942 74.9428 106.599 45.6114 119.286 49.6549C131.973 53.6983 115.356 97.0689 115.356 97.0689L98.9766 94.8284Z" fill="white"/>
<path d="M99.4285 94.537C100.872 89.6512 102.064 84.2241 103.225 78.8866C103.263 78.7106 103.301 78.5346 103.339 78.3588C104.493 73.0543 105.622 67.8601 106.947 63.3672C108.318 58.7168 109.885 54.8664 111.871 52.4322C112.86 51.22 113.939 50.3755 115.134 49.949C116.323 49.5242 117.657 49.503 119.18 49.9883C122.119 50.9249 123.449 54.1645 123.675 58.7862C123.899 63.3725 123.02 69.1357 121.737 74.8009C120.456 80.4602 118.779 85.9964 117.422 90.1196C116.743 92.1807 116.144 93.8876 115.716 95.0789C115.501 95.6745 115.329 96.1412 115.211 96.4587C115.179 96.5451 115.151 96.6204 115.127 96.6843L99.4285 94.537Z" stroke="#DADADA" stroke-opacity="0.2" stroke-width="0.7"/>
<path d="M109.227 95.8145C103.156 66.9935 104.687 28.7335 85.8219 29.6085C66.957 30.4835 85.8219 97.0673 85.8219 97.0673L109.227 95.8145Z" fill="white"/>
<path d="M85.8381 29.9581C90.4049 29.7463 93.74 31.8888 96.2924 35.725C98.858 39.5812 100.614 45.1277 101.979 51.6472C103.305 57.9757 104.254 65.1813 105.229 72.5839C105.257 72.8003 105.286 73.0169 105.315 73.2336C106.301 80.7172 107.325 88.3783 108.801 95.4868L86.0834 96.7028C86.05 96.5826 86.006 96.4233 85.9522 96.2269C85.8189 95.74 85.6258 95.0255 85.3866 94.1156C84.9083 92.2956 84.2458 89.6942 83.5097 86.5696C82.0372 80.3194 80.2712 71.9804 79.0941 63.6172C77.9161 55.2469 77.3326 46.8815 78.2099 40.5662C78.6488 37.4071 79.449 34.7952 80.6954 32.9546C81.9312 31.1297 83.6039 30.0617 85.8381 29.9581Z" stroke="#DADADA" stroke-opacity="0.2" stroke-width="0.7"/>
<path d="M122.55 92.5837H81.247C80.4042 92.5566 79.5845 92.8617 78.9646 93.4333C78.3446 94.0049 77.9741 94.7972 77.9328 95.6395C77.0909 114.663 80.2064 134.085 86.0063 153.036H117.631C123.431 134.052 126.547 114.663 125.705 95.6395C125.672 94.8222 125.327 94.0488 124.739 93.4798C124.151 92.9108 123.367 92.5899 122.55 92.5837Z" fill="#EBEBEB"/>
<path d="M81.2358 92.9335L81.2358 92.9337H81.247H122.548C123.276 92.9395 123.973 93.2251 124.496 93.7312C125.018 94.2376 125.326 94.9259 125.355 95.6533L125.355 95.6549C126.191 114.548 123.114 133.81 117.372 152.686H86.2654C80.5231 133.843 77.4465 114.549 78.2824 95.6558C78.3194 94.9055 78.6495 94.1998 79.2018 93.6906C79.7543 93.1813 80.4847 92.9094 81.2358 92.9335Z" stroke="#DADADA" stroke-opacity="0.2" stroke-width="0.7"/>
<path d="M216.506 31.3516H214.18V217.017H216.506V31.3516Z" fill="#E0E0E0"/>
<path d="M214.53 216.667V31.7016H216.156V216.667H214.53Z" stroke="#DADADA" stroke-opacity="0.2" stroke-width="0.7"/>
<path d="M271.186 31.3516H268.859V217.017H271.186V31.3516Z" fill="#E0E0E0"/>
<path d="M269.209 216.667V31.7016H270.836V216.667H269.209Z" stroke="#DADADA" stroke-opacity="0.2" stroke-width="0.7"/>
<path d="M200.006 31.3516H197.68V217.017H200.006V31.3516Z" fill="#EBEBEB"/>
<path d="M198.03 216.667V31.7016H199.656V216.667H198.03Z" stroke="#DADADA" stroke-opacity="0.2" stroke-width="0.7"/>
<path d="M254.686 31.3516H252.359V217.017H254.686V31.3516Z" fill="#EBEBEB"/>
<path d="M252.709 216.667V31.7016H254.336V216.667H252.709Z" stroke="#DADADA" stroke-opacity="0.2" stroke-width="0.7"/>
<path d="M271.184 30.082H197.68V32.6208H271.184V30.082Z" fill="#EBEBEB"/>
<path d="M198.03 32.2708V30.432H270.834V32.2708H198.03Z" stroke="#DADADA" stroke-opacity="0.2" stroke-width="0.7"/>
<path d="M271.184 75.5469H197.68V78.0856H271.184V75.5469Z" fill="#EBEBEB"/>
<path d="M198.03 77.7356V75.8969H270.834V77.7356H198.03Z" stroke="#DADADA" stroke-opacity="0.2" stroke-width="0.7"/>
<path d="M271.184 121.008H197.68V123.547H271.184V121.008Z" fill="#EBEBEB"/>
<path d="M198.03 123.197V121.358H270.834V123.197H198.03Z" stroke="#DADADA" stroke-opacity="0.2" stroke-width="0.7"/>
<path d="M271.184 166.477H197.68V169.015H271.184V166.477Z" fill="#EBEBEB"/>
<path d="M198.03 168.665V166.827H270.834V168.665H198.03Z" stroke="#DADADA" stroke-opacity="0.2" stroke-width="0.7"/>
<path d="M271.184 211.941H197.68V214.48H271.184V211.941Z" fill="#EBEBEB"/>
<path d="M198.03 214.13V212.291H270.834V214.13H198.03Z" stroke="#DADADA" stroke-opacity="0.2" stroke-width="0.7"/>
<path d="M271.186 30.082H254.688V32.6208H271.186V30.082Z" fill="#E0E0E0"/>
<path d="M255.037 32.2708V30.432H270.836V32.2708H255.037Z" stroke="#DADADA" stroke-opacity="0.2" stroke-width="0.7"/>
<path d="M271.186 75.5469H254.688V78.0856H271.186V75.5469Z" fill="#E0E0E0"/>
<path d="M255.037 77.7356V75.8969H270.836V77.7356H255.037Z" stroke="#DADADA" stroke-opacity="0.2" stroke-width="0.7"/>
<path d="M271.186 121.008H254.688V123.547H271.186V121.008Z" fill="#E0E0E0"/>
<path d="M255.037 123.197V121.358H270.836V123.197H255.037Z" stroke="#DADADA" stroke-opacity="0.2" stroke-width="0.7"/>
<path d="M271.186 166.477H254.688V169.015H271.186V166.477Z" fill="#E0E0E0"/>
<path d="M255.037 168.665V166.827H270.836V168.665H255.037Z" stroke="#DADADA" stroke-opacity="0.2" stroke-width="0.7"/>
<path d="M271.186 211.941H254.688V214.48H271.186V211.941Z" fill="#E0E0E0"/>
<path d="M255.037 214.13V212.291H270.836V214.13H255.037Z" stroke="#DADADA" stroke-opacity="0.2" stroke-width="0.7"/>
<path d="M227.332 45.5443V41.9648H218.496V45.5443C218.496 46.6665 218.051 47.7428 217.258 48.537C216.465 49.3311 215.389 49.7782 214.267 49.7799C213.145 49.7799 212.068 50.2252 211.274 51.0182C210.48 51.8111 210.033 52.8867 210.031 54.0089V75.565H235.803V54.0089C235.801 52.8867 235.354 51.8111 234.56 51.0182C233.766 50.2252 232.69 49.7799 231.567 49.7799C230.444 49.7799 229.367 49.3337 228.572 48.5393C227.778 47.745 227.332 46.6676 227.332 45.5443Z" fill="#F0F0F0"/>
<path d="M218.846 42.3148H218.496V45.5443C218.496 46.6665 218.051 47.7428 217.258 48.537C216.465 49.3311 215.389 49.7782 214.267 49.7799C213.145 49.7799 212.068 50.2252 211.274 51.0182C210.48 51.8111 210.033 52.8867 210.031 54.0089M218.846 42.3148V45.5443C218.846 46.7592 218.364 47.9245 217.505 48.7843C216.647 49.644 215.482 50.128 214.267 50.1299L214.267 50.1299C213.237 50.1299 212.25 50.5385 211.521 51.2658C210.793 51.9932 210.383 52.9798 210.381 54.0092M218.846 42.3148V41.9648H226.982V42.3148M218.846 42.3148H226.982M210.381 54.0092V54.0089H210.031M210.381 54.0092C210.381 54.0093 210.381 54.0094 210.381 54.0095L210.031 54.0089M210.381 54.0092V75.215M210.031 54.0089V75.215H210.381M210.381 75.215H235.453M210.381 75.215V75.565H235.453V75.215M235.453 75.215H235.803V54.0089M235.453 75.215V54.0095M235.803 54.0089C235.801 52.8867 235.354 51.8111 234.56 51.0182C233.766 50.2252 232.69 49.7799 231.567 49.7799C230.444 49.7799 229.367 49.3337 228.572 48.5393C227.778 47.745 227.332 46.6676 227.332 45.5443V42.3148H226.982M235.803 54.0089L235.453 54.0095M235.803 54.0089H235.453V54.0095M226.982 42.3148V45.5443C226.982 46.7605 227.465 47.9268 228.325 48.7868C229.185 49.6468 230.351 50.1299 231.567 50.1299C232.597 50.1299 233.584 50.5385 234.313 51.2658C235.041 51.9932 235.451 52.98 235.453 54.0095" stroke="#DADADA" stroke-opacity="0.2" stroke-width="0.7"/>
<path d="M245.615 106.23H206.891V121.019H245.615V106.23Z" fill="#F0F0F0"/>
<path d="M207.241 120.669V106.58H245.265V120.669H207.241Z" stroke="#DADADA" stroke-opacity="0.2" stroke-width="0.7"/>
<path d="M245.618 121.008H252.359V106.22H245.618V121.008Z" fill="#E6E6E6"/>
<path d="M252.009 106.57V120.658H245.968V106.57H252.009Z" stroke="#DADADA" stroke-opacity="0.2" stroke-width="0.7"/>
<path d="M245.618 114.438H252.359V112.807H245.618V114.438Z" fill="#EBEBEB"/>
<path d="M252.009 113.157V114.088H245.968V113.157H252.009Z" stroke="#DADADA" stroke-opacity="0.2" stroke-width="0.7"/>
<path d="M245.615 112.805H206.891V114.435H245.615V112.805Z" fill="#F5F5F5"/>
<path d="M207.241 114.085V113.155H245.265V114.085H207.241Z" stroke="#DADADA" stroke-opacity="0.2" stroke-width="0.7"/>
<path d="M235.246 185.797H205V211.94H235.246V185.797Z" fill="#F0F0F0"/>
<path d="M205.35 211.59V186.147H234.896V211.59H205.35Z" stroke="#DADADA" stroke-opacity="0.2" stroke-width="0.7"/>
<path d="M235.245 211.945H240.508V185.802H235.245V211.945Z" fill="#E6E6E6"/>
<path d="M240.158 186.152V211.595H235.595V186.152H240.158Z" stroke="#DADADA" stroke-opacity="0.2" stroke-width="0.7"/>
<path d="M235.245 200.316H240.508V197.433H235.245V200.316Z" fill="#EBEBEB"/>
<path d="M240.158 197.783V199.966H235.595V197.783H240.158Z" stroke="#DADADA" stroke-opacity="0.2" stroke-width="0.7"/>
<path d="M235.246 197.43H205V200.313H235.246V197.43Z" fill="#F5F5F5"/>
<path d="M205.35 199.963V197.78H234.896V199.963H205.35Z" stroke="#DADADA" stroke-opacity="0.2" stroke-width="0.7"/>
<path d="M235.245 195.41H240.508V194.383H235.245V195.41Z" fill="#EBEBEB"/>
<path d="M240.158 194.733V195.06H235.595V194.733H240.158Z" stroke="#DADADA" stroke-opacity="0.2" stroke-width="0.7"/>
<path d="M235.246 194.383H205V195.41H235.246V194.383Z" fill="#F5F5F5"/>
<path d="M205.35 195.06V194.733H234.896V195.06H205.35Z" stroke="#DADADA" stroke-opacity="0.2" stroke-width="0.7"/>
<path d="M212.366 139.895H206.891V166.475H212.366V139.895Z" fill="#F0F0F0"/>
<path d="M207.241 166.125V140.245H212.016V166.125H207.241Z" stroke="#DADADA" stroke-opacity="0.2" stroke-width="0.7"/>
<path d="M212.366 149.367H206.891V157.003H212.366V149.367Z" fill="#FAFAFA"/>
<path d="M207.241 156.653V149.717H212.016V156.653H207.241Z" stroke="#DADADA" stroke-opacity="0.2" stroke-width="0.7"/>
<path d="M212.374 166.484H231V139.904H212.374V166.484Z" fill="#E6E6E6"/>
<path d="M230.65 140.254V166.134H212.724V140.254H230.65Z" stroke="#DADADA" stroke-opacity="0.2" stroke-width="0.7"/>
<path d="M220.825 136.461H214.641V166.475H220.825V136.461Z" fill="#EBEBEB"/>
<path d="M214.991 166.125V136.811H220.475V166.125H214.991Z" stroke="#DADADA" stroke-opacity="0.2" stroke-width="0.7"/>
<path d="M220.825 146H214.641V150.62H220.825V146Z" fill="#FAFAFA"/>
<path d="M214.991 150.27V146.35H220.475V150.27H214.991Z" stroke="#DADADA" stroke-opacity="0.2" stroke-width="0.7"/>
<path d="M220.825 153.715H214.641V158.335H220.825V153.715Z" fill="#FAFAFA"/>
<path d="M214.991 157.985V154.065H220.475V157.985H214.991Z" stroke="#DADADA" stroke-opacity="0.2" stroke-width="0.7"/>
<path d="M220.827 166.477H241.859V136.462H220.827V166.477Z" fill="#E0E0E0"/>
<path d="M241.509 136.812V166.127H221.177V136.812H241.509Z" stroke="#DADADA" stroke-opacity="0.2" stroke-width="0.7"/>
<path d="M227.717 139.895H224.383V166.475H227.717V139.895Z" fill="#F0F0F0"/>
<path d="M224.733 166.125V140.245H227.367V166.125H224.733Z" stroke="#DADADA" stroke-opacity="0.2" stroke-width="0.7"/>
<path d="M227.133 143.262H224.945V163.108H227.133V143.262Z" fill="#FAFAFA"/>
<path d="M225.295 162.758V143.612H226.783V162.758H225.295Z" stroke="#DADADA" stroke-opacity="0.2" stroke-width="0.7"/>
<path d="M227.711 166.484H239.039V139.904H227.711V166.484Z" fill="#E6E6E6"/>
<path d="M238.689 140.254V166.134H228.061V140.254H238.689Z" stroke="#DADADA" stroke-opacity="0.2" stroke-width="0.7"/>
<path d="M236.617 138.496H232.852V166.475H236.617V138.496Z" fill="#EBEBEB"/>
<path d="M233.202 166.125V138.846H236.267V166.125H233.202Z" stroke="#DADADA" stroke-opacity="0.2" stroke-width="0.7"/>
<path d="M236.617 147.387H232.852V151.695H236.617V147.387Z" fill="#FAFAFA"/>
<path d="M233.202 151.345V147.737H236.267V151.345H233.202Z" stroke="#DADADA" stroke-opacity="0.2" stroke-width="0.7"/>
<path d="M236.617 154.586H232.852V158.894H236.617V154.586Z" fill="#FAFAFA"/>
<path d="M233.202 158.544V154.936H236.267V158.544H233.202Z" stroke="#DADADA" stroke-opacity="0.2" stroke-width="0.7"/>
<path d="M236.613 166.477H249.406V138.497H236.613V166.477Z" fill="#E0E0E0"/>
<path d="M249.056 138.847V166.127H236.963V138.847H249.056Z" stroke="#DADADA" stroke-opacity="0.2" stroke-width="0.7"/>
<path d="M234.906 103.815C238.127 100.595 238.127 95.3739 234.906 92.1536C231.686 88.9334 226.465 88.9334 223.245 92.1536C220.025 95.3739 220.025 100.595 223.245 103.815C226.465 107.035 231.686 107.035 234.906 103.815Z" fill="#F5F5F5"/>
<path d="M234.659 92.4011C237.742 95.4847 237.742 100.484 234.659 103.568C231.575 106.651 226.576 106.651 223.492 103.568C220.409 100.484 220.409 95.4847 223.492 92.4011C226.576 89.3176 231.575 89.3176 234.659 92.4011Z" stroke="#DADADA" stroke-opacity="0.2" stroke-width="0.7"/>
<path d="M239.112 106.138C242.227 105.632 244.342 102.697 243.836 99.5824C243.331 96.4676 240.396 94.3523 237.281 94.8579C234.166 95.3636 232.051 98.2986 232.556 101.413C233.062 104.528 235.997 106.644 239.112 106.138Z" fill="#EBEBEB"/>
<path d="M243.491 99.6385C243.965 102.563 241.98 105.318 239.056 105.792C236.131 106.267 233.376 104.281 232.902 101.357C232.427 98.4333 234.413 95.6781 237.337 95.2034C240.261 94.7288 243.016 96.7144 243.491 99.6385Z" stroke="#DADADA" stroke-opacity="0.2" stroke-width="0.7"/>
<path d="M165.998 246.952C236.978 246.952 294.519 243.593 294.519 239.449C294.519 235.305 236.978 231.945 165.998 231.945C95.0174 231.945 37.4766 235.305 37.4766 239.449C37.4766 243.593 95.0174 246.952 165.998 246.952Z" fill="#F5F5F5"/>
<path d="M294.169 239.449C294.169 239.47 294.161 239.52 294.087 239.605C294.011 239.693 293.882 239.797 293.681 239.913C293.279 240.144 292.658 240.383 291.811 240.624C290.124 241.106 287.618 241.575 284.371 242.023C277.881 242.919 268.481 243.726 256.855 244.405C233.606 245.763 201.483 246.602 165.998 246.602C130.512 246.602 98.3889 245.763 75.1399 244.405C63.514 243.726 54.1141 242.919 47.6242 242.023C44.377 241.575 41.8715 241.106 40.1837 240.624C39.3371 240.383 38.7164 240.144 38.3145 239.913C38.1135 239.797 37.984 239.693 37.9081 239.605C37.8342 239.52 37.8266 239.47 37.8266 239.449C37.8266 239.428 37.8342 239.377 37.9081 239.292C37.984 239.205 38.1135 239.101 38.3145 238.985C38.7164 238.754 39.3371 238.515 40.1837 238.273C41.8715 237.792 44.377 237.323 47.6242 236.875C54.1141 235.979 63.514 235.171 75.1399 234.492C98.3889 233.135 130.512 232.295 165.998 232.295C201.483 232.295 233.606 233.135 256.855 234.492C268.481 235.171 277.881 235.979 284.371 236.875C287.618 237.323 290.124 237.792 291.811 238.273C292.658 238.515 293.279 238.754 293.681 238.985C293.882 239.101 294.011 239.205 294.087 239.292C294.161 239.377 294.169 239.428 294.169 239.449Z" stroke="#407BFF" stroke-opacity="0.2" stroke-width="0.7"/>
<path d="M83.875 188.043H169.012V231.997C169.012 232.56 168.901 233.118 168.686 233.638C168.47 234.158 168.154 234.631 167.756 235.029C167.358 235.428 166.885 235.744 166.365 235.959C165.844 236.175 165.287 236.286 164.723 236.286H88.1637C87.6005 236.286 87.0428 236.175 86.5225 235.959C86.0021 235.744 85.5294 235.428 85.1311 235.029C84.7329 234.631 84.417 234.158 84.2015 233.638C83.9859 233.118 83.875 232.56 83.875 231.997V188.043Z" fill="#DADADA"/>
<path d="M84.225 188.393H168.662V231.997C168.662 232.514 168.56 233.026 168.362 233.504C168.164 233.982 167.874 234.416 167.509 234.782C167.143 235.148 166.709 235.438 166.231 235.636C165.753 235.834 165.241 235.936 164.723 235.936H88.1637C87.6464 235.936 87.1343 235.834 86.6564 235.636C86.1785 235.438 85.7444 235.148 85.3786 234.782C85.0129 234.416 84.7228 233.982 84.5248 233.504C84.3269 233.026 84.225 232.514 84.225 231.997V188.393Z" stroke="#DADADA" stroke-opacity="0.2" stroke-width="0.7"/>
<path d="M83.8757 188.044H144.123L136.712 178.558C135.897 177.518 133.881 176.676 132.204 176.676H78.0227C76.3523 176.676 75.6496 177.518 76.465 178.558L83.8757 188.044Z" fill="#DADADA"/>
<path d="M76.7408 178.343L76.7405 178.342C76.5637 178.117 76.4918 177.93 76.4777 177.79C76.4645 177.659 76.4991 177.549 76.581 177.45C76.7627 177.231 77.222 177.026 78.0227 177.026H132.204C132.989 177.026 133.866 177.224 134.646 177.55C135.432 177.878 136.079 178.318 136.436 178.774C136.436 178.774 136.436 178.774 136.436 178.774L143.405 187.694H84.0464L76.7408 178.343Z" stroke="#DADADA" stroke-opacity="0.2" stroke-width="0.7"/>
<g opacity="0.2">
<path d="M83.8757 188.044H144.123L136.712 178.558C135.897 177.518 133.881 176.676 132.204 176.676H78.0227C76.3523 176.676 75.6496 177.518 76.465 178.558L83.8757 188.044Z" fill="#DADADA"/>
<path d="M76.7408 178.343L76.7405 178.342C76.5637 178.117 76.4918 177.93 76.4777 177.79C76.4645 177.659 76.4991 177.549 76.581 177.45C76.7627 177.231 77.222 177.026 78.0227 177.026H132.204C132.989 177.026 133.866 177.224 134.646 177.55C135.432 177.878 136.079 178.318 136.436 178.774C136.436 178.774 136.436 178.774 136.436 178.774L143.405 187.694H84.0464L76.7408 178.343Z" stroke="#DADADA" stroke-opacity="0.2" stroke-width="0.7"/>
</g>
<path d="M169.014 188.044H108.773L116.184 181.859C116.999 181.196 119.015 180.633 120.692 180.633H174.867C176.544 180.633 177.24 181.183 176.424 181.859L169.014 188.044Z" fill="#DADADA"/>
<path d="M176.201 181.59L176.2 181.59L168.887 187.694H109.739L116.407 182.129C116.758 181.844 117.41 181.554 118.207 181.335C118.997 181.118 119.889 180.983 120.692 180.983H174.867C175.268 180.983 175.601 181.016 175.859 181.071C176.122 181.128 176.282 181.203 176.364 181.267C176.402 181.297 176.413 181.317 176.415 181.322C176.415 181.322 176.415 181.322 176.415 181.323C176.416 181.323 176.416 181.323 176.415 181.328C176.412 181.35 176.379 181.442 176.201 181.59Z" stroke="#DADADA" stroke-opacity="0.2" stroke-width="0.7"/>
<g opacity="0.2">
<path d="M108.773 188.043H169.014V231.997C169.014 232.56 168.903 233.118 168.687 233.638C168.472 234.158 168.156 234.631 167.758 235.029C167.359 235.428 166.887 235.744 166.366 235.959C165.846 236.175 165.288 236.286 164.725 236.286H113.062C112.499 236.286 111.941 236.175 111.421 235.959C110.901 235.744 110.428 235.428 110.03 235.029C109.631 234.631 109.315 234.158 109.1 233.638C108.884 233.118 108.773 232.56 108.773 231.997V188.043Z" fill="white"/>
<path d="M109.123 188.393H168.664V231.997C168.664 232.514 168.562 233.026 168.364 233.504C168.166 233.982 167.876 234.416 167.51 234.782C167.144 235.148 166.71 235.438 166.232 235.636C165.754 235.834 165.242 235.936 164.725 235.936H113.062C112.545 235.936 112.033 235.834 111.555 235.636C111.077 235.438 110.643 235.148 110.277 234.782C109.911 234.416 109.621 233.982 109.423 233.504C109.225 233.026 109.123 232.514 109.123 231.997V188.393Z" stroke="#DADADA" stroke-opacity="0.2" stroke-width="0.7"/>
</g>
<g opacity="0.5">
<path d="M91.3516 188.043V218.19L93.4329 216.546L94.8978 218.19L96.1705 216.36L97.4763 218.19L99.2926 216.818L101.294 218.19V188.043H91.3516Z" fill="white"/>
<path d="M100.944 217.525L99.4904 216.529L99.2826 216.386L99.0816 216.538L97.5523 217.694L96.4554 216.157L96.1668 215.753L95.8832 216.16L94.8639 217.625L93.6942 216.313L93.4748 216.067L93.216 216.271L91.7016 217.467V188.393H100.944V217.525Z" stroke="#DADADA" stroke-opacity="0.2" stroke-width="0.7"/>
</g>
<path d="M104.83 122.285L94.125 113.297" stroke="#407BFF" stroke-opacity="0.2" stroke-width="0.7" stroke-miterlimit="10"/>
<path d="M110.371 126.943L107.109 124.199" stroke="#407BFF" stroke-opacity="0.2" stroke-width="0.7" stroke-miterlimit="10"/>
<path d="M142.444 145.756L177.761 101.616L130.738 62.1367L99.5835 97.8845L94.9435 106.826C94.7132 107.08 94.5376 107.379 94.4279 107.704C94.3182 108.028 94.2767 108.372 94.306 108.714C94.3352 109.055 94.4346 109.387 94.5979 109.689C94.7612 109.99 94.9849 110.254 95.2551 110.465L137.678 146.087C138.368 146.643 139.242 146.918 140.126 146.856C141.01 146.795 141.837 146.402 142.444 145.756Z" fill="#DADADA"/>
<path d="M95.2027 107.062L95.2333 107.028L95.2542 106.988L99.8749 98.0829L130.776 62.6257L177.274 101.665L142.179 145.526C141.634 146.102 140.893 146.452 140.101 146.507C139.307 146.563 138.521 146.316 137.9 145.817C137.899 145.816 137.898 145.815 137.897 145.815L95.4801 110.197L95.4803 110.197L95.4705 110.19C95.2383 110.008 95.046 109.781 94.9056 109.522C94.7652 109.263 94.6798 108.978 94.6547 108.684C94.6295 108.39 94.6652 108.095 94.7595 107.816L94.4282 107.704L94.7595 107.816C94.8538 107.537 95.0047 107.28 95.2027 107.062Z" stroke="#407BFF" stroke-opacity="0.2" stroke-width="0.7"/>
<g opacity="0.5">
<path d="M118.225 113.203L113.141 121.389L115.189 121.834L115.885 123.729L117.244 123.809L117.873 125.433L119.537 125.917L120.816 127.952L125.901 119.765L118.225 113.203Z" fill="white"/>
<path d="M115.517 121.713L115.451 121.532L115.263 121.491L113.7 121.152L118.307 113.734L125.445 119.836L120.815 127.291L119.833 125.73L119.763 125.618L119.635 125.581L118.137 125.145L117.57 123.682L117.489 123.473L117.264 123.459L116.134 123.393L115.517 121.713Z" stroke="#407BFF" stroke-opacity="0.2" stroke-width="0.7"/>
</g>
<g opacity="0.1">
<path d="M176.222 100.324L144.55 135.654L99.5625 97.8845L130.737 62.1367L176.222 100.324Z" fill="black"/>
<path d="M130.775 62.6256L175.72 100.359L144.516 135.168L100.061 97.8457L130.775 62.6256Z" stroke="#407BFF" stroke-opacity="0.2" stroke-width="0.7"/>
</g>
<path d="M176.218 100.324L144.547 135.654L157.658 136.622L188.839 100.874L176.218 100.324Z" fill="#DADADA"/>
<path d="M188.097 101.192L157.509 136.26L145.283 135.358L176.368 100.681L188.097 101.192Z" stroke="#407BFF" stroke-opacity="0.2" stroke-width="0.7"/>
<g opacity="0.3">
<path d="M176.218 100.324L144.547 135.654L157.658 136.622L188.839 100.874L176.218 100.324Z" fill="black"/>
<path d="M188.097 101.192L157.509 136.26L145.283 135.358L176.368 100.681L188.097 101.192Z" stroke="#407BFF" stroke-opacity="0.2" stroke-width="0.7"/>
</g>
<path d="M118.123 61.5781L86.4453 96.9149L99.5632 97.8827L130.737 62.1349L118.123 61.5781Z" fill="#DADADA"/>
<path d="M129.996 62.4525L99.4144 97.5208L87.1813 96.6183L118.273 61.9351L129.996 62.4525Z" stroke="#407BFF" stroke-opacity="0.2" stroke-width="0.7"/>
<g opacity="0.4">
<path d="M118.123 61.5781L86.4453 96.9149L99.5632 97.8827L130.737 62.1349L118.123 61.5781Z" fill="black"/>
<path d="M129.996 62.4525L99.4144 97.5208L87.1813 96.6183L118.273 61.9351L129.996 62.4525Z" stroke="#407BFF" stroke-opacity="0.2" stroke-width="0.7"/>
</g>
<g opacity="0.1">
<path d="M166.476 111.201L176.227 100.324L130.742 62.1367L124.922 76.1627L166.476 111.201Z" fill="black"/>
<path d="M130.882 62.7116L175.725 100.359L166.442 110.715L125.343 76.0603L130.882 62.7116Z" stroke="#407BFF" stroke-opacity="0.2" stroke-width="0.7"/>
</g>
<g opacity="0.2">
<path d="M99.5625 97.8845L130.737 62.1367L124.917 76.1627L102.963 100.741L99.5625 97.8845Z" fill="black"/>
<path d="M102.928 100.255L100.061 97.8458L129.592 63.9816L124.616 75.9738L102.928 100.255Z" stroke="#407BFF" stroke-opacity="0.2" stroke-width="0.7"/>
</g>
<path d="M187.205 33.805C187.331 34.2292 187.205 34.6468 186.926 34.7264C186.648 34.8059 186.323 34.5275 186.197 34.1033C186.071 33.679 186.197 33.2615 186.476 33.1753C186.754 33.0891 187.086 33.3808 187.205 33.805Z" fill="#263238"/>
<path d="M186.868 33.8998L186.868 33.8998L186.869 33.9046C186.915 34.0598 186.911 34.1999 186.882 34.2937C186.861 34.3646 186.836 34.3854 186.829 34.3899L186.828 34.3899C186.827 34.3899 186.822 34.3895 186.814 34.3871C186.797 34.382 186.768 34.3685 186.732 34.3378C186.659 34.275 186.579 34.1607 186.533 34.0037C186.487 33.8487 186.492 33.7083 186.52 33.6132C186.534 33.5665 186.552 33.5379 186.564 33.5231C186.57 33.5159 186.575 33.5124 186.577 33.511L186.578 33.5106C186.587 33.5111 186.618 33.517 186.67 33.563C186.745 33.6279 186.824 33.7449 186.868 33.8998Z" stroke="#407BFF" stroke-opacity="0.2" stroke-width="0.7"/>
<path d="M187.249 34.6406C187.124 36.0991 186.798 37.5334 186.281 38.9028C186.636 39.0257 187.013 39.0698 187.386 39.032C187.759 38.9943 188.12 38.8755 188.442 38.684L187.249 34.6406Z" fill="#ED847E"/>
<path d="M187.351 38.6838C187.147 38.7044 186.942 38.6968 186.741 38.6617C187.011 37.8915 187.223 37.1026 187.374 36.3018L188.025 38.506C187.811 38.6 187.584 38.6602 187.351 38.6838Z" stroke="#407BFF" stroke-opacity="0.2" stroke-width="0.7"/>
<mask id="path-167-inside-10_6108_15001" fill="white">
<path d="M188.091 30.9768C188.147 30.9444 188.189 30.8925 188.21 30.831C188.223 30.7988 188.228 30.7645 188.227 30.7301C188.226 30.6956 188.217 30.6618 188.202 30.6308C188.187 30.5997 188.166 30.572 188.14 30.5494C188.114 30.5269 188.084 30.5099 188.051 30.4995C187.663 30.3506 187.244 30.2976 186.831 30.3449C186.418 30.3922 186.022 30.5385 185.678 30.7713C185.633 30.8168 185.606 30.8769 185.602 30.9406C185.598 31.0043 185.617 31.0674 185.656 31.1181C185.695 31.1689 185.75 31.2041 185.813 31.2171C185.875 31.23 185.94 31.2201 185.996 31.1889C186.271 31.0083 186.586 30.896 186.913 30.8614C187.241 30.8269 187.572 30.8709 187.879 30.99C187.913 31.0026 187.95 31.0079 187.986 31.0056C188.023 31.0033 188.058 30.9935 188.091 30.9768Z"/>
</mask>
<path d="M188.091 30.9768C188.147 30.9444 188.189 30.8925 188.21 30.831C188.223 30.7988 188.228 30.7645 188.227 30.7301C188.226 30.6956 188.217 30.6618 188.202 30.6308C188.187 30.5997 188.166 30.572 188.14 30.5494C188.114 30.5269 188.084 30.5099 188.051 30.4995C187.663 30.3506 187.244 30.2976 186.831 30.3449C186.418 30.3922 186.022 30.5385 185.678 30.7713C185.633 30.8168 185.606 30.8769 185.602 30.9406C185.598 31.0043 185.617 31.0674 185.656 31.1181C185.695 31.1689 185.75 31.2041 185.813 31.2171C185.875 31.23 185.94 31.2201 185.996 31.1889C186.271 31.0083 186.586 30.896 186.913 30.8614C187.241 30.8269 187.572 30.8709 187.879 30.99C187.913 31.0026 187.95 31.0079 187.986 31.0056C188.023 31.0033 188.058 30.9935 188.091 30.9768Z" fill="#263238"/>
<path d="M188.091 30.9768L188.411 31.5994L188.425 31.5918L188.44 31.5836L188.091 30.9768ZM188.21 30.831L187.558 30.5775L187.551 30.5932L187.546 30.6091L188.21 30.831ZM188.051 30.4995L187.8 31.1531L187.82 31.1607L187.841 31.1672L188.051 30.4995ZM185.678 30.7713L185.286 30.1913L185.228 30.2303L185.179 30.2798L185.678 30.7713ZM185.996 31.1889L186.338 31.7999L186.359 31.7878L186.38 31.7742L185.996 31.1889ZM187.879 30.99L187.625 31.6428L187.639 31.6476L187.879 30.99ZM188.44 31.5836C188.644 31.4659 188.799 31.277 188.874 31.0528L187.546 30.6091C187.58 30.508 187.65 30.423 187.742 30.3699L188.44 31.5836ZM188.863 31.0844C188.91 30.9629 188.931 30.8331 188.926 30.7031L187.527 30.757C187.525 30.6959 187.535 30.6348 187.558 30.5775L188.863 31.0844ZM188.926 30.7031C188.921 30.573 188.89 30.4452 188.833 30.3279L187.571 30.9337C187.545 30.8784 187.53 30.8183 187.527 30.757L188.926 30.7031ZM188.833 30.3279C188.777 30.2104 188.697 30.1058 188.599 30.0206L187.682 31.0783C187.635 31.0382 187.598 30.989 187.571 30.9337L188.833 30.3279ZM188.599 30.0206C188.5 29.9352 188.386 29.871 188.261 29.8319L187.841 31.1672C187.782 31.1487 187.728 31.1185 187.682 31.0783L188.599 30.0206ZM188.302 29.8459C187.808 29.6567 187.276 29.5893 186.752 29.6495L186.911 31.0404C187.212 31.0059 187.517 31.0445 187.8 31.1531L188.302 29.8459ZM186.752 29.6495C186.227 29.7096 185.724 29.8954 185.286 30.1913L186.07 31.3513C186.321 31.1815 186.61 31.0749 186.911 31.0404L186.752 29.6495ZM185.179 30.2798C185.016 30.4453 184.918 30.6641 184.904 30.8961L186.301 30.9851C186.294 31.0897 186.25 31.1883 186.176 31.2628L185.179 30.2798ZM184.904 30.8961C184.889 31.128 184.958 31.3575 185.099 31.5424L186.213 30.6939C186.276 30.7772 186.307 30.8806 186.301 30.9851L184.904 30.8961ZM185.099 31.5424C185.24 31.7273 185.443 31.8551 185.67 31.9024L185.955 30.5317C186.058 30.553 186.149 30.6106 186.213 30.6939L185.099 31.5424ZM185.67 31.9024C185.898 31.9497 186.135 31.9133 186.338 31.7999L185.655 30.5779C185.746 30.5268 185.853 30.5104 185.955 30.5317L185.67 31.9024ZM186.38 31.7742C186.562 31.6547 186.77 31.5804 186.987 31.5576L186.84 30.1653C186.401 30.2116 185.981 30.3619 185.612 30.6036L186.38 31.7742ZM186.987 31.5576C187.203 31.5347 187.422 31.5639 187.625 31.6426L188.132 30.3374C187.721 30.178 187.278 30.119 186.84 30.1653L186.987 31.5576ZM187.639 31.6476C187.764 31.6932 187.897 31.7125 188.03 31.7042L187.942 30.307C188.002 30.3032 188.062 30.3119 188.119 30.3325L187.639 31.6476ZM188.03 31.7042C188.163 31.6959 188.292 31.6602 188.411 31.5994L187.771 30.3542C187.824 30.3268 187.882 30.3107 187.942 30.307L188.03 31.7042Z" fill="#407BFF" fill-opacity="0.2" mask="url(#path-167-inside-10_6108_15001)"/>
<path d="M201.947 36.6423C202.239 40.1554 203.107 46.5851 205.182 48.0699C205.182 48.0699 204.692 52.2923 197.228 53.3727C189.048 54.5791 192.72 49.8861 192.72 49.8861C197.022 48.1627 196.419 44.8683 195.186 41.8722L198.341 38.253C199.554 36.914 201.788 34.8459 201.947 36.6423Z" fill="#FFC3BD"/>
<path d="M197.178 53.0263L197.177 53.0265C195.148 53.3256 193.911 53.2488 193.184 53.0051C192.826 52.8851 192.607 52.7297 192.473 52.5726C192.341 52.4175 192.275 52.2408 192.255 52.0463C192.213 51.6386 192.378 51.165 192.586 50.7606C192.686 50.5648 192.79 50.398 192.869 50.2803C192.898 50.2376 192.923 50.2016 192.943 50.1733C195.119 49.2763 196.121 47.9502 196.374 46.4133C196.613 44.964 196.172 43.3916 195.591 41.94L198.603 38.4855C199.206 37.8202 200.04 37.0004 200.726 36.568C200.896 36.4613 201.046 36.3847 201.174 36.3392C201.304 36.2926 201.388 36.2869 201.435 36.2939C201.468 36.2989 201.487 36.3091 201.509 36.3411C201.54 36.3849 201.582 36.4815 201.599 36.6723C201.745 38.4366 202.037 40.9403 202.555 43.1951C202.814 44.3222 203.132 45.3979 203.522 46.2918C203.867 47.0844 204.284 47.77 204.796 48.2112C204.771 48.3122 204.729 48.4511 204.663 48.6182C204.514 48.9972 204.24 49.5226 203.742 50.084C202.751 51.2017 200.844 52.4957 197.178 53.0263ZM204.835 48.0279C204.835 48.0277 204.835 48.0276 204.835 48.0279L204.835 48.0279Z" stroke="#407BFF" stroke-opacity="0.2" stroke-width="0.7"/>
<path d="M207.852 49.7852C208.515 49.182 207.189 46.7692 206.374 46.4312C204.239 45.5363 195.509 46.4312 192.228 49.2483C191.956 49.7144 191.792 50.2355 191.747 50.7734C191.702 51.3113 191.778 51.8524 191.97 52.3571L207.852 49.7852Z" fill="white"/>
<path d="M207.668 49.1022C207.694 49.289 207.678 49.3999 207.655 49.4626L192.208 51.964C192.101 51.5874 192.063 51.194 192.096 50.8024C192.134 50.3359 192.273 49.8834 192.502 49.4754C194.075 48.1544 196.966 47.251 199.787 46.7932C201.201 46.5638 202.576 46.4497 203.725 46.4477C204.89 46.4456 205.774 46.5595 206.238 46.754L206.24 46.7545C206.359 46.8042 206.55 46.9607 206.769 47.2329C206.98 47.4937 207.187 47.823 207.352 48.1618C207.518 48.5032 207.631 48.8352 207.668 49.1022Z" stroke="#407BFF" stroke-opacity="0.2" stroke-width="0.7"/>
<mask id="path-173-inside-11_6108_15001" fill="white">
<path d="M235.655 226.971C235.44 227.07 235.207 227.124 234.97 227.131C234.733 227.137 234.498 227.097 234.277 227.011C234.189 226.942 234.125 226.848 234.093 226.741C234.061 226.634 234.063 226.52 234.098 226.415C234.115 226.328 234.152 226.246 234.204 226.175C234.257 226.104 234.325 226.046 234.403 226.004C235.118 225.586 236.888 226.136 236.961 226.163C236.985 226.169 237.007 226.183 237.024 226.202C237.04 226.22 237.051 226.244 237.054 226.269C237.057 226.295 237.053 226.322 237.041 226.345C237.029 226.369 237.011 226.388 236.988 226.401C236.564 226.636 236.118 226.827 235.655 226.971ZM234.688 226.163L234.535 226.229C234.49 226.254 234.451 226.288 234.42 226.329C234.389 226.37 234.367 226.417 234.356 226.468C234.31 226.706 234.403 226.779 234.429 226.799C234.747 227.024 235.828 226.7 236.577 226.322C235.966 226.13 235.321 226.076 234.688 226.163Z"/>
</mask>
<path d="M235.655 226.971C235.44 227.07 235.207 227.124 234.97 227.131C234.733 227.137 234.498 227.097 234.277 227.011C234.189 226.942 234.125 226.848 234.093 226.741C234.061 226.634 234.063 226.52 234.098 226.415C234.115 226.328 234.152 226.246 234.204 226.175C234.257 226.104 234.325 226.046 234.403 226.004C235.118 225.586 236.888 226.136 236.961 226.163C236.985 226.169 237.007 226.183 237.024 226.202C237.04 226.22 237.051 226.244 237.054 226.269C237.057 226.295 237.053 226.322 237.041 226.345C237.029 226.369 237.011 226.388 236.988 226.401C236.564 226.636 236.118 226.827 235.655 226.971ZM234.688 226.163L234.535 226.229C234.49 226.254 234.451 226.288 234.42 226.329C234.389 226.37 234.367 226.417 234.356 226.468C234.31 226.706 234.403 226.779 234.429 226.799C234.747 227.024 235.828 226.7 236.577 226.322C235.966 226.13 235.321 226.076 234.688 226.163Z" fill="#DADADA"/>
<path d="M235.655 226.971L235.447 226.303L235.405 226.316L235.365 226.334L235.655 226.971ZM234.277 227.011L233.842 227.56L233.925 227.626L234.024 227.664L234.277 227.011ZM234.098 226.415L234.762 226.634L234.775 226.595L234.784 226.554L234.098 226.415ZM234.403 226.004L234.735 226.62L234.745 226.614L234.755 226.608L234.403 226.004ZM236.961 226.163L236.722 226.821L236.752 226.831L236.782 226.84L236.961 226.163ZM237.054 226.269L236.359 226.356L236.36 226.359L237.054 226.269ZM236.988 226.401L237.327 227.014L237.332 227.011L236.988 226.401ZM234.688 226.163L234.593 225.469L234.497 225.482L234.409 225.521L234.688 226.163ZM234.535 226.229L234.256 225.587L234.228 225.599L234.201 225.614L234.535 226.229ZM234.356 226.468L233.672 226.319L233.671 226.327L233.669 226.334L234.356 226.468ZM234.429 226.799L234.009 227.359L234.017 227.365L234.024 227.37L234.429 226.799ZM236.577 226.322L236.892 226.947L238.431 226.17L236.786 225.654L236.577 226.322ZM235.365 226.334C235.235 226.394 235.093 226.427 234.95 226.431L234.99 227.83C235.32 227.821 235.645 227.745 235.946 227.608L235.365 226.334ZM234.95 226.431C234.806 226.435 234.664 226.41 234.53 226.359L234.024 227.664C234.331 227.783 234.66 227.84 234.99 227.83L234.95 226.431ZM234.711 226.462C234.736 226.482 234.755 226.509 234.764 226.54L233.423 226.942C233.496 227.186 233.642 227.402 233.842 227.56L234.711 226.462ZM234.764 226.54C234.773 226.571 234.772 226.603 234.762 226.634L233.433 226.195C233.353 226.437 233.35 226.698 233.423 226.942L234.764 226.54ZM234.784 226.554C234.781 226.568 234.775 226.581 234.767 226.592L233.642 225.758C233.528 225.911 233.45 226.088 233.412 226.275L234.784 226.554ZM234.767 226.592C234.758 226.604 234.747 226.613 234.735 226.62L234.07 225.387C233.902 225.478 233.756 225.605 233.642 225.758L234.767 226.592ZM234.755 226.608C234.784 226.592 234.889 226.554 235.112 226.548C235.32 226.543 235.563 226.567 235.81 226.607C236.309 226.689 236.727 226.822 236.722 226.821L237.2 225.505C237.122 225.476 236.619 225.321 236.036 225.226C235.742 225.178 235.404 225.141 235.077 225.149C234.764 225.157 234.379 225.207 234.05 225.399L234.755 226.608ZM236.782 226.84C236.672 226.81 236.572 226.749 236.497 226.663L237.551 225.741C237.442 225.617 237.299 225.528 237.14 225.486L236.782 226.84ZM236.497 226.663C236.422 226.576 236.374 226.47 236.359 226.356L237.749 226.181C237.728 226.018 237.659 225.864 237.551 225.741L236.497 226.663ZM236.36 226.359C236.345 226.247 236.365 226.133 236.415 226.032L237.667 226.658C237.741 226.51 237.77 226.343 237.748 226.178L236.36 226.359ZM236.415 226.032C236.466 225.931 236.545 225.847 236.644 225.792L237.332 227.011C237.476 226.929 237.593 226.807 237.667 226.658L236.415 226.032ZM236.648 225.789C236.266 226.001 235.864 226.173 235.447 226.303L235.864 227.64C236.372 227.481 236.862 227.271 237.327 227.014L236.648 225.789ZM234.409 225.521L234.256 225.587L234.814 226.871L234.967 226.805L234.409 225.521ZM234.201 225.614C234.067 225.686 233.951 225.787 233.86 225.909L234.98 226.749C234.95 226.788 234.912 226.821 234.869 226.844L234.201 225.614ZM233.86 225.909C233.768 226.031 233.704 226.171 233.672 226.319L235.04 226.616C235.03 226.664 235.009 226.709 234.98 226.749L233.86 225.909ZM233.669 226.334C233.627 226.552 233.633 226.774 233.718 226.981C233.806 227.197 233.947 227.313 234.009 227.359L234.849 226.239C234.857 226.245 234.891 226.271 234.927 226.311C234.962 226.352 234.992 226.399 235.013 226.45C235.056 226.555 235.039 226.622 235.043 226.601L233.669 226.334ZM234.024 227.37C234.297 227.563 234.619 227.578 234.814 227.572C235.04 227.566 235.281 227.523 235.51 227.466C235.97 227.352 236.476 227.156 236.892 226.947L236.262 225.697C235.928 225.865 235.52 226.021 235.173 226.107C234.998 226.151 234.862 226.17 234.773 226.173C234.652 226.177 234.72 226.147 234.834 226.228L234.024 227.37ZM236.786 225.654C236.078 225.431 235.329 225.368 234.593 225.469L234.783 226.856C235.314 226.783 235.855 226.829 236.367 226.99L236.786 225.654Z" fill="#407BFF" fill-opacity="0.2" mask="url(#path-173-inside-11_6108_15001)"/>
<mask id="path-175-inside-12_6108_15001" fill="white">
<path d="M236.955 226.406C236.934 226.412 236.911 226.412 236.889 226.406C236.226 226.273 234.841 225.445 234.768 224.821C234.758 224.723 234.782 224.625 234.836 224.542C234.891 224.46 234.972 224.399 235.066 224.371C235.158 224.33 235.257 224.309 235.358 224.309C235.458 224.309 235.558 224.33 235.65 224.371C236.419 224.689 237.015 226.174 237.035 226.233C237.048 226.253 237.055 226.276 237.055 226.3C237.055 226.323 237.048 226.346 237.035 226.366C237.026 226.378 237.014 226.388 237 226.395C236.986 226.402 236.971 226.406 236.955 226.406ZM235.232 224.596C235.213 224.59 235.192 224.59 235.172 224.596C235.02 224.662 235.027 224.742 235.033 224.775C235.073 225.146 236.014 225.816 236.684 226.061C236.485 225.63 236.021 224.795 235.55 224.596C235.448 224.557 235.334 224.557 235.232 224.596Z"/>
</mask>
<path d="M236.955 226.406C236.934 226.412 236.911 226.412 236.889 226.406C236.226 226.273 234.841 225.445 234.768 224.821C234.758 224.723 234.782 224.625 234.836 224.542C234.891 224.46 234.972 224.399 235.066 224.371C235.158 224.33 235.257 224.309 235.358 224.309C235.458 224.309 235.558 224.33 235.65 224.371C236.419 224.689 237.015 226.174 237.035 226.233C237.048 226.253 237.055 226.276 237.055 226.3C237.055 226.323 237.048 226.346 237.035 226.366C237.026 226.378 237.014 226.388 237 226.395C236.986 226.402 236.971 226.406 236.955 226.406ZM235.232 224.596C235.213 224.59 235.192 224.59 235.172 224.596C235.02 224.662 235.027 224.742 235.033 224.775C235.073 225.146 236.014 225.816 236.684 226.061C236.485 225.63 236.021 224.795 235.55 224.596C235.448 224.557 235.334 224.557 235.232 224.596Z" fill="#DADADA"/>
<path d="M236.955 226.406V225.706H236.85L236.75 225.737L236.955 226.406ZM236.889 226.406L237.095 225.737L237.061 225.726L237.026 225.719L236.889 226.406ZM234.768 224.821L234.072 224.896L234.073 224.903L234.768 224.821ZM235.066 224.371L235.27 225.04L235.312 225.028L235.351 225.01L235.066 224.371ZM235.65 224.371L235.364 225.01L235.373 225.014L235.382 225.018L235.65 224.371ZM237.035 226.233L236.371 226.455L236.401 226.544L236.453 226.622L237.035 226.233ZM237.055 226.3H237.755H237.055ZM237.035 226.366L237.595 226.786L237.606 226.771L237.617 226.755L237.035 226.366ZM235.232 224.596L235.035 225.268L235.262 225.334L235.483 225.25L235.232 224.596ZM235.172 224.596L234.975 223.924L234.933 223.937L234.893 223.954L235.172 224.596ZM235.033 224.775L235.729 224.7L235.726 224.669L235.72 224.638L235.033 224.775ZM236.684 226.061L236.443 226.718L238.026 227.298L237.319 225.768L236.684 226.061ZM235.55 224.596L235.823 223.951L235.812 223.947L235.801 223.943L235.55 224.596ZM236.75 225.737C236.862 225.702 236.982 225.702 237.095 225.737L236.683 227.075C236.839 227.123 237.006 227.123 237.161 227.075L236.75 225.737ZM237.026 225.719C236.823 225.679 236.4 225.493 236.004 225.221C235.814 225.09 235.66 224.959 235.558 224.845C235.441 224.715 235.456 224.68 235.463 224.74L234.073 224.903C234.116 225.274 234.332 225.577 234.516 225.781C234.715 226.002 234.963 226.204 235.211 226.374C235.691 226.705 236.292 227 236.752 227.092L237.026 225.719ZM235.464 224.747C235.471 224.811 235.455 224.875 235.42 224.929L234.252 224.156C234.108 224.374 234.044 224.636 234.072 224.896L235.464 224.747ZM235.42 224.929C235.384 224.982 235.332 225.022 235.27 225.04L234.862 223.701C234.612 223.777 234.397 223.938 234.252 224.156L235.42 224.929ZM235.351 225.01C235.353 225.009 235.356 225.009 235.358 225.009V223.609C235.159 223.609 234.963 223.65 234.781 223.731L235.351 225.01ZM235.358 225.009C235.36 225.009 235.362 225.009 235.364 225.01L235.935 223.731C235.753 223.65 235.557 223.609 235.358 223.609V225.009ZM235.382 225.018C235.436 225.04 235.534 225.106 235.665 225.253C235.789 225.393 235.911 225.569 236.021 225.756C236.246 226.136 236.378 226.477 236.371 226.455L237.699 226.012C237.672 225.93 237.496 225.499 237.226 225.042C237.088 224.81 236.915 224.552 236.711 224.322C236.512 224.099 236.248 223.861 235.917 223.724L235.382 225.018ZM236.453 226.622C236.389 226.527 236.355 226.414 236.355 226.3H237.755C237.755 226.138 237.707 225.979 237.617 225.844L236.453 226.622ZM236.355 226.3C236.355 226.185 236.389 226.073 236.453 225.977L237.617 226.755C237.707 226.62 237.755 226.462 237.755 226.3H236.355ZM236.475 225.946C236.531 225.871 236.604 225.811 236.687 225.769L237.313 227.021C237.424 226.966 237.52 226.885 237.595 226.786L236.475 225.946ZM236.687 225.769C236.77 225.727 236.862 225.706 236.955 225.706V227.106C237.08 227.106 237.202 227.077 237.313 227.021L236.687 225.769ZM235.429 223.924C235.281 223.881 235.123 223.881 234.975 223.924L235.369 225.268C235.26 225.3 235.144 225.3 235.035 225.268L235.429 223.924ZM234.893 223.954C234.725 224.027 234.535 224.155 234.42 224.379C234.301 224.611 234.329 224.822 234.347 224.912L235.72 224.638C235.731 224.695 235.752 224.85 235.666 225.017C235.585 225.176 235.467 225.231 235.451 225.238L234.893 223.954ZM234.337 224.85C234.371 225.17 234.565 225.421 234.688 225.56C234.834 225.726 235.015 225.884 235.201 226.024C235.569 226.302 236.031 226.568 236.443 226.718L236.924 225.404C236.666 225.309 236.324 225.118 236.044 224.906C235.905 224.802 235.802 224.708 235.74 224.636C235.653 224.538 235.715 224.566 235.729 224.7L234.337 224.85ZM237.319 225.768C237.208 225.527 237.023 225.172 236.794 224.842C236.587 224.544 236.257 224.135 235.823 223.951L235.278 225.241C235.276 225.24 235.287 225.245 235.311 225.262C235.335 225.28 235.366 225.306 235.402 225.343C235.477 225.417 235.559 225.519 235.644 225.641C235.814 225.886 235.96 226.164 236.048 226.354L237.319 225.768ZM235.801 223.943C235.537 223.841 235.245 223.841 234.981 223.943L235.483 225.25C235.424 225.272 235.358 225.272 235.299 225.25L235.801 223.943Z" fill="#407BFF" fill-opacity="0.2" mask="url(#path-175-inside-12_6108_15001)"/>
<mask id="path-177-inside-13_6108_15001" fill="white">
<path d="M196.801 234.089C196.092 234.089 195.409 233.989 195.177 233.671C195.118 233.588 195.086 233.488 195.086 233.386C195.086 233.284 195.118 233.184 195.177 233.101C195.221 233.024 195.281 232.957 195.351 232.904C195.422 232.85 195.502 232.811 195.588 232.79C196.51 232.544 198.445 233.645 198.525 233.691C198.549 233.703 198.569 233.722 198.582 233.746C198.595 233.771 198.599 233.798 198.594 233.825C198.59 233.852 198.577 233.877 198.557 233.896C198.537 233.915 198.512 233.926 198.485 233.93C197.93 234.033 197.366 234.087 196.801 234.089ZM195.926 233.015C195.841 233.012 195.756 233.023 195.674 233.048C195.568 233.072 195.475 233.136 195.416 233.227C195.323 233.393 195.356 233.472 195.416 233.519C195.674 233.877 197.073 233.883 198.067 233.737C197.407 233.361 196.68 233.115 195.926 233.015Z"/>
</mask>
<path d="M196.801 234.089C196.092 234.089 195.409 233.989 195.177 233.671C195.118 233.588 195.086 233.488 195.086 233.386C195.086 233.284 195.118 233.184 195.177 233.101C195.221 233.024 195.281 232.957 195.351 232.904C195.422 232.85 195.502 232.811 195.588 232.79C196.51 232.544 198.445 233.645 198.525 233.691C198.549 233.703 198.569 233.722 198.582 233.746C198.595 233.771 198.599 233.798 198.594 233.825C198.59 233.852 198.577 233.877 198.557 233.896C198.537 233.915 198.512 233.926 198.485 233.93C197.93 234.033 197.366 234.087 196.801 234.089ZM195.926 233.015C195.841 233.012 195.756 233.023 195.674 233.048C195.568 233.072 195.475 233.136 195.416 233.227C195.323 233.393 195.356 233.472 195.416 233.519C195.674 233.877 197.073 233.883 198.067 233.737C197.407 233.361 196.68 233.115 195.926 233.015Z" fill="#DADADA"/>
<path d="M196.801 234.089V234.789L196.804 234.789L196.801 234.089ZM195.177 233.671L194.608 234.078L194.612 234.084L195.177 233.671ZM195.086 233.386H195.786H195.086ZM195.177 233.101L195.747 233.508L195.767 233.48L195.784 233.45L195.177 233.101ZM195.588 232.79L195.761 233.468L195.768 233.466L195.588 232.79ZM198.525 233.691L198.172 234.296L198.196 234.31L198.222 234.322L198.525 233.691ZM198.485 233.93L198.403 233.234L198.38 233.237L198.356 233.242L198.485 233.93ZM195.926 233.015L196.019 232.321L195.986 232.317L195.954 232.315L195.926 233.015ZM195.674 233.048L195.827 233.731L195.855 233.725L195.882 233.716L195.674 233.048ZM195.416 233.227L194.83 232.844L194.817 232.864L194.805 232.885L195.416 233.227ZM195.416 233.519L195.983 233.109L195.925 233.028L195.846 232.966L195.416 233.519ZM198.067 233.737L198.169 234.43L200.177 234.135L198.414 233.129L198.067 233.737ZM196.801 233.389C196.472 233.389 196.181 233.365 195.963 233.316C195.712 233.26 195.701 233.202 195.743 233.259L194.612 234.084C194.885 234.458 195.332 234.609 195.657 234.682C196.016 234.763 196.421 234.789 196.801 234.789V233.389ZM195.747 233.264C195.772 233.3 195.786 233.342 195.786 233.386H194.386C194.386 233.634 194.463 233.876 194.608 234.078L195.747 233.264ZM195.786 233.386C195.786 233.43 195.772 233.472 195.747 233.508L194.608 232.694C194.463 232.896 194.386 233.138 194.386 233.386H195.786ZM195.784 233.45C195.781 233.455 195.778 233.459 195.774 233.462L194.928 232.346C194.783 232.456 194.662 232.594 194.571 232.752L195.784 233.45ZM195.774 233.462C195.77 233.464 195.766 233.467 195.761 233.468L195.416 232.111C195.239 232.156 195.073 232.236 194.928 232.346L195.774 233.462ZM195.768 233.466C195.836 233.448 195.997 233.442 196.273 233.504C196.531 233.561 196.822 233.661 197.106 233.778C197.388 233.894 197.648 234.019 197.843 234.119C197.94 234.169 198.021 234.212 198.078 234.243C198.107 234.259 198.129 234.272 198.146 234.281C198.154 234.285 198.16 234.289 198.165 234.292C198.17 234.295 198.172 234.296 198.172 234.296L198.877 233.086C198.822 233.054 198.288 232.75 197.638 232.483C197.314 232.35 196.942 232.218 196.576 232.137C196.227 232.059 195.801 232.008 195.408 232.113L195.768 233.466ZM198.222 234.322C198.11 234.268 198.018 234.18 197.961 234.069L199.203 233.424C199.121 233.265 198.989 233.137 198.827 233.06L198.222 234.322ZM197.961 234.069C197.903 233.959 197.884 233.833 197.904 233.71L199.285 233.94C199.314 233.764 199.286 233.583 199.203 233.424L197.961 234.069ZM197.904 233.71C197.924 233.587 197.984 233.475 198.074 233.389L199.04 234.402C199.169 234.279 199.255 234.117 199.285 233.94L197.904 233.71ZM198.074 233.389C198.164 233.303 198.279 233.249 198.403 233.234L198.567 234.625C198.745 234.604 198.911 234.526 199.04 234.402L198.074 233.389ZM198.356 233.242C197.843 233.337 197.321 233.387 196.799 233.389L196.804 234.789C197.411 234.786 198.017 234.729 198.613 234.618L198.356 233.242ZM195.954 232.315C195.789 232.309 195.624 232.331 195.467 232.38L195.882 233.716C195.887 233.715 195.893 233.714 195.899 233.714L195.954 232.315ZM195.522 232.365C195.238 232.428 194.989 232.6 194.83 232.844L196.002 233.61C195.961 233.672 195.899 233.715 195.827 233.731L195.522 232.365ZM194.805 232.885C194.726 233.027 194.64 233.234 194.661 233.48C194.687 233.763 194.842 233.959 194.986 234.071L195.846 232.966C195.882 232.994 195.933 233.042 195.976 233.114C196.022 233.189 196.049 233.272 196.056 233.355C196.07 233.508 196.013 233.593 196.027 233.569L194.805 232.885ZM194.848 233.929C195.065 234.228 195.412 234.346 195.619 234.401C195.866 234.467 196.149 234.5 196.427 234.516C196.986 234.547 197.632 234.509 198.169 234.43L197.966 233.045C197.508 233.112 196.958 233.143 196.505 233.118C196.276 233.105 196.098 233.08 195.979 233.048C195.82 233.006 195.896 232.988 195.983 233.109L194.848 233.929ZM198.414 233.129C197.675 232.708 196.862 232.433 196.019 232.321L195.834 233.709C196.498 233.797 197.139 234.013 197.72 234.345L198.414 233.129Z" fill="#407BFF" fill-opacity="0.2" mask="url(#path-177-inside-13_6108_15001)"/>
<mask id="path-179-inside-14_6108_15001" fill="white">
<path d="M198.471 233.937H198.418C197.755 233.639 196.429 232.439 196.529 231.816C196.529 231.67 196.661 231.484 197.019 231.451C197.149 231.437 197.28 231.449 197.404 231.488C197.529 231.527 197.643 231.591 197.742 231.677C198.451 232.253 198.597 233.745 198.603 233.804C198.607 233.827 198.604 233.851 198.595 233.872C198.585 233.893 198.57 233.911 198.55 233.924C198.526 233.937 198.498 233.941 198.471 233.937ZM197.145 231.696H197.066C196.827 231.696 196.814 231.816 196.807 231.842C196.747 232.22 197.649 233.168 198.325 233.572C198.267 232.94 198.012 232.342 197.596 231.862C197.472 231.752 197.311 231.693 197.145 231.696Z"/>
</mask>
<path d="M198.471 233.937H198.418C197.755 233.639 196.429 232.439 196.529 231.816C196.529 231.67 196.661 231.484 197.019 231.451C197.149 231.437 197.28 231.449 197.404 231.488C197.529 231.527 197.643 231.591 197.742 231.677C198.451 232.253 198.597 233.745 198.603 233.804C198.607 233.827 198.604 233.851 198.595 233.872C198.585 233.893 198.57 233.911 198.55 233.924C198.526 233.937 198.498 233.941 198.471 233.937ZM197.145 231.696H197.066C196.827 231.696 196.814 231.816 196.807 231.842C196.747 232.22 197.649 233.168 198.325 233.572C198.267 232.94 198.012 232.342 197.596 231.862C197.472 231.752 197.311 231.693 197.145 231.696Z" fill="#DADADA"/>
<path d="M198.471 233.937L198.583 233.246L198.527 233.237H198.471V233.937ZM198.418 233.937L198.131 234.575L198.268 234.637H198.418V233.937ZM196.529 231.816L197.22 231.926L197.229 231.871V231.816H196.529ZM197.019 231.451L197.084 232.148L197.097 232.147L197.019 231.451ZM197.742 231.677L197.282 232.205L197.291 232.212L197.3 232.22L197.742 231.677ZM198.603 233.804L197.908 233.882L197.91 233.899L197.912 233.916L198.603 233.804ZM198.55 233.924L198.881 234.541L198.906 234.527L198.93 234.512L198.55 233.924ZM197.145 231.696V232.397L197.158 232.396L197.145 231.696ZM196.807 231.842L196.128 231.672L196.121 231.702L196.116 231.733L196.807 231.842ZM198.325 233.572L197.966 234.173L199.147 234.88L199.022 233.509L198.325 233.572ZM197.596 231.862L198.125 231.403L198.094 231.368L198.059 231.337L197.596 231.862ZM198.471 233.237H198.418V234.637H198.471V233.237ZM198.705 233.299C198.484 233.199 198.058 232.891 197.69 232.511C197.512 232.327 197.375 232.154 197.292 232.013C197.193 231.845 197.235 231.833 197.22 231.926L195.837 231.705C195.773 232.11 195.943 232.482 196.086 232.723C196.244 232.992 196.461 233.254 196.685 233.485C197.121 233.935 197.689 234.376 198.131 234.575L198.705 233.299ZM197.229 231.816C197.229 231.958 197.164 232.062 197.103 232.116C197.043 232.169 197.013 232.155 197.084 232.148L196.955 230.754C196.381 230.807 195.829 231.18 195.829 231.816H197.229ZM197.097 232.147C197.13 232.143 197.164 232.146 197.196 232.156L197.613 230.82C197.396 230.752 197.167 230.73 196.941 230.755L197.097 232.147ZM197.196 232.156C197.228 232.166 197.257 232.183 197.282 232.205L198.201 231.148C198.03 230.999 197.829 230.887 197.613 230.82L197.196 232.156ZM197.3 232.22C197.475 232.362 197.642 232.692 197.762 233.122C197.872 233.517 197.905 233.857 197.908 233.882L199.299 233.727C199.299 233.728 199.299 233.728 199.299 233.726C199.299 233.725 199.299 233.722 199.298 233.72C199.298 233.715 199.297 233.708 199.296 233.699C199.294 233.682 199.292 233.659 199.288 233.632C199.281 233.577 199.271 233.503 199.257 233.415C199.228 233.24 199.182 233.004 199.11 232.747C198.978 232.272 198.718 231.568 198.183 231.133L197.3 232.22ZM197.912 233.916C197.894 233.805 197.909 233.69 197.955 233.588L199.234 234.156C199.299 234.011 199.32 233.85 199.294 233.692L197.912 233.916ZM197.955 233.588C198.001 233.484 198.076 233.397 198.171 233.336L198.93 234.512C199.064 234.425 199.17 234.302 199.234 234.156L197.955 233.588ZM198.22 233.306C198.331 233.247 198.458 233.226 198.583 233.246L198.359 234.628C198.538 234.657 198.721 234.626 198.881 234.541L198.22 233.306ZM197.145 230.996H197.066V232.396H197.145V230.996ZM197.066 230.996C196.835 230.996 196.569 231.055 196.361 231.258C196.159 231.455 196.12 231.703 196.128 231.672L197.486 232.012C197.502 231.949 197.484 232.024 197.468 232.066C197.444 232.125 197.404 232.196 197.338 232.26C197.198 232.397 197.058 232.396 197.066 232.396V230.996ZM196.116 231.733C196.085 231.929 196.123 232.103 196.161 232.223C196.202 232.349 196.26 232.466 196.32 232.568C196.439 232.772 196.601 232.978 196.771 233.167C197.109 233.541 197.556 233.928 197.966 234.173L198.684 232.972C198.418 232.812 198.076 232.523 197.81 232.228C197.677 232.082 197.583 231.955 197.528 231.862C197.501 231.816 197.494 231.793 197.494 231.794C197.494 231.795 197.498 231.808 197.501 231.832C197.504 231.856 197.507 231.898 197.499 231.951L196.116 231.733ZM199.022 233.509C198.951 232.73 198.637 231.994 198.125 231.403L197.067 232.321C197.387 232.69 197.584 233.15 197.628 233.636L199.022 233.509ZM198.059 231.337C197.804 231.112 197.473 230.99 197.132 230.997L197.158 232.396C197.149 232.396 197.14 232.393 197.133 232.387L198.059 231.337Z" fill="#407BFF" fill-opacity="0.2" mask="url(#path-179-inside-14_6108_15001)"/>
<path d="M204.554 233.802H199.019L198.469 220.996H204.004L204.554 233.802Z" fill="#FFC3BD"/>
<path d="M203.668 221.346L204.188 233.452H199.354L198.834 221.346H203.668Z" stroke="#407BFF" stroke-opacity="0.2" stroke-width="0.7"/>
<path d="M243.442 225.059L238.344 226.815L233.055 214.745L238.152 212.988L243.442 225.059Z" fill="#FFC3BD"/>
<path d="M237.961 213.424L242.969 224.852L238.535 226.379L233.528 214.952L237.961 213.424Z" stroke="#407BFF" stroke-opacity="0.2" stroke-width="0.7"/>
<path d="M237.125 225.547L243.091 223.724C243.196 223.692 243.309 223.697 243.412 223.738C243.514 223.779 243.6 223.854 243.654 223.95L246.14 228.325C246.199 228.432 246.234 228.551 246.241 228.673C246.249 228.795 246.228 228.918 246.182 229.031C246.135 229.144 246.064 229.246 245.973 229.328C245.882 229.41 245.773 229.47 245.656 229.504C243.568 230.108 242.527 230.293 239.915 231.095C238.305 231.586 234.248 233.124 231.961 233.581C229.674 234.038 228.939 231.851 229.827 231.46C233.804 229.703 235.435 227.708 236.382 226.157C236.548 225.871 236.812 225.654 237.125 225.547Z" fill="#263238"/>
<path d="M243.193 224.059L243.193 224.059C243.222 224.05 243.254 224.051 243.282 224.063C243.31 224.074 243.334 224.095 243.349 224.121L243.35 224.123L245.834 228.495C245.834 228.495 245.834 228.496 245.835 228.496C245.868 228.557 245.888 228.624 245.892 228.694C245.896 228.764 245.885 228.834 245.858 228.898C245.832 228.963 245.791 229.021 245.739 229.068C245.687 229.114 245.625 229.149 245.558 229.168C244.704 229.415 244.028 229.591 243.342 229.77C243.193 229.808 243.045 229.847 242.893 229.887C242.043 230.11 241.125 230.358 239.813 230.761C239.318 230.912 238.589 231.162 237.758 231.447C237.229 231.629 236.659 231.825 236.081 232.019C234.578 232.522 233.011 233.014 231.893 233.238C230.876 233.441 230.268 233.055 229.995 232.645C229.852 232.43 229.8 232.211 229.813 232.048C229.825 231.891 229.891 231.814 229.968 231.78L229.968 231.78C234.015 229.993 235.698 227.948 236.681 226.34L236.681 226.34L236.686 226.332C236.808 226.12 237.002 225.96 237.233 225.88L243.193 224.059Z" stroke="#407BFF" stroke-opacity="0.2" stroke-width="0.7"/>
<path d="M199.064 233.16H205.103C205.212 233.162 205.318 233.2 205.403 233.268C205.489 233.337 205.548 233.432 205.574 233.538L206.667 238.456C206.694 238.575 206.694 238.698 206.667 238.817C206.639 238.935 206.585 239.046 206.508 239.141C206.432 239.235 206.335 239.311 206.224 239.362C206.114 239.414 205.994 239.439 205.872 239.437C203.691 239.404 200.569 239.272 197.805 239.272C194.603 239.272 193.258 239.451 189.499 239.451C187.232 239.451 186.603 237.157 187.551 236.945C191.879 235.997 193.994 235.898 197.732 233.591C198.128 233.328 198.589 233.179 199.064 233.16Z" fill="#263238"/>
<path d="M206.326 238.532L206.326 238.535C206.341 238.601 206.341 238.671 206.326 238.738C206.31 238.804 206.28 238.867 206.237 238.92C206.193 238.973 206.139 239.016 206.077 239.045C206.014 239.074 205.946 239.089 205.878 239.087L205.877 239.087C205.071 239.075 204.127 239.049 203.118 239.021C201.421 238.974 199.538 238.922 197.805 238.922C196.262 238.922 195.147 238.963 193.993 239.006C193.945 239.008 193.897 239.01 193.848 239.011C192.643 239.056 191.372 239.101 189.499 239.101C188.496 239.101 187.89 238.599 187.628 238.112C187.493 237.861 187.458 237.632 187.482 237.481C187.504 237.343 187.561 237.301 187.626 237.287C188.376 237.123 189.062 236.984 189.703 236.854C192.738 236.239 194.777 235.826 197.916 233.889L197.916 233.889L197.925 233.883C198.267 233.657 198.663 233.528 199.072 233.51H205.1C205.131 233.511 205.16 233.522 205.184 233.541C205.208 233.56 205.225 233.587 205.233 233.617C205.233 233.617 205.233 233.618 205.233 233.618L206.326 238.532Z" stroke="#407BFF" stroke-opacity="0.2" stroke-width="0.7"/>
<path d="M215.134 51.5977C216.745 53.0758 218.137 54.554 219.582 56.0984C221.027 57.6429 222.366 59.2404 223.665 60.9439C225.022 62.6746 226.254 64.4998 227.351 66.4058C227.95 67.4564 228.469 68.5511 228.902 69.6803C229.015 69.9919 229.127 70.2902 229.22 70.6282C229.329 70.9702 229.419 71.3175 229.492 71.6689L229.604 72.2191L229.684 72.8289C229.758 73.3877 229.758 73.9538 229.684 74.5126C229.532 75.5673 229.142 76.5737 228.544 77.4556C228.107 78.0997 227.596 78.6894 227.019 79.2122C226.093 80.0528 225.08 80.7927 223.997 81.4195C222.089 82.5106 220.094 83.4397 218.031 84.1969C214.118 85.6494 210.086 86.7583 205.98 87.5112L204.82 83.534C208.42 81.9763 212.065 80.2927 215.426 78.4963C217.062 77.6381 218.637 76.6681 220.139 75.593C220.765 75.1484 221.34 74.6373 221.856 74.0685C222.012 73.9003 222.144 73.7105 222.247 73.505C222.3 73.3923 222.247 73.4056 222.18 73.6442C222.134 74.0883 222.141 73.7437 222.035 73.505C222.002 73.3923 221.942 73.2399 221.882 73.0941C221.823 72.9482 221.75 72.7825 221.677 72.6234C221.318 71.9005 220.917 71.1989 220.477 70.5222C219.453 69.0022 218.347 67.5395 217.163 66.1407C215.943 64.6957 214.657 63.2573 213.338 61.8454C212.019 60.4335 210.634 59.0084 209.361 57.6959L215.134 51.5977Z" fill="#FFC3BD"/>
<path d="M228.886 70.7342C228.991 71.0644 229.079 71.3998 229.149 71.7391L222.523 73.7325C222.536 73.709 222.548 73.6854 222.56 73.6616L222.56 73.6616L222.563 73.6541C222.58 73.619 222.606 73.5585 222.615 73.4919C222.617 73.4753 222.622 73.4324 222.613 73.3797C222.608 73.3476 222.57 73.1654 222.372 73.1028C222.33 73.0898 222.292 73.0853 222.256 73.0863C222.24 73.0438 222.223 73.0018 222.206 72.9615C222.144 72.8099 222.069 72.6395 221.995 72.4776L221.995 72.4775L221.99 72.4677C221.625 71.7327 221.218 71.0194 220.77 70.3314L220.77 70.3314L220.767 70.3267C219.736 68.7962 218.622 67.3234 217.43 65.915C216.206 64.4648 214.916 63.022 213.594 61.6065C212.352 60.2778 211.053 58.9377 209.846 57.693L215.151 52.0894C216.645 53.4798 217.958 54.8747 219.327 56.3376C220.763 57.8727 222.094 59.4611 223.387 61.1562L223.387 61.1562L223.39 61.1599C224.736 62.8771 225.958 64.6883 227.047 66.5795C227.637 67.6136 228.147 68.691 228.574 69.8026C228.588 69.8405 228.601 69.878 228.615 69.9151C228.714 70.187 228.805 70.439 228.883 70.7209L228.882 70.721L228.886 70.7342Z" stroke="#407BFF" stroke-opacity="0.2" stroke-width="0.7"/>
<path d="M206.342 82.9023L201.125 84.4799L204.479 89.9949C204.479 89.9949 207.561 88.7222 208.244 86.1039L206.342 82.9023Z" fill="#FFC3BD"/>
<path d="M204.806 89.4465C204.736 89.4841 204.672 89.5171 204.615 89.5453L201.659 84.6841L206.181 83.3167L207.867 86.1538C207.525 87.2855 206.69 88.152 205.895 88.7518C205.485 89.0612 205.094 89.2926 204.806 89.4465Z" stroke="#407BFF" stroke-opacity="0.2" stroke-width="0.7"/>
<path d="M199.016 86.4359L201.07 90.9831L204.444 90.0021L201.09 84.4805L199.016 86.4359Z" fill="#FFC3BD"/>
<path d="M201.264 90.5622L199.437 86.5193L201.016 85.0318L203.908 89.7935L201.264 90.5622Z" stroke="#407BFF" stroke-opacity="0.2" stroke-width="0.7"/>
<path d="M202.914 53.0949C202.417 58.3977 213.633 66.6038 213.633 66.6038L224.431 59.213C222.556 55.7548 219.815 52.8427 216.476 50.7616C210.285 46.7977 203.538 46.5061 202.914 53.0949Z" fill="#DADADA"/>
<path d="M216.288 51.0564L216.288 51.0564L216.291 51.0586C219.489 53.052 222.13 55.8198 223.971 59.1037L213.642 66.1737C213.568 66.1183 213.475 66.0478 213.365 65.9633C213.062 65.7304 212.628 65.3913 212.11 64.9677C211.071 64.12 209.694 62.9362 208.333 61.5892C206.971 60.2405 205.635 58.7377 204.673 57.2525C203.704 55.7564 203.15 54.3331 203.263 53.1277C203.413 51.54 203.928 50.4047 204.676 49.6377C205.424 48.871 206.437 48.4404 207.643 48.3192C210.07 48.0752 213.225 49.0953 216.288 51.0564Z" stroke="#407BFF" stroke-opacity="0.2" stroke-width="0.7"/>
<g opacity="0.3">
<path d="M202.907 53.0949C202.41 58.3977 213.625 66.6038 213.625 66.6038L224.423 59.213C222.548 55.7548 219.807 52.8427 216.469 50.7616C210.278 46.7977 203.53 46.5061 202.907 53.0949Z" fill="white"/>
<path d="M216.28 51.0564L216.28 51.0564L216.284 51.0586C219.481 53.052 222.122 55.8198 223.963 59.1037L213.634 66.1737C213.56 66.1183 213.467 66.0478 213.357 65.9633C213.054 65.7304 212.621 65.3913 212.102 64.9677C211.064 64.12 209.686 62.9362 208.326 61.5892C206.963 60.2405 205.628 58.7377 204.665 57.2525C203.696 55.7564 203.142 54.3331 203.255 53.1277C203.405 51.54 203.92 50.4047 204.668 49.6377C205.417 48.871 206.429 48.4404 207.635 48.3192C210.063 48.0752 213.217 49.0953 216.28 51.0564Z" stroke="#407BFF" stroke-opacity="0.2" stroke-width="0.7"/>
</g>
<path d="M184.56 52.6689C184.56 52.6689 179.714 60.1062 191.221 99.9968L220.48 95.675C220.069 91.6316 215.177 73.993 215.011 54.7105C215.004 53.7793 214.809 52.8592 214.437 52.0056C214.065 51.152 213.523 50.3827 212.846 49.744C212.168 49.1053 211.368 48.6106 210.494 48.2896C209.62 47.9687 208.689 47.8281 207.759 47.8765C206.911 47.9229 206.036 47.9825 205.168 48.0687C200.991 48.4411 196.839 49.0542 192.733 49.9048C189.941 50.615 187.209 51.5391 184.56 52.6689Z" fill="#DADADA"/>
<path d="M184.855 52.8573L184.854 52.8574L184.855 52.8573ZM184.7 53.1939C184.744 53.0802 184.782 52.998 184.809 52.9433C187.404 51.8432 190.079 50.9415 192.811 50.246C196.902 49.3989 201.038 48.7883 205.199 48.4173L205.199 48.4174L205.202 48.417C206.064 48.3315 206.933 48.2722 207.778 48.226C208.661 48.1801 209.543 48.3136 210.373 48.6182C211.203 48.9228 211.962 49.3925 212.606 49.9987C213.249 50.6049 213.763 51.3352 214.116 52.1455C214.469 52.9557 214.655 53.8292 214.661 54.7131L214.661 54.7135C214.744 64.3817 216.012 73.633 217.309 80.9683C217.957 84.6363 218.613 87.8271 219.132 90.3506C219.6 92.6246 219.952 94.3368 220.092 95.3785L191.473 99.6058C185.792 79.8534 184.15 68.1347 183.925 61.3623C183.812 57.9602 184.057 55.8127 184.325 54.5255C184.459 53.8823 184.598 53.455 184.7 53.1939Z" stroke="#407BFF" stroke-opacity="0.2" stroke-width="0.7"/>
<g opacity="0.3">
<path d="M184.56 52.6728C184.56 52.6728 179.714 60.1101 191.221 100.001L220.48 95.6789C220.069 91.6355 215.177 73.9969 215.011 54.7144C215.004 53.7832 214.809 52.8631 214.437 52.0095C214.065 51.1559 213.523 50.3866 212.846 49.7479C212.168 49.1092 211.368 48.6145 210.494 48.2935C209.62 47.9726 208.689 47.832 207.759 47.8804C206.911 47.9268 206.036 47.9865 205.168 48.0726C200.991 48.445 196.839 49.0581 192.733 49.9087C189.941 50.6189 187.209 51.543 184.56 52.6728Z" fill="white"/>
<path d="M184.855 52.8612L184.854 52.8613L184.855 52.8612ZM184.7 53.1978C184.744 53.0841 184.782 53.0019 184.809 52.9473C187.404 51.8471 190.079 50.9454 192.811 50.2499C196.902 49.4028 201.038 48.7922 205.199 48.4212L205.199 48.4213L205.202 48.4209C206.064 48.3354 206.933 48.2761 207.778 48.2299C208.661 48.1841 209.543 48.3175 210.373 48.6221C211.203 48.9267 211.962 49.3964 212.606 50.0026C213.249 50.6088 213.763 51.3391 214.116 52.1494C214.469 52.9596 214.655 53.8331 214.661 54.717L214.661 54.7174C214.744 64.3856 216.012 73.6369 217.309 80.9722C217.957 84.6402 218.613 87.831 219.132 90.3545C219.6 92.6285 219.952 94.3407 220.092 95.3824L191.473 99.6097C185.792 79.8573 184.15 68.1386 183.925 61.3662C183.812 57.9641 184.057 55.8166 184.325 54.5294C184.459 53.8862 184.598 53.4589 184.7 53.1978Z" stroke="#407BFF" stroke-opacity="0.2" stroke-width="0.7"/>
</g>
<g opacity="0.2">
<path d="M183.836 65.4877L183.935 65.375L190.816 65.9848C191.863 70.426 188.032 76.4845 186.01 79.295C185.037 74.7351 184.311 70.126 183.836 65.4877Z" fill="black"/>
<path d="M186.187 78.4362C185.32 74.2433 184.661 70.0097 184.215 65.7512L190.527 66.3106C190.92 68.3656 190.274 70.7986 189.244 73.1088C188.333 75.1532 187.141 77.055 186.187 78.4362Z" stroke="#407BFF" stroke-opacity="0.2" stroke-width="0.7"/>
</g>
<g opacity="0.2">
<path d="M198.469 221.004L198.754 227.606H204.289L204.004 221.004H198.469Z" fill="black"/>
<path d="M199.089 227.256L198.834 221.354H203.668L203.923 227.256H199.089Z" stroke="#407BFF" stroke-opacity="0.2" stroke-width="0.7"/>
</g>
<g opacity="0.2">
<path d="M238.152 212.988L233.055 214.745L235.786 220.969L240.883 219.212L238.152 212.988Z" fill="black"/>
<path d="M240.41 219.005L235.977 220.533L233.528 214.952L237.961 213.424L240.41 219.005Z" stroke="#407BFF" stroke-opacity="0.2" stroke-width="0.7"/>
</g>
<path d="M201.221 28.7146C202.441 34.0638 203.422 37.1329 201.559 40.646C198.762 45.8759 191.564 45.3721 188.773 40.4935C186.261 36.0988 184.683 28.0915 189.217 24.4856C190.211 23.6878 191.391 23.1567 192.647 22.9425C193.904 22.7283 195.194 22.8381 196.395 23.2615C197.597 23.6849 198.671 24.4079 199.516 25.3621C200.36 26.3163 200.947 27.4702 201.221 28.7146Z" fill="#FFC3BD"/>
<path d="M189.077 40.3198C187.846 38.1662 186.841 35.1192 186.702 32.1773C186.563 29.2312 187.292 26.4635 189.435 24.7595L189.435 24.7595L189.436 24.7585C190.383 23.998 191.509 23.4917 192.706 23.2875C193.904 23.0834 195.133 23.188 196.279 23.5916C197.425 23.9952 198.449 24.6845 199.254 25.5941C200.059 26.5037 200.618 27.6037 200.88 28.7899L200.88 28.7899L200.88 28.7924C200.989 29.2682 201.095 29.7246 201.197 30.1638C202.254 34.713 202.88 37.4069 201.251 40.4814C198.604 45.4288 191.754 44.9993 189.077 40.3198ZM189.077 40.3198L188.773 40.4935M189.077 40.3198L188.773 40.4935M188.773 40.4935C191.564 45.3721 198.762 45.8759 201.559 40.646L201.221 28.7146C200.947 27.4702 200.36 26.3163 199.516 25.3621C198.671 24.4079 197.597 23.6849 196.395 23.2615C195.194 22.8381 193.904 22.7283 192.647 22.9425C191.391 23.1567 190.211 23.6878 189.217 24.4856C184.683 28.0915 186.261 36.0988 188.773 40.4935Z" stroke="#407BFF" stroke-opacity="0.2" stroke-width="0.7"/>
<path d="M190.481 33.9601L188.446 35.2062L188.639 28.2462C187.327 28.3026 186.032 27.9278 184.953 27.179C185.689 26.4764 197.143 22.4661 200.716 23.1621C201.087 23.0097 201.538 22.3203 201.538 22.3203C201.538 22.3203 201.677 23.1887 201.074 23.5201C201.511 23.4339 202.605 23.646 202.91 24.289C202.408 24.1519 201.875 24.1822 201.392 24.3752C201.392 24.3752 205.369 24.9784 203.957 30.4933C202.373 36.5717 202.897 40.0649 202.897 40.0649C202.897 40.0649 199.94 42.3518 197.368 41.9276C194.624 38.905 190.66 35.2725 190.481 33.9601Z" fill="#263238"/>
<path d="M190.828 33.9128L190.756 33.3816L190.299 33.6616L188.814 34.5706L188.988 28.2559L188.999 27.8804L188.624 27.8966C187.577 27.9415 186.542 27.6952 185.633 27.1904C185.696 27.1604 185.764 27.1288 185.839 27.0954C186.22 26.9239 186.735 26.7152 187.347 26.4847C188.572 26.024 190.176 25.4812 191.87 24.9818C193.564 24.4822 195.341 24.0278 196.912 23.7417C198.498 23.4529 199.826 23.3454 200.649 23.5057L200.752 23.5257L200.849 23.4859C200.894 23.4673 200.938 23.4447 200.98 23.4196L201.141 23.8635C201.255 23.8411 201.483 23.8479 201.738 23.9084C201.577 23.9409 201.417 23.9882 201.262 24.0501L200.066 24.528L201.338 24.721L201.338 24.7211L201.339 24.7211L201.339 24.7211L201.339 24.7212L201.343 24.7218C201.348 24.7227 201.356 24.7242 201.368 24.7265C201.391 24.7311 201.426 24.7389 201.473 24.7508C201.566 24.7748 201.701 24.8152 201.859 24.8798C202.178 25.0094 202.586 25.2333 202.953 25.6103C203.667 26.3432 204.301 27.7376 203.618 30.4059C202.82 33.4698 202.551 35.8873 202.483 37.5442C202.449 38.3726 202.465 39.0107 202.49 39.4443C202.501 39.6389 202.514 39.7922 202.525 39.9031C202.445 39.9601 202.336 40.0354 202.203 40.1228C201.894 40.3247 201.457 40.5895 200.943 40.8409C199.936 41.3333 198.688 41.7478 197.543 41.5996C196.767 40.7487 195.89 39.8425 195.035 38.9602C194.4 38.3039 193.777 37.6608 193.218 37.0634C192.542 36.3403 191.954 35.6788 191.525 35.1204C191.31 34.8412 191.14 34.594 191.021 34.3826C190.898 34.1657 190.842 34.0113 190.828 33.9128Z" stroke="#407BFF" stroke-opacity="0.2" stroke-width="0.7"/>
<path d="M186.584 26.6272C183.356 26.6272 182.196 25.0496 181.367 23.7239C183.687 23.4786 188.519 21.9872 192.105 21.7353C195.691 21.4834 199.622 22.1529 198.436 23.7239C197.249 25.2948 186.584 26.6272 186.584 26.6272Z" fill="#263238"/>
<path d="M181.963 23.9978C182.892 23.8537 184.08 23.5843 185.362 23.2938C185.682 23.2212 186.009 23.1472 186.338 23.0736C188.286 22.6383 190.366 22.2083 192.13 22.0844C193.901 21.96 195.739 22.0654 196.973 22.3848C197.602 22.5479 198.009 22.7509 198.194 22.9521C198.277 23.0427 198.301 23.1163 198.301 23.179C198.302 23.2472 198.275 23.3563 198.156 23.5129C198.064 23.6356 197.837 23.7985 197.439 23.9818C197.056 24.1587 196.559 24.3341 195.984 24.5047C194.834 24.8455 193.403 25.1567 192 25.4207C190.599 25.6842 189.234 25.8991 188.218 26.0481C187.71 26.1226 187.291 26.1806 186.998 26.22C186.851 26.2396 186.737 26.2546 186.659 26.2647L186.57 26.2761L186.562 26.2771C185.021 26.2736 184.003 25.8968 183.277 25.3863C182.712 24.9893 182.306 24.5 181.963 23.9978Z" stroke="#407BFF" stroke-opacity="0.2" stroke-width="0.7"/>
<path d="M187.296 25.1889C184.645 24.8177 182.06 22.3187 184.048 19.9258C184.784 21.6823 189.749 21.4769 193.275 20.7411C197.915 19.7733 201.13 21.3377 199.486 24.4995C198.584 26.2295 187.296 25.1889 187.296 25.1889Z" fill="#263238"/>
<path d="M183.694 21.7029C183.691 21.3365 183.791 20.9447 184.037 20.5392C184.326 20.8495 184.735 21.0708 185.19 21.2284C185.859 21.4603 186.697 21.5789 187.6 21.6177C189.41 21.6955 191.563 21.4559 193.346 21.0837C195.632 20.607 197.495 20.7722 198.565 21.3765C199.09 21.6727 199.407 22.0633 199.522 22.5264C199.638 22.9949 199.561 23.5966 199.176 24.3377C199.129 24.4271 198.97 24.5629 198.589 24.6952C198.227 24.8206 197.74 24.9181 197.158 24.9897C195.997 25.1325 194.521 25.1649 193.058 25.143C191.599 25.1211 190.166 25.0455 189.097 24.9752C188.563 24.94 188.12 24.9063 187.811 24.8813C187.657 24.8688 187.536 24.8586 187.453 24.8514L187.36 24.8432L187.336 24.8411C186.092 24.6647 184.876 23.9888 184.212 23.1052C183.882 22.6667 183.697 22.1894 183.694 21.7029Z" stroke="#407BFF" stroke-opacity="0.2" stroke-width="0.7"/>
<path d="M193.344 32.3732C193.724 33.6821 193.663 35.0793 193.172 36.3504C192.509 38.0141 191.037 37.6761 190.268 36.2377C189.606 34.912 189.102 32.5058 190.229 31.3061C191.355 30.1063 192.867 30.8023 193.344 32.3732Z" fill="#FFC3BD"/>
<path d="M193.009 32.4729C193.366 33.7069 193.309 35.024 192.846 36.2225C192.551 36.9607 192.136 37.1443 191.796 37.1092C191.409 37.0693 190.933 36.7362 190.579 36.0769C190.267 35.4511 189.991 34.5644 189.926 33.6988C189.861 32.8218 190.019 32.0408 190.484 31.5457C190.96 31.0389 191.472 30.9627 191.905 31.1277C192.36 31.3009 192.794 31.767 193.009 32.4729Z" stroke="#407BFF" stroke-opacity="0.2" stroke-width="0.7"/>
<path d="M201.594 98.4664C201.594 98.4664 206.34 138.867 209.787 154.696C213.558 172.037 232.165 219.312 232.165 219.312L241.445 216.103C241.445 216.103 229.513 180.508 226.345 156.267C223.912 137.654 220.445 95.6758 220.445 95.6758L201.594 98.4664Z" fill="#263238"/>
<path d="M210.129 154.622L210.129 154.622C208.409 146.724 206.362 132.68 204.745 120.599C203.936 114.561 203.235 109.018 202.737 104.983C202.487 102.966 202.288 101.327 202.152 100.192C202.084 99.6239 202.031 99.1823 201.995 98.8827L201.981 98.7629L220.127 96.0767L220.136 96.1808C220.162 96.4929 220.201 96.953 220.25 97.5452C220.35 98.7296 220.495 100.442 220.676 102.556C221.039 106.782 221.549 112.612 222.134 119.024C223.305 131.844 224.78 146.999 225.998 156.313C227.585 168.46 231.366 183.439 234.746 195.371C236.437 201.339 238.028 206.549 239.197 210.268C239.781 212.127 240.26 213.613 240.593 214.635C240.759 215.146 240.889 215.54 240.978 215.808C240.987 215.835 240.995 215.861 241.003 215.886L232.368 218.871L232.281 218.649C232.144 218.299 231.942 217.782 231.684 217.119C231.168 215.793 230.427 213.879 229.525 211.529C227.722 206.827 225.279 200.377 222.719 193.386C217.594 179.394 212.008 163.264 210.129 154.622Z" stroke="#407BFF" stroke-opacity="0.2" stroke-width="0.7"/>
<path d="M229.79 216.344C229.743 216.344 231.692 220.321 231.692 220.321L242.53 216.801L241.257 213.566L229.79 216.344Z" fill="#DADADA"/>
<path d="M242.068 216.583L231.873 219.894L231.703 219.546C231.521 219.173 231.279 218.677 231.039 218.18C230.798 217.683 230.559 217.187 230.384 216.816C230.344 216.732 230.308 216.655 230.276 216.586L241.043 213.978L242.068 216.583Z" stroke="#407BFF" stroke-opacity="0.2" stroke-width="0.7"/>
<g opacity="0.3">
<path d="M204.219 119.195C205.704 130.424 207.606 143.721 209.276 152.212C211.736 139.2 212.312 122.768 204.219 119.195Z" fill="black"/>
<path d="M210.356 132.196C210.86 137.754 210.289 144.287 209.266 150.293C207.72 141.988 206.018 130.096 204.652 119.8C206.29 120.702 207.535 122.21 208.452 124.179C209.474 126.376 210.078 129.128 210.356 132.196Z" stroke="#407BFF" stroke-opacity="0.2" stroke-width="0.7"/>
</g>
<path d="M191.217 99.9994C191.217 99.9994 187.28 137.955 187.903 154.818C188.526 172.357 196.719 226.326 196.719 226.326H206.085C206.085 226.326 204.362 173.377 204.759 156.156C205.217 137.378 212.256 96.8906 212.256 96.8906L191.217 99.9994Z" fill="#263238"/>
<path d="M188.253 154.805L188.253 154.805C187.942 146.396 188.769 132.711 189.675 121.112C190.128 115.316 190.601 110.047 190.96 106.226C191.14 104.316 191.291 102.768 191.397 101.698C191.451 101.163 191.493 100.747 191.521 100.465L191.537 100.306L211.829 97.3075C211.777 97.6085 211.703 98.047 211.608 98.6086C211.414 99.753 211.137 101.409 210.804 103.454C210.136 107.544 209.242 113.194 208.333 119.431C206.516 131.898 204.639 146.735 204.409 156.148L204.409 156.148C204.21 164.769 204.542 182.321 204.923 197.708C205.114 205.404 205.317 212.561 205.472 217.794C205.55 220.411 205.615 222.547 205.662 224.029C205.685 224.769 205.703 225.347 205.716 225.739L205.723 225.976H197.02L196.973 225.664C196.913 225.264 196.824 224.676 196.712 223.921C196.486 222.412 196.164 220.235 195.775 217.569C194.998 212.236 193.954 204.943 192.891 197.102C190.764 181.412 188.563 163.554 188.253 154.805Z" stroke="#407BFF" stroke-opacity="0.2" stroke-width="0.7"/>
<path d="M194.893 222.594C194.853 222.594 195.423 226.478 195.423 226.478H206.817L207.129 223.011L194.893 222.594Z" fill="#DADADA"/>
<path d="M195.726 226.128L195.681 225.821C195.628 225.457 195.558 224.972 195.489 224.487C195.421 224.002 195.353 223.517 195.306 223.155C195.296 223.084 195.288 223.018 195.28 222.957L206.747 223.349L206.497 226.128H195.726Z" stroke="#407BFF" stroke-opacity="0.2" stroke-width="0.7"/>
<path d="M189.402 61.9894C188.368 63.6333 187.321 65.1115 186.234 66.6294C185.147 68.1474 184.007 69.6123 182.847 71.0705C180.482 74.0288 177.92 76.8236 175.177 79.4358C174.435 80.0986 173.752 80.7615 172.95 81.3647L172.367 81.8353L172.075 82.0673C171.969 82.1535 171.923 82.1999 171.704 82.359C171.047 82.8274 170.326 83.198 169.563 83.4593C168.381 83.8629 167.146 84.0863 165.897 84.1222C164.842 84.1576 163.784 84.111 162.736 83.983C158.902 83.4803 155.162 82.4219 151.633 80.841L152.78 76.8639C156.171 77.2663 159.586 77.4302 163.001 77.3544C163.756 77.3149 164.508 77.233 165.254 77.1092C165.817 77.027 166.362 76.857 166.872 76.6054C167.031 76.5192 167.117 76.433 167.097 76.4132C167.077 76.3933 167.183 76.327 167.243 76.2673L167.468 76.0618L167.913 75.6442C168.509 75.114 169.073 74.471 169.656 73.8877C170.803 72.6548 171.943 71.3887 173.023 70.0431C174.104 68.6975 175.197 67.3453 176.258 65.9533C177.318 64.5613 178.346 63.1494 179.38 61.7375C180.414 60.3257 181.422 58.8409 182.376 57.4688L189.402 61.9894Z" fill="#FFC3BD"/>
<path d="M172.74 81.085L172.74 81.0848L172.73 81.0923L172.149 81.5614L172.147 81.5629L171.857 81.7934L171.857 81.7934L171.855 81.7957C171.825 81.8193 171.802 81.8393 171.779 81.8584C171.712 81.9141 171.654 81.9625 171.5 82.0749C170.871 82.5232 170.18 82.8779 169.45 83.1281C168.301 83.5203 167.101 83.7375 165.887 83.7723L165.886 83.7724C164.848 83.8072 163.81 83.7615 162.78 83.6357C159.08 83.1506 155.469 82.1435 152.054 80.6448L153.034 77.2459C156.344 77.6251 159.677 77.7783 163.009 77.7043L163.009 77.7045L163.019 77.7039C163.786 77.6638 164.551 77.5806 165.308 77.455C165.906 77.3674 166.486 77.1866 167.027 76.9192L167.027 76.9194L167.039 76.9131C167.135 76.8608 167.221 76.8028 167.285 76.7454C167.314 76.7192 167.355 76.679 167.388 76.6272C167.394 76.6175 167.403 76.6033 167.412 76.5853C167.413 76.5843 167.414 76.5832 167.415 76.5821C167.434 76.5669 167.459 76.5456 167.484 76.5214L167.704 76.3205L167.704 76.3205L167.708 76.3168L168.149 75.9025C168.543 75.5517 168.933 75.1426 169.312 74.7457C169.513 74.5353 169.71 74.3283 169.903 74.1352L169.903 74.1353L169.912 74.126C171.061 72.8908 172.208 71.6176 173.296 70.2622C173.413 70.1162 173.531 69.97 173.648 69.8236C174.613 68.6229 175.588 67.4101 176.536 66.1654C177.47 64.9405 178.377 63.7002 179.284 62.4612C179.41 62.2889 179.536 62.1166 179.662 61.9443C180.447 60.8732 181.217 59.759 181.957 58.688C182.13 58.4379 182.301 58.1902 182.471 57.9459L188.921 62.0957C187.953 63.6141 186.971 64.9991 185.949 66.4256C184.867 67.9363 183.732 69.3958 182.573 70.8524C180.219 73.7967 177.669 76.5784 174.94 79.1785C174.755 79.3441 174.575 79.5078 174.398 79.6693C173.853 80.1649 173.332 80.6397 172.74 81.085Z" stroke="#407BFF" stroke-opacity="0.2" stroke-width="0.7"/>
<path d="M193.251 60.2316C195.478 67.523 182.546 75.6033 182.546 75.6033L174.141 64.8981C176.035 61.3683 178.374 58.0959 181.101 55.1608C186.821 48.9366 191.554 54.6835 193.251 60.2316Z" fill="#DADADA"/>
<path d="M182.901 74.9515C182.794 75.0237 182.701 75.0854 182.624 75.1362L174.558 64.8625C176.418 61.4358 178.703 58.2564 181.357 55.399L181.358 55.3976C182.756 53.8767 184.062 53.1216 185.241 52.8905C186.413 52.6609 187.503 52.9402 188.496 53.5763C190.505 54.8635 192.078 57.594 192.916 60.334C193.437 62.0413 193.08 63.8173 192.205 65.5519C191.33 67.2877 189.951 68.9509 188.487 70.4033C187.025 71.8534 185.492 73.0803 184.323 73.9454C183.739 74.3777 183.247 74.7188 182.901 74.9515Z" stroke="#407BFF" stroke-opacity="0.2" stroke-width="0.7"/>
<g opacity="0.3">
<path d="M193.251 60.2355C195.478 67.5269 182.546 75.6072 182.546 75.6072L174.141 64.902C176.035 61.3722 178.374 58.0998 181.101 55.1647C186.821 48.9405 191.554 54.6874 193.251 60.2355Z" fill="white"/>
<path d="M182.901 74.9554C182.794 75.0276 182.701 75.0893 182.624 75.1401L174.558 64.8664C176.418 61.4397 178.703 58.2603 181.357 55.4029L181.358 55.4015C182.756 53.8806 184.062 53.1255 185.241 52.8944C186.413 52.6648 187.503 52.9441 188.496 53.5802C190.505 54.8674 192.078 57.5979 192.916 60.3379C193.437 62.0452 193.08 63.8212 192.205 65.5558C191.33 67.2916 189.951 68.9548 188.487 70.4072C187.025 71.8573 185.492 73.0842 184.323 73.9494C183.739 74.3816 183.247 74.7227 182.901 74.9554Z" stroke="#407BFF" stroke-opacity="0.2" stroke-width="0.7"/>
</g>
<path d="M154.729 77.1095L147.922 75.8633L148.638 81.7494C148.638 81.7494 152.177 83.738 154.743 80.6292L154.729 77.1095Z" fill="#FFC3BD"/>
<path d="M148.963 81.5209L148.327 76.2932L154.38 77.4014L154.392 80.5019C153.216 81.8642 151.852 82.1048 150.76 82.0065C150.196 81.9557 149.704 81.8136 149.353 81.6834C149.188 81.6224 149.056 81.5646 148.963 81.5209Z" stroke="#407BFF" stroke-opacity="0.2" stroke-width="0.7"/>
<path d="M145.297 77.189L146.768 81.4379L148.624 81.7494L147.909 75.8633L145.297 77.189Z" fill="#FFC3BD"/>
<path d="M147.031 81.1271L145.728 77.3629L147.621 76.4015L148.22 81.3267L147.031 81.1271Z" stroke="#407BFF" stroke-opacity="0.2" stroke-width="0.7"/>
</svg>
